<mxfile host="app.diagrams.net" modified="2020-12-21T12:21:02.101Z" agent="5.0 (Macintosh)" etag="3Bdw3ISmCaDM6WYGPHEp" version="13.10.8" type="github">
  <diagram id="UiBAD5GZToGDINsmSXcJ" name="Page-1">
    <mxGraphModel dx="946" dy="533" grid="1" gridSize="10" guides="1" tooltips="1" connect="1" arrows="1" fold="1" page="1" pageScale="1" pageWidth="850" pageHeight="1100" math="0" shadow="0">
      <root>
        <mxCell id="0" />
        <mxCell id="1" parent="0" />
        <mxCell id="LfRqxSiJlln_DhOymT-F-1" value="ICP" style="rounded=1;whiteSpace=wrap;html=1;verticalAlign=top;fillColor=#b1ddf0;strokeColor=#10739e;" vertex="1" parent="1">
          <mxGeometry x="210" y="110" width="530" height="480" as="geometry" />
        </mxCell>
        <mxCell id="LfRqxSiJlln_DhOymT-F-2" value="Innovation Corner" style="rounded=1;whiteSpace=wrap;html=1;verticalAlign=top;fillColor=#fff2cc;strokeColor=#d6b656;" vertex="1" parent="1">
          <mxGeometry x="509" y="160" width="180" height="180" as="geometry" />
        </mxCell>
        <mxCell id="LfRqxSiJlln_DhOymT-F-3" value="IBM Essentials" style="rounded=1;whiteSpace=wrap;html=1;verticalAlign=middle;fillColor=#fff2cc;strokeColor=#d6b656;" vertex="1" parent="1">
          <mxGeometry x="259" y="160" width="180" height="140" as="geometry" />
        </mxCell>
        <mxCell id="LfRqxSiJlln_DhOymT-F-4" value="WordPress" style="rounded=1;whiteSpace=wrap;html=1;verticalAlign=middle;fillColor=#fff2cc;strokeColor=#d6b656;" vertex="1" parent="1">
          <mxGeometry x="470" y="630" width="180" height="170" as="geometry" />
        </mxCell>
        <mxCell id="LfRqxSiJlln_DhOymT-F-7" value="" style="shape=image;imageAspect=0;aspect=fixed;verticalLabelPosition=bottom;verticalAlign=top;image=data:image/png,iVBORw0KGgoAAAANSUhEUgAAAOEAAADhCAYAAAA+s9J6AAAEGWlDQ1BrQ0dDb2xvclNwYWNlR2VuZXJpY1JHQgAAOI2NVV1oHFUUPrtzZyMkzlNsNIV0qD8NJQ2TVjShtLp/3d02bpZJNtoi6GT27s6Yyc44M7v9oU9FUHwx6psUxL+3gCAo9Q/bPrQvlQol2tQgKD60+INQ6Ium65k7M5lpurHeZe58853vnnvuuWfvBei5qliWkRQBFpquLRcy4nOHj4g9K5CEh6AXBqFXUR0rXalMAjZPC3e1W99Dwntf2dXd/p+tt0YdFSBxH2Kz5qgLiI8B8KdVy3YBevqRHz/qWh72Yui3MUDEL3q44WPXw3M+fo1pZuQs4tOIBVVTaoiXEI/MxfhGDPsxsNZfoE1q66ro5aJim3XdoLFw72H+n23BaIXzbcOnz5mfPoTvYVz7KzUl5+FRxEuqkp9G/Ajia219thzg25abkRE/BpDc3pqvphHvRFys2weqvp+krbWKIX7nhDbzLOItiM8358pTwdirqpPFnMF2xLc1WvLyOwTAibpbmvHHcvttU57y5+XqNZrLe3lE/Pq8eUj2fXKfOe3pfOjzhJYtB/yll5SDFcSDiH+hRkH25+L+sdxKEAMZahrlSX8ukqMOWy/jXW2m6M9LDBc31B9LFuv6gVKg/0Szi3KAr1kGq1GMjU/aLbnq6/lRxc4XfJ98hTargX++DbMJBSiYMIe9Ck1YAxFkKEAG3xbYaKmDDgYyFK0UGYpfoWYXG+fAPPI6tJnNwb7ClP7IyF+D+bjOtCpkhz6CFrIa/I6sFtNl8auFXGMTP34sNwI/JhkgEtmDz14ySfaRcTIBInmKPE32kxyyE2Tv+thKbEVePDfW/byMM1Kmm0XdObS7oGD/MypMXFPXrCwOtoYjyyn7BV29/MZfsVzpLDdRtuIZnbpXzvlf+ev8MvYr/Gqk4H/kV/G3csdazLuyTMPsbFhzd1UabQbjFvDRmcWJxR3zcfHkVw9GfpbJmeev9F08WW8uDkaslwX6avlWGU6NRKz0g/SHtCy9J30o/ca9zX3Kfc19zn3BXQKRO8ud477hLnAfc1/G9mrzGlrfexZ5GLdn6ZZrrEohI2wVHhZywjbhUWEy8icMCGNCUdiBlq3r+xafL549HQ5jH+an+1y+LlYBifuxAvRN/lVVVOlwlCkdVm9NOL5BE4wkQ2SMlDZU97hX86EilU/lUmkQUztTE6mx1EEPh7OmdqBtAvv8HdWpbrJS6tJj3n0CWdM6busNzRV3S9KTYhqvNiqWmuroiKgYhshMjmhTh9ptWhsF7970j/SbMrsPE1suR5z7DMC+P/Hs+y7ijrQAlhyAgccjbhjPygfeBTjzhNqy28EdkUh8C+DU9+z2v/oyeH791OncxHOs5y2AtTc7nb/f73TWPkD/qwBnjX8BoJ98VQNcC+8AAABcZVhJZk1NACoAAAAIAAQBBgADAAAAAQACAAABEgADAAAAAQABAAABKAADAAAAAQACAACHaQAEAAAAAQAAAD4AAAAAAAKgAgAEAAAAAQAAAOGgAwAEAAAAAQAAAOEAAAAAyvFpbgAAArZpVFh0WE1MOmNvbS5hZG9iZS54bXAAAAAAADx4OnhtcG1ldGEgeG1sbnM6eD0iYWRvYmU6bnM6bWV0YS8iIHg6eG1wdGs9IlhNUCBDb3JlIDUuNC4wIj4KICAgPHJkZjpSREYgeG1sbnM6cmRmPSJodHRwOi8vd3d3LnczLm9yZy8xOTk5LzAyLzIyLXJkZi1zeW50YXgtbnMjIj4KICAgICAgPHJkZjpEZXNjcmlwdGlvbiByZGY6YWJvdXQ9IiIKICAgICAgICAgICAgeG1sbnM6dGlmZj0iaHR0cDovL25zLmFkb2JlLmNvbS90aWZmLzEuMC8iCiAgICAgICAgICAgIHhtbG5zOmV4aWY9Imh0dHA6Ly9ucy5hZG9iZS5jb20vZXhpZi8xLjAvIj4KICAgICAgICAgPHRpZmY6UmVzb2x1dGlvblVuaXQ+MjwvdGlmZjpSZXNvbHV0aW9uVW5pdD4KICAgICAgICAgPHRpZmY6T3JpZW50YXRpb24+MTwvdGlmZjpPcmllbnRhdGlvbj4KICAgICAgICAgPHRpZmY6Q29tcHJlc3Npb24+MTwvdGlmZjpDb21wcmVzc2lvbj4KICAgICAgICAgPHRpZmY6UGhvdG9tZXRyaWNJbnRlcnByZXRhdGlvbj4yPC90aWZmOlBob3RvbWV0cmljSW50ZXJwcmV0YXRpb24+CiAgICAgICAgIDxleGlmOlBpeGVsWURpbWVuc2lvbj4yMjU8L2V4aWY6UGl4ZWxZRGltZW5zaW9uPgogICAgICAgICA8ZXhpZjpQaXhlbFhEaW1lbnNpb24+MjI1PC9leGlmOlBpeGVsWERpbWVuc2lvbj4KICAgICAgPC9yZGY6RGVzY3JpcHRpb24+CiAgIDwvcmRmOlJERj4KPC94OnhtcG1ldGE+CnzvYHAAAEAASURBVHgB7L1XkN/Xded5uv+dAzoh5xwIAiQI5iSSsi1L2pFlj8OOQ/lhd1/sWj/M7NPW1tbUVO3U2juhXDsPs7U7Lqt2SmV7ZVmSKYliJsUMEiBIkETOqZG60Tn3fj/331/g8s8OJIEGQRO3+/7v/d18zz3nnnNz2bhUXIOaKXpZWdk1pH7tUWcq30w5zHb5Zypf7u+y2Jyp7F8G/7x+n6e8X3ZYUP/yz1PxW3FuQeAWBK4fBG4R4fWD5a2UbkHgc0HgFhF+LrDdinQLAtcPAreI8PrB8lZKtyDwuSBwiwg/F9huRboFgesHgVtEeP1geSulWxD4XBC4RYSfC2y3It2CwPWDQMW1JnWzr9Pk5fOalE3qbn+b1wIP0kWPjY0lk7QqKyuvJFnqz3dVVdUV/8ksIyMjqYzl5eVXyjpZuNzN+eBGvOkUZUXl9c/tpDWdKvXP4+b20jQcb7owpXH+qX6XCRjTQ/mfUM1dVZtULUeC3J5X2+ExczthKiqm78cGBwdTHqSNNjE5L4js0yjHtzlVHJfR5SwlQuc7VfzP6u58iPdp0/48cT5rub4s4YHFLSIs2dFTikhGmFL3T9vIxHcatuffM3HC6fIhncnK5fSJOzo6+rEweXjs+fd0eV0vv7xspHmj879e9bhe6QCP6bvx65XTTZyOkcLIwLftebGnci8NA9Ij4lkkra2t/UR6pGV/wk+nCoVC8iaOtUVIvidTefmJn3/nduI6rdw9t0+W/ud1y8tr+2zl9XnL+EXE+8pzwhzoOULYbsTHBGFNPHavq6vLk7hiN5JZ3CS9UlGUwCaCKxFLLKXiZIn3x+KTh8vtcC5Hqbv9ZzJn6iRcvpnSdznIL7c7/kzl+KfqDyxuccIJbgISARAjkxHFEyO4M/6zv5Gir68vWXEHodDYrScbMzptIg4MDDipSU3nl8dxQNwsbjo/TJeBcCZyp4Nbbq+ursZpSuX4UwXIy+V0bRInt/Pt8DZx+6qrrzwRGgFAChDGpt1zJDLi5G7mhPihQVq0w3Z1dSU737mo6jAXL150VpOahHN+mKWaSHZzJ2AixL2hoSGli91hk2XiB3E5Vw6HG3bXLw+T283p7VYaP++EDBObjvNVN7/y4miOEKUIBHLYbWhoKHGt/v7+ZPINUfGNaX84Gzr3z9MhPaeJ2djYOC0OzpkzJ/nnBJYTGUsgTnOyMB5TOs+8LNhzIpksTO6fClLy09ramlwmi4uHOW0O59zu8pUk+5X5BBY3PRG6wfJGzlsIZMfPCDhVuDxObid9uA09+vDwcNLY0bhfuHAh2VlqgOAQP02IifhGhlNyztcmji5XqZvzx722uuZKOOoAUuZ1gQicDn7WhLG7zdyv1N9hchM72sqw5tt28sc+lR4Zuzqx5LRskg5EyDfpoOk0MF3PPKxKQ5SPqbHx4jqmHQmfh8tjuIzU3Yo2tHJeNu3+RZs3vTgKYQBUGi0HHgAHwJ9mit+NQ3hru+VEBoGZyCA6E6bzguhww3Q65RXF2UsaMi/fZ21Y8kC5XP4uTWcm/9Lwn+c7zzvPbyq788AfGOTxOzo6khvuk+mlS5cmd9o46bKrBES65dm3ugJndcX0OuyV+BkBXgl0k1tueiKE+FAgPYqGBOCY9kse+skb33bCQjhwr97e3uju7o6enp70DYF7YoXwaPKxnXTzfN2bk7dV30B/sjo/u2NO5pb7Yyd918n2PH+ngTmZf2l6n/c7zydPgzztZzvfuVse3u52Iw4Ks1Tjfu7cudSOcMiampqk4Z50rrSvOae5J3FGRotSC+1aX3t1dpq8cXM+fFscJt7Nqr40RGguBMJ6HGSgAnT8JxMnL1++nBrFfvScthPPjUSD5Y3HN5rGz/1yLmh/yoHdJnY0ZbV78pzkhzxzoi615/5Oz+lPktxndsrLN5ndeU1lUj7Hy8NQEL7pBDEpu+uWh4No0LQLnWOpmjdvXmqj+vr6NElEe5GmidPpUw4r2gx3VO5u/5vNvOmJ0ACjV0TTgCg3rBuRsSHczuM1vvHzEgCNgqa3ZcbPjYQ/aTkdmzQe2kQI8Tlv3P1dVVOd3PHDPTcpJ+GmU4R3uiApaViZ6Ph2OKePm5Ea+7Uql4F0crvLP1n+uBkO9jcM/G1/0i31w81tih9h0dgdFhNFXSE8iJHJLCasaMsybc2lLWknK/KmHYmbu9v/ZjOvlvxmK9lEeSCmvGejMSxG4od2o7kRiUocGthT7A6DSSPZJC0rE7q5I+700IQnPZAgTwf/YYlGRjj7UUanT5jpFOEcHhOVf5M2ymXGD2335HkNP6Xp+Nsm5UPxjXa9cn+745dr3CGG6VQ+ZnRHiWlph+EC7Uo7uSxuC8xlS5YGyywQJgSKGOt8yZswN7u6+UsoCJq4aAQaw8sA2AG0ERMToNMQ2FFwRpQ5nxGYbxqrqakpme6B3YPyjb/TcRp8Oy7+48oG0whCuNJ4uE2liOc0bcd0eW1PeZFfpqdK8/O6kzbKJnbyR+X55m7Y8cM0DG3ibvg5fp4WdjpJ/FBOi/iGP3Cgc6RN8afN6XgZ39NWF89fSEQIZ2S5pKWlJXFJ0oVTfhnUTU+EAB/AA3S0ORONS+MA9BwJaJgcCdwTGgly0w1P46LwM9L420hiJMuJlDAmSId3Gnk6+M2kiIcqLV/ulgJkYT5rHo4/men8S/3sXlqu/Du3AyfrPK7dbDoO33k9bLfJmN6ESFvS5hZJKWt/b5FTsukBroofOAFBYl+0aFFplW667xuyTgjAAbYbBQAbyO7xDRnCQWhoEB4CzJXj2Sz1z8NihyCnU+5xjRw2jSSUweUnrAnc8TSHnupmP3cCDsc3yukZDobFyNBwggVwKNXEA5FQ1NfIiKiGNodwPL5zTRy+rQwzm7i7HC6fTcdBksCNcruOhhFmWaEoUThM7ocbZXOa9vO34zivvFy2G36EsdvH7GPFzit3y8MhpkKQCxcuTByS8qAMM+pEeLsnT/2QL7hVuqPI/japw3QqL8tk4Yg/65zQhaQweYFKvykgFfc4DxMA5fEJwzdxS93xm0yVAneyMKRFuBxJsOd58Q1CGxGx469QyXSjUjbb8/jYiYsiLRRu5tR5POwo19Pp2M3ldDj80bnK4zie/fOwtmM6XUy+0bRJ7kcdHK4Y5mpYu+fxsaOcRm7aHdN1zetkd7v5G9OqTJ1grhzWJu1kLgmHhDNi0kbUDfhTJupFHNxRmHkHludxve1fGBHmFQEIEB3cD5MeyI1tQBDGgM3jGmi522exm5hIH50jEOnQUKgcwWwnvCdmcKPM1k7H4rPdMUnTaZSLk7heNlOG+iF9wlvxTRjnhTtuVtit7ZenmYctjZOXD7vLT1sQz+XNTdxHtaPFedp0XPIgf7u7TPl3Xj6XKTfd/nm4j9mvVj9Fs59N5g+MT9iZ6Glra4vm5ubE5dwJUmYrcAptP7vPlnlDiBCAGCiuiBsCAIGUuQiKH4o4tjseJm5Oz2bun9tnIlL7uzxO3/kaCYxYNh1+cHjoCpLhZwR2OBrS7tST+pKmw4XEKedlk/BWTsf15Nva8LHpMtl0XWw6/dzf6VMeymfNN+H4RjmcTadBJ4Tyd6k9eWY/hMuV4Y+b65jbDX/HcZgr5seTu5KG/YE38wrkg50dUmyq9yQO65CI9rQTYagfdSd+XjbnPxvmrBNhDlBXgEpas4MFO42NSSNReYCPBnBOww0IgGyfCVBuDOc9mem0HNZmni9lIZw1finehDhk5MxNwjgedaMuRnJM4g8NFJdAsBPX8Z1PymMir1I30s/dSu345+nZbhN/w9xt4PLl7oTL0/Y3JuEmU4Yh8WwnXGl7AR9UHia3l3Kj3A97WUaE9rNJuoY/doiR5SfKxIQPEznAAq6IiJrSU5q0E/FKy0oas6FmnQhzgFABGs3jPhrcuyTcWAYEYd3wtpemhTtAnE5NFicPn8fP8yaM42Lm5cOPb5SmSJLpsuYmHjQkeaCpL/W3JmxfeW9KC3/cHYZv/PMykJbLaDPPr9RO/u7EXIbcJDz5YTp/lw3T7qRjhVuu8vLhXvrt8C5vbubhc7vTwM2EkLvldkGEYEnZ3SaO4BoKooIAvdThPcJep8Tdx76cZ4p4A35mnQipg4FCg9C4AIZZN0y+8afiRjIjCuEdN4dF7k7Y6dRMACV/FPmUatyd/mTlwD/vaY1wNvFH8Y02omParaK8cMUdgrA2ETgt8jeMcjNP32Hthul0yDPP32WgDVwWh7Ef8bGjJqs/btTffpi5Jh5p525uY8fJy2y36fLDD+WwJkJ/537YyQ9x0yKp68YaIjOfdFJIY4QDVsymEh5FWNxnW806EQIc+k76K6FecPRlSMd/GEsNDukmMrlTUbN/GoXKmyN490pKZ6JBAYobz0iC2+dR5EPaU2mnjz/Kpu2l30a6FFg/iFO4WZd+I06RBwhgcRWTb9zdkzs/YJXr0vycj/PPidBp2iSs00/loKUYo9pUlXFnQwLuLMck8W/ClEvQieCfw4/yGS7kgbJbbuJOWawch2/bp4M/4fJTFo6Tx883Y9DWKY7KRzuAc6TPhA0mZWNJCHeUy54+ZvFn1tYJi6Cn7YRgagj6E/pUxM/z58+niRgqPCQApIadopIAZjpVVnZ1HWyycHnDTOY/k5t7xbxBcvvM5SsS71T5DAz0pcYGCUBIEwgm+Xh2FX80bq4TJj03bvbHDW0OhZ/9nb7zwH2grz8hX5WQskzIV1Bc2kmIkdptBE4ptwraAeSVdjjc86Nck9XRCO0yEya3U4ZSt9x/Jvg6/lRp5GnlYewOLFCkg9vKlSvT+BC4mwGkALP0Q76zzgktLNJg40IiZtPghnBFIxod71QK5JpOGZhThZnJf6p4ds8byW55w+d2++fmTP4gWWkYyozGPdcmwjx9Ex/hsBOPNLFjetue/XOTdBgHQViEzQn3Sl4TW7+crsuWyqe8WKKYTpFurohnlaeVu+V2yjGdoj5WpWnjPpl/Hs6SiTsmj6HdeTjt2TRnnQgNBCoOQOlhqCjuFjmn44QzVb5shsg5wCdLy+WbzA+3UiRweJulSFaajom41N3fhUIRKUkvz4tyo3NO7DCY1sCQeGjcUDlBuf64gXD+tlnQoVns+LsueXrO3+XFdFzsEkYxplQuEwEczyZulAmVu+V2i5Ap0CQ/M6Wfwz9P13aIjTT4RjQ3Ebpck2R53Z1mnQhdYqFU4nzMSlFZKo85LnFgBjpyElOY0/eUU0T61M45EuQNbrsbc6oE8/iThTGjcHoO42/3yM4HEyJxz22CsRvxCYPOidFERnpovgkzOjxyhQD5Jl/8SvPnu1STV2X19Nf4mwhI22oyu91sOqzr7+9S0+W0ex4fO3DJlf1t4o/ds6Yubx5ntu2zToQAyRWmghCh5e3RMQ2UAcL0nekMMPi4uDND4E94lzZSaQDKnjf0VPbSeP6eqVHHgIEU+ZRqp2F/TMoLYXvyJnfDnfxcRsPdxEjvbm1CrK4sHv1xO+Vx7EYeUymHn84/D1Nqz+Ff6keaudtUeeTueXjs+XdpevjBCOD2wAU4Ga7ABz+Ic7bVrBNhXgEAbiKk4mxehoSuhQjH09RdnsvH7UbIj7te/cqR4KrrVVtpfH+XmldjfDbb+Pgnl2hADnMqTNtJGT8TIt8QHcQHwljzTfnQjm/iM8KZCBvrG1IY/O1GupPVj7zRuZoJfk7L8Ug3t5fGtx/xsFP+6ZTL6fD+Jm5udxql6ePucMAPO0yC0zMzdaBO81rNWSdCKuWKU6nSMSGzcdMRoQE0VUVnmwiNJHk5crv9pyofiD2dqqkpbqkC2Qiba+BmwnA6EJjd6LW94wg7U+1efzUhmoCJA6HlREj6dIr44W6/HPF9Jo+wTstmqtfHpb1PVNVp5XiQ2x3BOGLT7jPBN28Lx8W0e+7mNO3GN3VGAS9m7okHDCFC4HUj1I3JZaImVJDKWmTCLAdJpxFHZ26Ej/fMpUBzY5S6+3um9PPe0GnZJI3c32nmppEwd8vtIDlhIAQTCo2PmzXuTgf45e7sg6QOlANCpDf3pmXcITLCT5W+18UQu9AgZZ4faYK0ztNp4YaeSVzLER64+dt20kPZvdQ+E3zztnCaNkvTKv0mT5YhqCNw5bwq+cEoUCbQ9DGLP9dMhDkQ8nJaSsTfFaNSVJijJSBIGo9AiJq0ASBowhupsIMQuNNY9ic968rK63ONu+uBaU19yBNl//SR/eRIakTPEZXGJQ1zIWCA3YTG7C7xTAC4u85kQ49MHhAXdUYZcRMMJ/ZC4k/aIBXuxAGZDDPKgSZcrvgmPfLNCdHlIB38HcbuLiMETx74u/6YfONuf/LkG217smTu9s9N6pzHye3EN3wdB7c8jMthN9oxxy/qDAzY2A1eLliwIMGcdAjreHzPhiL9aybCmQoGEFCYVB5lIIyUjcQcbZ4dG7m6g9+IRuEMQIABMhgouBvhBgc/fug3ZZD9OM/MaVIraaMwbfc35lSNAVK6rEY+m7hTTsqLG2H5RjsMSxS5H2EIP51yGfNyOjx5WpMOSGqVh7cdTkq4vGyUz+VgMwDpUUaX03bcCYdJGmj7YccdhZnr3C0F0A/lIU6uXEZMp5XbCUt+zpsw+NPm1mxNM75hEobwEB9mZ2dn4oCeqzD+kbbzxD6bataJECChDBzsAAOi8jEeKutGzwFGHJAIYJGOgQKg6OUxy8unrwJpXItynlOZICx+RoRSJIQzufzU0drIU1lZRKIc8Z0X5XbnQz2sXR++CWtdWgbyAJ4owmJ3GjbZNFFaPncSpMvmCkzXi/LbjntdTfHpt9K8+cYfZMe0tru/bbqM/sbMVV7XPCw4gB/KaWOiSAMu5zQN8+SpH+Bx6dKlxK0ZD4JT4JvTc7jZNqfH4OuQu8CfUgEwBg6VT5UdHUs9UU1VddpM66sEAJwnGAAy4dF5fL5RNtPHJD8zATRvbNudD8nZDRN3TGv8jWT4oY2gDkudCG/3UiSuqipyPtydBulS7pk04VwWx3U+mKSJIh3DMIcn7oXK4nlH0sHP4V1+3Fx+lz0vK1KM88Z0/nl80szD2M/p4u96YOJf6jbVN/lRj5x4nAYmhEUb0Q50LoTFzfcVYTfxzYRLqVCz8DPrROgy50AGEDSuUCMBg4YEmOYGAA3FN4CBKBEXMFFwF8ZKmJ2dXcnt8/5QLlRePttL3XNEchjKgB0/IyCmES0n0sn887CkA2zQJhp/T2XmZXT5SBNCAcaYxE3wlonK0/feT/tjuuyuF6bTtOm81C2l8P7GH+004OROJ/ezP+VDEcbhbMe91B8/lE0mliBA8knS1UQc4E5cm4QHpoShg4fzMV6lHC5XXu6UyQ36mXUiZAO3d7rnwKV+IANAoOEhMkyQGk3PhR+anopZRBMi8TwD6MaYCl4z+ZO+y2W7TcfFxM2NZBP3mYgQRHB80sh10b2IfIaHCQZYgDR8o3N/u2GShrXLSPnI1/AkHeyEc1zc+Dbikj7fuYkdJHaZSRMN0pNHyldFw8zzzuHjcJjWpEF44tHROl+7pXQnyuJOzOXK/bBTfteJb8KDO3TS2MEd6opJJ47GXlpvlx/Tinj5t92vtznrROgGc8GpFDoBU46uJOEMYBqLhuIbfwCKBpEAIMSIOAFAKyqubUeDkcR58e0yUmaXCTcjkcPgNxkROj6mkczp42Z7ESZFYsDNyIQJAphQCIebVR7ObsR3unk56bxIx0iXxyU8Yz4Ee6dv0+mmEzAqM+WuEPwLaicTERu/2fY2Wb6up9uRMmFHu3yEcefg8uemy4AbajI/pwXBuQPHbriTPrgF3tBxgzN8AxMU38CGcHZzfinADfiZdSJUzWJMQGRRHsXCvNAwaYaLAKSycHVcBFABhnuuHMgAFgAjgnAdwejoeJw5c6YIpnH1YGUC7Gc0jSyYaPKz3Y2B6XLY5Bwd5+sqCuoEZDoO655Og3iVVcULaLET5qoJUqm4adsahKhqQGcQG//SaRMDFp3lw87umqRVz/EJHeXykE4b2ScxK6oqE4KxZMSJhwKSiU6xaHeo9u1SdHV2wVjQnQD5XOW+wyODxbopHO60DSZ1GdWk2LASKZ+om2FTNgHLMpWH9mKTOH7ERUOImIYHDQhcJtMQh1Xu7zjcEUN6ECAmZYOw3EkTx/XBTjlMcJgDOtMKDtIZAR8mqry8RvluhLpmIqRikym7prVAfTDuY7P2mCqMSfWoZKWQ2D1XuRB7ZISGGpEbXESNPMxJ/BFxv+J6FIAmfFFXxPoNmxIQBwdZpO4X8dKzsaYGskDMbBZXLy4CrtAzZgURfMLyhHQgf1GkoywJiSZMI4hn/6gnbtYVQqwx6cpq3SCtcpf6Ew5VWW1IpM/0I7JJ9MaPcEIfKqs6lFCZC9Jlshf0qZKlA9Dj9OCDujUsBDsR/Mi43tgYHYiewR7BT0sglZpyr9H4mUhCozJhEd9lgiGwo6cnzriIYkzEW1YBMkrMFMIO9nQFxJI6RjoTxc2JbURlK+Ogr5ZSRkel9T2cYEsB9baHJBHgVqkyCAjQMmisYhQ7DDWnTloUYVeE7wTBUVTll9zUzu5gaV/DTiHSsTe+CQeh1UgjFXmihbpBSLyOBVFBUCYy6gGeWKV6UTbly32pqqngVBMjkqwqFG6MxXo6GIjZkSbMT7ZiSYBr+LxmIvw0eaceXQExS/VM8WkcgAqw6eEQRVEgPXp4ZDw1COfi5sxputLL5mJH6ukU32JHsVEhqCLXghBxS+4TptO3aX+IjzEu7riNjrFOqQkQ2cvELSqEi+X6waSxIS4EHyQBeljcMSdOMOmZL/peCEfu4g5l6vjhEqIWEYOQcIgOqyjKDQujh4RwcJ9KPUTTKsS5fPFS6uDGBKMypUUkkH5c5WFDVldvl0pX7GhASKF9DJVpbKTbDYAL9aBAY4nLKkOlYY5lDkI9BXHVBxgVt3klDjpBRPJMaZEecdTVJhP73LmtVEX1K04OjZmAIWy5V9fWJC6E5AMBIj57+EF5uRUNAsQPjaJ8HpaQZ6kiX7dbqV/+TbugKIdqnszkoB/7UfPZVjeECK+lEiAAQE+NK0QzcUGYuJWrR8eNGS8WnoscsjgzRlxEVyvC5wg2xuFiEB4iEDKiC4pjO/EQ5/im3yS9XKfdLhU0n27nkv/YuNakRuAYxNS3GrdOL/FilisbiEEMqWgqGu5wUXhFsVwqg8KNicPAxRMyqecvg8CGlb+wBUIbG2KiReEkQhVGVCbqMCp0GVNa40VOD/IgXM2d0yokL8KNMZGENbkm9pvqOl5bP1GuiVP9ZepUSJyCCF6VcAUVlLIgpYwP6yoIlSOVjWpWF9+8By5wFwilWmufmLiNSBKhbnRWxEE0zbmeiQvio63M5eB6iUuKAIlH+0JwtHvO6Ug7tZvCObxN3L8M6qYnQgAPoGlQGg/A0nC4pUatqE69IjsfIEb8EVXgjDQs2o1Ow0KkpEVcEL2oig2JnfENabgByQv7pERYDpfStq6J8KRrLctE2nCmovK4mFGYEiU3iVFC0ITUKpO4A4SjoiVEly2GtSNoYIgJBab6hfNV9eK0NWmKvb93MInzpFMoQN3EVnfAYC8RTrEexZLQuRSJg/oAh9T790/ciyoWPFKuUwTidOPqWIAPKnV2YtPAG7IuVwdB50Ea6UBv6jUUd1h5D0u8VSiWPdJhYY0ZISpgaO7GqQ2IzeIkndwVmE3kR2fBxnQTHXm70yVfEy7EZpxQ1FQm0vqyqZueCHPgA/TU+DJpGPSgkBOEAaloHBThIEjiWnylcfCHEEGAIhJURLNEWMZEpIsmnE3SAhFyPyNMCqcxGsgm9ncFaSGj9I77BH1TRqeX4oAkxEkkoLyYSIIIRYCjyh8mCpIzmYVdWKYZSE2vI76J81UizqElpkJrtXCyUc3uCQ4qqYhEyWtMXTYmopYoXK6NEEnsxs/jNCYhkhSgfMTdgFNC+AmYki1it+vNMhPlG5foPwq3B1aqB1eWlInFV4ro2MNbJdESuNag4WQaL9IJ0jYQYeJucgMmaZwq2I6I4NK4TqaXnSiPFX4QGumQNmkZDwjDt8uZuxvuuN3s6qYnQgAIkIucqziuoGHQNBaiG/55j2ikghDtDgFYJeLVGKScATpIK8ylsXKdCEbpQrhuZFmS/YoJL0htrDIocXgHZlJwWlnYEWMFMpP3GH4yi+GFrOJkCaGJrcmV9EfHoLoNanZScqPKVhz/DvQNRkEEXlteHfVN1dFx+WIMS9QDHkPcYCc9oDjD7McVoVVqEDo4rlethvqie2DiVSuyEeFUiOu11TWkyTLGWIYp5XX9mdRK41WVuUJlKBKEiCpJGAURTp9mgDWWk1iaOjaNVQlT0IQRcOtXeRl/wtna29ujf6C4VmcJp7un+OoS+QF/4hbjF9vDYmnefthpF5tuH5uU35wc+82urmLITV7SUgCb0MoQn4QgILcJNTfpQWkwc0oaDn8QjjEhO+chQsIYAbAXJhoZxLqSN2MeuNiECcdirKeBaeKISQyDoORkYhSPTN/KtDjwR7STFn7KCc7FmE7ELQ5aVOpw1DmgcOnu7iqOo0Q0dRUSRTUEK2NsJmYxqgFmeTV5K6DGhGWjKveI1sjGa2JUXEs8LsGlrrw+mqM11Ru4DcOB4PBK48RHR2N4YDj6NOZCamA2mTAo6k3XwriwurpSUkNDNNQ0R1vTnJjbqrccGurjQuclBYRTaouYOoDO9o50u3XX5e7E2eCQA3KH+BLMVecEZxErbTKiiSbgDbEluIsQaUvKgMkGcn97XEibUjbaknC2810sc7HstqfK3MQ/Nz0R0gAGbi5aAGAQqfNyz5UelEYkLIp4EBtumPT0aNLADc0SCH75mM69MUSIPSGOcJF0yyXijdLQIhxEP2Y/5whJRoTw/RKn+vu70/oUyIJolRBd5SQdkMwilcWqai2XpEPNFFlpg/D8lcPqVH5RVixdskA4Lk4tyq7U29Bjg6PReeFiHD9+PE63n4mDZ49IjC0SsOSEJMoqYuK2sDAez2yUbmptEdJXpr26hw8dir3790X7iTPRd64nhvuGEqe63DPxBqQ6KKtCWn5R3uKotSLEOSK81uY5Srcxqutqo2XBvLQcUl/bkOoo6Ggyprg1DEmEJSaIrqqm+GhnuTgkbQNcgdF8zZ5aAS8UxEkc2oiOwfCzO9+EdXhwATc0im/jTHK4yX8qQMLp1Gz3JuRvZAVwAB8TdxrRgOXbPSK9n3tKEBtFOe2W18dpu5FoWNsVRWKUxiyazRPJJnEKsYl8lyxdms6Y9Wr9iQVh8q8R0pHPMGKeCOjYsWOxv+NyvPbqq3H48OGEVG+++WYi9tTLC1HIizjUi3ERmwzmzp2bXgZqqKuPbzzxa0qrLOYumB+t89s0G1vQpFJdnD2nTQiivIoqEZiaqL1dd7X2DMQP//bvo+NiZ3y456M40346zvVelJjZI7FvQJSnmgsPEYHJV0wnwWzZ8iWxQE+CjYwOpVMDB/cdSWmqJ4kaTdaUa/0P7j6o8ja3zI1BvdGAoiMalRvPj1WpvkOq99mL5+PE6dOJ04M55XWqn+IuWrAoNm/cFCtXrBDBsnuFctTovYfL6nzq0tobndN4WX/qjBinmhBpb9olJxzamrajfXFH0QZoFPWzOybfwDh3J2wp/vKda3DG4ZwO/nSGyCc3Qt30nHC2gTAk7igSSetVEB/iDwiBmFoQ52iQGFjf2BC1QoYeEWT7uXPxqoju6aefjrOnTsfLzz4rkbKIGJSVhqMBK4S0NCrjtFLFOiN+NPZf/vv/kJ7sXrZsWWzesjHu3H5nrF67MpYuXyYErIp39+2Id955J155+fXY+fZOcRlOgGvjsRJtamqJ8xoTgitsRhAeJqIbGdDh3bQTR+5q4VOHT8SZoyfUubBIIiVp8+67N8e6NetjbtPcmDd3Ucydt0ATK3WxdsOGKKhjksQb/RJNGxvrE/dsF9c9J6K/cO5stJ85LX0qLnRciHc/+CAkb8axo8fj2MlT0VTfJO42N9asWBWrRJAQEcTBIjiKiSyQvlqbCVhD7FWn91VXX3kipLetkKiFGIV4xPQ5BHJWkwiLli5JIhZhTpw8GS+/+kq8//778fwLL8S74ngaCKVJixXLFqcT2Vy5/o1vfCMRskVSxEHikzbrmBA3N5Bj9vb0x/7Dx6JXyP76229JvxEtP5kjjlwVjzzySDQ01iUCeOnll+P8uW4hs3ao1M2J9WvWxe23b41lS5fH7bfdFvUiHspdEMeiI0m3emtihrHakUOHVebdcfTwwcSF79m+PZYsWRJbt26NZi2EV9U1RlNLW9Ro6aBPu2vqGnUyX1TBqBBTkqrGqLKI0Ee1PjmgXSW93R0aQ/Yor8H4xXPPxu7du+P1116LzmMn4rKWii5397BhRuL5YCyYOy/qJKrSQYwPFTkT3Mf3uXjZRjl8ZdVXmgiZ9RM7Sj0zhAJnglhwY9wGR2xpaY69hw7Gj3/84/jr730vDtLzCyHL6+vi7ru2xxMPPxpPPPZobFi/SVxmNObPW6jxmLbdVTIhVBSjjF3DzBJ29Woceyk6O7qiV8+iHTx0NHYJiV947pk4eGC/llzGoqv7Yvz857/QBEefxlLaZKwJ0prGmmhR2n/5n/5zuo1g7fqNMb9FyytKvLiHJfUJEslVPNVLDDzSTjL5d1zslr4QVRWaDZ3boomYwZjDWEyRIbA+iaVd/SJexb18eVzb4TRppbpX1pZHjzYosR4vcERB3+U1jdHQIsJF7FXaG+/cFifPtsebr78ez/z0p/Hycy9Ex4njcejgkbh0oSONme/edme0SdRmaWVUs0EVoshqpV9VLXFX3Pmrrr7SREjjpzGEkJbxCQv8TKezCRvxsF/Y//2/+Zv4h5/8OH7yk5/EmAi0af78eOyJx+OP//iPY9OWOzThsVCiILvxmbyJOCciYjzY38e2sH5xL9bpEAuZDNJkg2YVW6XbVhVRb9N998Vv/9HvaSj3b+PEifZ46flnYvc7O4TUv0zcok97Rr/zW78Z//xf/EHcvf3eOC+u2aALdztV5sN9uqdH4zGt5UuLcFT2IoJrkoI8NSgc6O+LZk2mzFsrMVtuzKReHtbYm7V9pfGKRN139+yJ9z46KI6sZQ5N/vRLFm3v6I6LEhXnzV+oroU9ltV6931+rFu7OjasWx3LliyOljm10VpfIfcF8Tu/+d345re/E++88lo8JVg9+7On4rg6FcbYdXU1sXpwuThuS9RV1aZOD7g3iINfHroljn7liRDRk/VCJgIYuzDjyUI0nPHDvR/FX/3VX4kwnksU853f+9341re+FVvuvCPu3LxVe2UijolTnLkwGJ26JqFXEw+7d+1K4x8eWKnU7ER68IaeX2mzWbhRYmOdiL2BxWvNzj66danW8LS9TWxl8TIh8+//YfzRH/5h7JC426N9n0ePn4xHvv54LF65Mg5f6oyqpub44PjpOCjR79yly3Ho0Kk01uMOVzEncWCts1EfjUXH1Ik8JCJvEtdubW6JJZr8WblIHHpubYhuo7NX+c5bFHMWXY6xw2fj6KljifhaFy2LQusCjYXnRrfGcEM6rtTfNRBHOo/FrsOnou7VN6NR11rUadLoD777Ta01VsXShQtj7aLW+PoTD8e9d98bjzzwcLzy/PPxj//wg9i7b38cOXgo7r3v7ti8dbPgUJnGyowzmbQR0KW/uuorT4SJQwlpOS3AOKVOXGNAkzVPPfVU/PTpp+Kl50SA4jzf+va340/+5E/i/vvvT8sApzR7+dGpS7Hj7EDsPHQmTmrJoDuNl7Tdiil4pcG3qDuxSIgSIoT4akWI9ZLvxETipdeWxMLG2li3YnmsX7k8li7QdjtR07Z77kvc+aHHdEOdvs+IM53UrOjffu/70SFueOT0mTjSfi4Gymo046hJIInQjK/YElemHTHaRwZ7jx9qrLZAb7SvWrY0VmuyZ+3qNdGq5YUtW7ZInC2LJesXR4O4WsPitdH6zu548vmX4qwW2MvGxMFFaIxXKyWCFhpa5aa7Oft6o6N7IArdQ1FXGI1/8+f/LrasXh73b78r7tY4c/OqNdEseN13/wOxfNGS1Bn8/Ml/1Dj4dOzbt0+TXYVYI07KsgnHjW4pSSxfaiCkGQOmDz6rkhw2oSDCguQ0tm9d6uxIa19d3Z3xA/XgP/rh30e1EPY7v/lb8Wf/8l/Fuk2b44LEvj37DmhC4vk4fKE/3jjRE10iBNR4f2/Utjalsc+ctkXRol6eiRINhdLyCdy1S7pDoupYT3dU6TjSRx99FM3aLKDl9Vi5oDXu37ZFBLkkHn/0kaivq4zz3aPxusaMr+36IN4WRzmqSZ0elbVGSFzZvFjHlTQhIxGP3SxpzCWOOKZtbFXi5jUSf+eL2w729sRHF7piz6l3o+LN3arraDx43/1x24b18cT9d8XcxogH7l4ed0rP03LGa5qF3XvkRPRIVGxsaotBLcT3S7QtK4iLNtdrDKrlInHZ0SHVd0Fl7L/QGR/8/ZPxw589Hw9q/Petxx+L+7asj3tWzItF6lzWauniH3/0/8XbO96MF198WZNS5+PhRx/WhI0Gml+gMv9lDC0pPY2lXRz8cLsRqvCvpZiQmEpfayG8roOJyMfaGuMExk3kyTipKBIWp+yxM15AQyBWzKihQWTSSWs7EmNGZWcr8QQYZV4lMOKmbVeCJiJnUSN+8q0f5V+tvZVVQoYBcY0aRMT6mvi3//v/Fk/+7CfazTESv/sHvxvf/I3vaLby8ehU+Kff2hv/709fijcOXYjTg7pyo6JJMyCaUdVyRkFin/BVyKrdI0L0Xs0OKgltI9MOHRb6Vc4x1UsVk9yo9TXFqRaX6Va4hjn14pydsXHT6njs649E3ZyauKi4r390JH7yytvxj6/vjuMiyMGathjWDpjBci2bzFmg3S/agD2sc5eD4uZimaPaNTM2zvGvSuWrbWVy04sK2l7XII7eFGOVes+wpimOX+iO3R8djlMnO6OpebnWKLVrRWXfvE6dR115zKnWbqJzx+PcxXPa0K320AznQDpPWBEDPVqE7x/VZFFzjGo5Q/O2MVKtMlXUxrFzl+KjQ8eiR6c+WhYsi7kLtbg/d3E0aoKL8faRAwfT7HCjxoNLtRZbp7XSAXFb1k5ZmGctlWGB29h4kuNFGser/Yr48/H1Rdocd+MUpnEbP9JFg0uYI2p3iI31UHSrxq1LlyzRxgRJGPJPGzmIOIvqKpbPYiY3V9JwTogWsyyN46BKZkPrtSb2zs4d8faundGv5YOGeXPiX/5P/yoWrlwbPQr9o1/8Mp5588P44MSluDSsCQZxwNFyITitmDQdghqUT/oCfSQXbTBl6beoOOI04Sm3Km0grxInvHTpVDy6fWtsf+C+qNG2sG4FeWnHrvj+k8/HvtPaCqataDWaHa3UEkWvFubHRtgnquZLO22U8sQ6nDs9zzlq/03KdjzlSRd1tZMa1Z67X769J05oje87v3p/3Lt1Vdy9qim+ds+dsXbNMu3IOR2dA8djoFwcXHs8xysadCBY6371jTGqjkPTp+Ls6lzHtTKv0ywFDhFrQ8DJnsF4YdcebWnrjH/x33wj1m1YJhH9sVSO5595Rp3GQHygWeZm3Tm7btNtqbOlYzaBYKIgwNlWiQsKJKXmbOebp584Ye5wve1Giqk4ISfd857LXNA9mMtDfKdhO9gPJyxSwETICWRzPNLL07/KDYs9ZLWWEgY4tS4R7rLW8f7LX/0/8dJLL0SLptT//C/+Iu5/9HGJZaMiiPfie3/3o/jg6JkYqawTF2sQASKYiRCutKD2MSbiplUhOuWdJH5JGvpLSgZXU7BxU3xLYmlPzBHyrlu+KP77P/7D2L52YehIYvzoyWfj//rr78fhMxc1g6ievVbEqoVwNnoPa6IEcmKm80q6xdQ/8Uvdp1Lscq1jpvXS+fhQa4mvvvZStC1eEo0ijkVNDXH7PQ9FR5deEtaM6UltTKjSTC/nLbmhYEh7Wkc0BavP1CFQkipJFaxV9qtOF7TOevz40Th65HDcvvXuWL+sJe7TRoReHb+60H42Tmth/6TWXletWZvGh3BBJB+4oLlYvhsKN+NGzgndvh9vY8r1cQ5oGOSEDh7BCe3GDDkdAzPjbDPEfzr4Oc1rNYvd5LWm8iWOz5lCgMDh2zOnT2p3yg5NaIzGbbdviUce/xWdsauMA0dPx1vvvh/Hz16M6obmqNfi9rgQLpHCFRwv9t5FUJDiJ0FL0LKUH+fyRKKyV2mOdY42YT/28EOxalVzcIHj2+8d0fjqmTh9qVsS5NyY07YwaiX6cbK+T7tlxiXqVrJpHAq4BgVPvKQtamVCOL1YEac7+uKVnR/GT597Pd493hlzNdT97e98Nx4R8bSqjHVj4sD92tI2zISTjpAJAtwZKxYIy9eMp7YaigWPFHTGU51rj9w+0izuj595Lvae1ZWVyu/bv/Fb8ehjX9ceVG0A1zGsAwcOJESHmCBChhs3CvmvAXTXNeq1teJ1LcoXkxibuunthjUuefvNt+LUiZPRpn2W2+95IIlbmkOJnXsPxNt7DkaHVrPHNQnSq50fPdo+xgIhpMc4MGnZEf8QT0HwZE5wcMlsCqTQOv5QJrNMW0oqNItZrnti1iyZH1tv25gW3d98+1D84sVX49T57pi7dL06AR01KtSKZ5IXiMo4UiKhkJxxDSrlQ56fUVPmtoVzE3GUaedMoWlB/N3Pfxl/97OXY+eewxKBI1bMq4iv3bs9HtyyLubVaNx5uT0KIsLaltpo0kwynUm1iK5ckzbMCveLjQ+JmxW0lFLZNi+Oalnl7576RTz3+ptxSesiDzywLX7ju78rAmzQ3tyLmjE9cGWnEuIndTJXgzN9FdRXngir1fAc1Tl2/Eg8/cxT2pLVFffcd2/89u/8XizSfsoPNcmwY8++OHz2giZDqqJPmNvRL24EAWjz82dVIG25OKDOAWgxfTgaNUHz4D3bYsVSibhK7JTy2fn+vhivbonOfk0gVNRF/2gh+nR6glP2cAqIGZO1wWtREG0PK/3aJjcssbwwZ16UN86L8z2j8dNnXhM8PtBe2bHYLEL859/4ety1cUU0VYn/DXRGTSWinMR47b7hdEmVxoRlIsZRrSuqe4l+1bBXHVLDwqVxVruEnnrp1Xj1nY9Sp3X71jti7frbVPRC2iTPNr58AsaipDuZa6njlyHuV54IafDa2uo4d/ZMnD19SmOSiti0aZMmDDalBe0PD2mG8PJg1LYtjubFK9TtzxGH1AKz1tBGNZYEkUUVV9r6CldM7sUtcR7DctkRnDBdOShCKpdI99gD22P75o3RIHre9cG5eOf9D+PUxV6ty7XFqGYyNQWZJn/S/jKiSySFe7MMgQh3LUrJqS7auaI9pL0q+PmLXdG4YGWM1bRqY/ZB7ZV9W5vGd6XtbHdtWhHffPTBeGD75qgY07lD7R/t7+lMSxXl4vLAkcuf0vYhjR1HJKIijg7qREV5Q0scO3teRLgzLmk+p0Vb577+xK9KpC4e4D116lSqE5wPYiQt1I0Yj6WMvuCfr+Ds6MchDkeh8Vk6Oas7TLnOj5nSWol9lxX09V3vxRGNBccb5umWM3FCia1lNfXa6dEQ/enIz1UCvJJyWr/U2qMcmBdh3gYOyKRNuT4K2lsqwU6ccFSL6IvlJ+TT38733ou9h49HRUNTDJaJQ+tExyUtnI+Tnrh1RZXua2Eyh7tAlQYIO6Tx67Uotuidk1hYWa89pVra6NPSxnihPirqW+O9D/bH/NqyWK2dMJs2rYp771wTF7S+yTpp+0B3OuUBudC3cJKfu6Z0zF7TmppsU4XHR3RlhXSLiHz0/LCWLo6kvgTJ/F5tehhWR9SqsS6PsrDhnTEhSxQQHx3XtXYy1wKXGxm32OXMYo4A1D2aZ6GcHT2eucRUJg2RelmFzdNyGo7nb4ex6d6VdAiLO2IOi+jMxLFhu1o7lP/yP/577YXUQVVNQPzpn/5pmnQ51t4ljrBfO1Z0jEkYNqSeu0xim3BHXEBTKGzQTAdqhXAyS8dkTM5wuVKZRLQacVtRj66m0PY41YXF7oXiCP/sWw/H4gX1sfdUb/zi2RfiXIdOIGgMOCbR7uLlbpVZ3G6CM4zorplhaSvW3cgz576cys+/hzTuRHMGEs3OoFwPMNMqYua0vXYqaKyr6yd0Y1tDiw7rajb2jXfejf/5f/3XaUZWUeNbD98Zj2qMuGphm07x6wa0wX5tMNcZQaVB56Ud4CqQYCGRXb2G0tLzY0wmiTjf2LEzrahoDixatYtHUEvw71BnRlzamU6xeBKEjXUzK7f/VCbpecmDtjfO4YbfzaBmnQjzSpow7AbgvlilsYwwgl4YwoRgWTSmR4aLsTdzRNPzw9Ij4kxoLmBKhMfdEGhQKYmesiYTkErLEXdfIz8opEwXIYtwEEcrxRGXLF4YVQpDXqe0BY3xVLkWvbVPLM3KagfARJpko0kcdJryKRK8XBPB5XCcyk7YyRRcKRWUwk5oNnYPqyzDHPhVeXQhXLzy+lvR0annB4S3j2ots6myLBo0LmysLle9NBkzOLFFTzOtYtZKS/+sYWoWl2117BriXGbKQt492l2kZfPUKVJmE4gJJrUBvd0sKPJC2SzNYir30nDX63vWidBIYSDTE7mS9rtelfk86dRomrzzsi7IFeYx1lq9cmVxjUiJHTlxUoShaXNd3TcihEx3vwg5kxJB6ICcWlKIkrhhljttnNoZYiwi2KAInfs4uY6QhfZ6nUrYtGE95BodPeM6yfBROr0wpin/UYnCnHLnvGJRI75yvSLrkPTeIkL9ciAeGJp+cJ3MbrdPmuROGdEgPGlrBlhXOcJNR1TXEZ2lGtMOm7//6XOxZ/8RcamIO29fHfdv2Rzz67XrSTCo1BWJw4PayT6mV381c6sZo2LhxGW5DZx7dLhPh5sJyI6c+oZ1yj79XSUGcIPOkDohpVyPiRnjmrKcUk0VZir3KRP6nB60wqwqExoVAsg3HREKaS5pGn0EsU2LXOvWrdNZN3E9QeVYIkKhvwhwTGVPGJSgpYV2jeMSUSTklWMiOpt8TIBWiMxezUQ4QrBqjZdGNKGzoK01btu4MeVzsv2CJmU+FJcRGYlzCIV1rlBip3afQBi6CEJaCC4TYoToIRITlQIlxMVEGebFr5l+1SkqSJo0Ul4QFYQ+KkIckrjdo1FolY5rvb33cPzyrV3RrSs2alS1bz+hM5TaYNDXpRvAR1nmEfFooqlC4nA6I0U3oZnTMsGUC4s5UQ8cYG5Ao4I9cowb9WWcAEdcdm9dm6n0n8afdHNNHL5LTYdJHjfw54YQIYClgjcjEWr3tu5BKd6pAtxXaLeEugpQKO1xhBOm5Xw4YNJFjsFVT+iZFHVm7MEkCpy2RmMj7g9doX2TS5ZoMkQJHNOVGSfOXZAYql0a4jxchpTGmwwHFQLNckZBBFLMs8jxKBewNeJOZZ+2jGKn3DGDiFxQuQrjujpDelz5DUtk7tc4eFCbxEe0Y+dtzZi+re1oMLq1i5rj8Xu2a82+T+PJPl3/ockYxde6xUR2ghcbZ6XLVH9ed2BMC1yBYKXG3hU6LjIkP+9OQRQ1QWK6XtOWfwZPE1sezG6lpsNM5W7/623eECKk0FTs5iNCLdKrp77cxc7QouLAbbq1TNjSr54clfZfwnbSR1qOT4RRYLkhoVTRq8hSJuzJuApetmCltyaUGucIly9bEtqjnW6sPnnmfOJzVfVa/pAoWi7/Sm3uLudRF11LD/EVuWGRo4LG5oQgNCpH2Nxe9J38lwuC09X6qmuFCKBI6OSnCR9xQt2wr0kpdVLanNC4cFmcvTyg0yMvaAO37jHVbp4H7rojVixfKO45og3PmmhXPIgQbsiyheRJmeKC0hBok85RMpdFmXt0PcaY9q5y+RSTMpSZMTljQXCFbxPD5KX/9K6kk2tiOu3cdJhPn/L1CXkVS65Pep9IxQjhCtokoP0+EekGOjATx8QMCjIDIUZFXMKBIjJAZokDEkLoI1EQcY1lBrhSUYzDr0SR2ATdIloxOwuCkVdz45xYMH9u8r4o+j94/EQSQzlhwdWJ6bkupc9SBHmVixA1N1vMb0IcVfGKnQMmhZ1QuT1Vwh5TmYqb1vnghBInC2N0PCyLaMlBnFC32+urPHqZmNKM7b4Dx+L99z6IAb2QPF+Lm48+/EBaGiyIoOiQCkqP0/6IoBXi6FUSr9WdxJA2na/SeUlWNiHCU2dOaggpsVfjxsmIkPEgnfZsqJzwJkvf/pP5zYbb7NRyipLOGgF6cuTKBImR0uYUBRIaj2jHCGISSviiNTIdC1IvDqcp46IWoYxFwIQ+CftBt6KYagaZEuDnikMRtEyW8N4CcdMsYl93tDTURGudbqqWa6/O4l3UZuZybmXr0wRR17kY6WrHQ/pi1GkZoE7EWCsOU6OxV7U4R7UIpWpcV2egtWgPF2NPapEAyVc6sUrVQeXFL5X9Cnz0yWQMhnS6t5QN5eJkVePKS+cc68Z0wHlEV08MXIg5FXpg88JJHeJFLB7U9r5X021pzB09dOeWaFBS6VEapTauDqucnTMiwnKNrQtcdCMwMnGzaumi4AQhb+i0nzmXikQB6KQoO2I7nRV4YtGUMl6L+jQE9WnCXEsZZoo764v1jIUAKD0bAN62bVtaGzpx4kS6e5MG8FoOdn/jxliBOCgayZrvNGYQhpkTTTCdIvMB2UAymeQPkRE+paV0uIeF72ER4FCvZulGiie8dT1MdKvrZ/sVo71+1tDEEeB6o5r5Ky4ZCEG0jjZcpqUEpSXZUTim8UsqQBGxIduEeTK4Y6avr0en6nUOT4drNaEY83Wj2cqWBt2KHQE/bNBVimNnT0SZTtxrEj96Onp1MdIiXUvREC1aX6wWR+nq6NRGAZ1ory/ohL2WM3SEok4L7OW6cbte280uiogHhbypJ2HnCtOYmuipEIdiDRPRMgGHcqr8ZbzgJDVWEFHXFqJK5xLLVI5xHVlq1LpJmWYvN6xfrTZqjTaJ6KtWfE1EL+40MCSiFHfTjiFVKbYsXhT3r1kdLx84GgM60jSmNhzUWUKt9usMos4zDvWr7mW6ga4iWtX56FRjdEuU7TjXWWwjdRBrVq1WB6V9o1ouYimHtmESJy3cC8TFjmRqk3256RUrKqhOAMGF6SaulqzXeUVwCVEXqce4xiOvlRKhyY8THKjVq1fHbdxep3ZAIbXApWdbzToRQjgQoXs2AMsMJAA5e/asrgpclIgNwDNxQXjCoPjOeynC8E0YgJmmsN27g4CoKya9//QKDtGqG8u4VRqmN6gogzofB18EZ+fMaVZyp0WEIkSJgWpqtTfrXpoXJR9hR4GnyFSG9LCLuB1+xdjkrXBwIcQzBRcppLFRjU7y1+tiXy2zRfvxw3qcsivWLV0QKzZuiOZF82PJ8uWx7c7tGjOWxWItu+kmCYlzWmcT1f6X7/8iLuqy330njsaR4+0S6QRbEXk5gy1xcWG2MpJWJ1RgnQ+xlqLgbtjIij/8vFJXawx0tutA63AsbaqPnq7huG/zlnhUZwq3bl6rO0m1EVudlvoO7X7R0oq4m4aykgMijpy6GM1adJ8/R4eZFb+gNUXoL8mwah8mhdkEUFGny41148C6FcsS9++52BHHjhxTQC57vvpKlhyuKLfzFYcpLHSyKOMGHS12K84pokgPdzR4Y4KEyPyk3oIFC9I6MfiFP8OHG6FmPRcqb4IBAFSME9X0MvRA3DOCGxMXEKoJDDdzRQMQN4AM4AEk+jI7NK5B0QgQvbJOD5swaQKO0oz0nkWSUgOqZ2Va5NMih4vE451u/JGJzoP8qK9wUiN0AABAAElEQVS8UmOvXr0ylm9aF+t070v93DbtJtFN3UpAtBeiiZBEqjtp9C2G/T/+/jdiz9neePKFZ+LC6XPRp2n+Hm0lG9WkRyJCVsXh2uo2KCu3DqSntCGORISy4K54XFo8qjaoFwdq1ItKQ10d8d/9/h/E8ramePi+26JN+E2H1NnTm8apwGCgTGPW3r5YsWBhtDTrxnDJ1M2tOonBhAyX5rCNTiIylaP/4Xbz3u5L2gc7FgvmzVcKqo8I8wzPnAsfuJeVdqXdKS/K7Z0+ZviBWAhPGuhUZ30b5k6XbxSmwxCeR2q4ZW/NmjWxYcOGhHPsogIXkcRuhJp1IqQSEIuBgZ3KL1dvDzHt2rU7XXcBwnP7tQmMeCAqRAdAiEfjWfON+7Wp8tQZcGmvcCCdpoA7AxSajAOviLsSQIWwRQZTJq7HkjkNmTBqpgKonFx3YUX5IUKuASTPBx66L5asWhELVmuWUcEgdDZsnYOOZGk/flIPfc6ReCgiUyGGJI5u0JUR3TqFPzowHK+/dSgunVVHBJWKYydZTJyQZQ7esEg9SspcieszLzN1G9I19Q3NEiMlis5Vub75+AMyBXtJBmd09mjn7l1x8PAhXbl/Np0drBdMKgT2xx98RJ2prjGsbpBYV1x+4Yk0PQFVzEcArBR3rhcid+ucYk2D7irVjhkgcV5LMuekhQhpSAI+gB+5MtHkbpPZgadxxHhCWuAHCj+0Cc9hkLLAOXBso9Zr0ZTDHBL3G6VuCBEaCFQKIMDhIDiAhckGXhoFrsjJZriTAUscAA1wDKDSBiPM51W8dc5WNQigX+ODN994TUMpiYqaZl+3amU8v+MDeEkSPzHZtsYfCH1lDma6zFVH8AsNYlF/6pfaWENO7YjT+cWFSYJ8b7+uHLx4KV557dX45Uuv6Ap+HY4Vl1u1aLGAMBwH9++N//CX/zGWrFgaW3X/Z111Y5w7M5g2mAuyKgWIrLKpo0hIrBnP4i4f3IpeqaKI0QrL7WzVmjiplwi9TGco/5c/+x9iIaskwt+/+a8/EQHu1AmL5tiw+faYv2yN3r94L55+7mXYd9y1ZVvct6ghzkja69G4mo3kzIKmMgh26dyj0mfCpk5jry2bNsTCeXNTMXfufDudqicdYE/HS5tCKDZp/0+jwCXCQkCY1Js0gDPadggOwkT6QnpCI4197Wtfi0WqO/EhTNw8F0H8T9sZfJqyThVm1omQStGrAGCIicqiqPDp06dTb8RAGGBxNTy6TeMMHmFBmSAdj3RyAKdA1/ADkP3QC5Rw9OhRvf2nu2eUZktzk8Z8TLvDCeGAV1XxPUF9g/fTqUR4cHERturOWBKkY2ZUcyEJbQ8cOh3vf/hRPPeqEFyIdF4wqNah18eEIBtWr46VixfHiDaMC73ix7oF7omvPxYbl/5KLNTrSLdvXBdvvL9X5/dgQkI6cHcCKYe164YZ36JSQSHERKwQi4IpfI24WP9l3TLX1qiTI9p/rZfOju7fl06V3P/AQ3HHAw/GwiV6Ak3ENqTEDx89GR1nTmlDtianlEa/3r2g4yiOR+UgGGooql01ykMnKHp7LkajOCIzoy2NmgUVEA/uP6BjYMUZad6kp21pfyva2MRkt6lM8CgnROwmHNLEDg7ykjOaay2JAw6hEEexQ6R0CEhFECtlQN8INetECOG5MvRU2AHKoUOHEsIjf0NoECLu9FBwRez0SIwfASRx0QAWIBIPzgjQP6+CkxVSo4VukV4Yx3WXZ7e2sHH716DOwy3U+IwRomhS+CtCFAeh6agDx4uYqCGNaZtKZWb7Fsd26pTXuOoC0kEboN2zOw/GD578aZw8czZdJ98sROC2tApd6DQuUW/dljvjzqXF2TpVWXe9nAjO33XpkYhyzX7ersmcxoZn04QIu17GJPrC54DVoPJMyywJoZQfBdUPY0TqRA2qRCCcqrjrjtvT+xG6ZDt+8PZb6bKrOQsXaTa2PrpU6ZOd/XGhfzg6NXt1UcerejVzzAwyUnP7pYt600IL7rIXZ5OVr8amQ3qUdFhHnuYuaoy56tBAtnMaxx47clg0K3FZu4NAehOh8YRkaHNwZyYF8RCPsNitICxwBXwy94MAITA6QSQwmAOvaYFvxGVsiCZv4mPeCDXrREiFrYrIO57e1oMIAU5Dw5zUOwFEBukQI+Ip7+/hz72cuMMZ6akAEmkCIIgUYrwWRTq1mnZcv359tF9oj0s65X1g396Yv2ZjbNu8PIlTmsjUIrbGazKZnEh9aELomXN2g0o4SoQBDJJWVJD28Ol23Su6N73zXqdbr6vmtIh79OkY08V4Uyf65y9ZGYuXbkucUzP8iRvtO3BEJ9I7dTWFZlLL1IGJm3VLXC3T2qBoiu4imezQUcmzQuqb2VtlLDpMChieF/trm9caK0SAerZCRDkSl7p74vnXXo/d2s1TpefSDkpCaFdHwTri1m13xvrbb48+pcGe2q4+liF0/IoUhfjjOrJF3sNaE60S4NZod9Ay3f7NiZFdH34Qe957X3M3mo3VHafkbxgVS1Ts5GyfyYSYiI+GkMAZOnBMOmludaOjpqMvjsWLz3ZD+BAaT9Uxg3rkyJGEe+ABxAk+4k+42Vaz/j4hQKZHsmhw8ODBJAJ4jMc40L2YZ6UICzHSm6fXixSG3grg0HNCjIgxECTp07sBMDRxzTUxyQdAgvgOBxETz8DGfruQ6rkXX0ps7cK587Fet0kj4nGFfFe3kExT7GNiH2VKa0hIlwJCUGD9BELTWOR/xUEcZgzxTOlrNVRI0pfKSKN3ShqTs5Ykluusos7v6exer66xGOnVZMmYuLvWAM92D8ZLO/foOg3NAGqxu0qznm8897yWFDrifGdPrFw+P7rUx229bX0cfu1NXQrVolPwzMZWpPE1T2J/Qql4iNYsT0CuQ5IP02XB4mRJQATneP5at631aKvZ2aMnovPgiajQaZPyxqYY0In6KiH+oOJViKjOqsOUrKPlCL3YJMSvFPdmhrRMyxkVIsZybTBYsWhBrNczaZRmx5tv6AqPU1BaIgCICKKhjdy5UmYIysQJTGlb2g877hZBaV/cwR1wCc7HXmCWHXCDyEgbXDATIDzKxAtxkjeEiB9rheDGjVDUZ/bJPKsJgATgAIfKAhgUBckBbaKkIdB8u2dChodLAjiIx4NqExXAJC3HIQ83MHb8AD7504CIKDyquXbDenFcPVCiK/6OHNgf9z/2dRFcSNzbGOd2fZSuVhzSon9BZ/00uCvSGcsBn1KRb6kiNveWjuj9+eFypSsuVYZdRDgk+7iQZ8e+Q/GB1tRGujp1Q3ebzu3ptm5dNnzizKVYrevkVZU0i8vp/FGJo7zyOy7CR9QkfWZ1OfKUqyIXVDh5lqnu2n0tztupMd4KdTSamNEGgUHSkMg4wtlGRFxO9SuPcbnxfiE7YWi9C52a5NASBhNAwHdMhFspkbdacQrKiD2jy8Sx2RJXLjH7g93vqkMS0YoIWRwvEkJxDGgpAbfcTvtBdCYm2o52A6ZwPDo1Omuf0Ccu+AAuEJZvTMK7HZw+JgrTHXlyuIE/s06EVMwVZiwH8AAaRAJg4RQo93S4Q3gQCOENHAgXAsYdRUPR6FxLgaiByMrMKhoOSU9mAiQsedEA5EMepIM7dNQt8Q+EYE9nl4hw59s74rv/7R9EmS7hvVuPv7y+54DuS1Ecje3qNdXOgzFMzCjBVJZpf7KGNwJcMRWRUxrCdplCTZljulB4RLtcRjWjMq4ZjoIW0/v6tLtEKH9JVwpW60TDoK4d/EB7OO/RAyuSAjX1rxeExd04qwiBjWkLmnh0KhZ5cZaPHSWpvOlbXpj8CYZco3FCb2v0xx2aqAktWTSpU1B85T+ssTHPpNFZ0EmUa0MAsGX9D3WhQxchax/pqK77QCoY51Uq1QNCY2V1mSZk7tpym9YhdV2ICOW1V36Zdsf0S3xeqDEnba2+I7UL6dEmaNtpNwjInTE4AR6gcTPHgwuCI9QXAnQnDQ6gSIO2R4FTpfngThgTK983St0QIjQgQH6IEA1AaMxR9ZTY0QAgJ0IIxcArIhMIVSQkx4EI6SEBPMSHuAohQpSkj9gKkZIW3zQqml6yUprHMTnfx7rlqlWrNPFxNs5r7MPdno3ChRXLl0o6kygDEqvDcDnUimIZrGGKY3wKWixtUFUjk2LVDGyzY2pTO3AgDpYZxrQlLg3udO1EuTi/XjQLrXlre1q5XoK6rJPq8lbQeRK5WApg4zliJpsCSB+F4MnvFSV3uCQiKXQ6COcSfE5p8VwXZ+sxF22l0y1z9eqQLmpGd0gn5zWVIQyVdCHkLchMLz+ldIpiYzcEoasgmSJjSZQdNgWJoeR7x+ZNWtjXWF9fL7zxepw9f0ZEWpUeKK1TD9IgqWJilJ2KSLtCaGgUHI62g+NBaB7rgSe0Bd/gl9s155YQKjhBmoS1MgESD4K0SZpoK+LgP9tq1onQlacyEJS5HBXDz8Q0lUljEIe4KABowGAH+KQDwOkJGQ+4QQAuEzoQH2MPGgQTQmWsUK/vIbHCEY1f5ujaPwixLIQoZ07pKa8Dcde8e6NBrIFT8B26fpBHLSmn9mLRnQrjRDTikNMqGl86EZYCUlbDhHhCA1w1LoBzCCH0B9rjk+b6RViQzZjiXdb2tGqJjrWavOFVXW3j1N5SEaG2lqVT7ZQNghNhiRSkJ2A8UQbKIU8ZkCHlGtOV+hq7ibud1zJDe3uHXm5qSTPFy5etjDP7j+sqRKWnbXaIDKMSdct03yrv3FcpL0peow4C27iIE9hUam2T1AVUvT9YFbdvWJuWJbq0b/ZneucRvkSdV69alRB+QGVlIsd4QXtDdG5z2tWdMwRCHrS/CclER1uj+ab9MR1mOpO0ciIkX7cPeeE322rWidAE44r5mwoaqNjReRgDDgLKAe3GITzKACRd4tNg9JiEI/0LFy6kRvEYAZNJHwixVtxlTktr2r2yQBMvvEsP3zh2+Ei8/sorsf7Oe3VOTuPO+fPi1JGzup6zOvrJlw4hzfdTgk/fU7p+xEr0QOwkJhbXInEsrkkSQoqktQGcx2M00yHi70uTICy0c9xJAkXMgwj12AqYPiZkTuKoykg9PqGgwaSEyHBeqSERM29IXO7sjgO65PiB5fdqn+e8uENLIzv2nVQfo0Iw+cR2NJY3ZNZLRK1CAlB82qcghCcY9aOtxuFiKs9qdWqMqdlEekid2quvvJy6BpZI6AzZxN8ncbZY9qvSkPGB8hkPICzycjs7DO1JmJwAcyJMEo/i2o1wTtO4yDd28AXtdgKX/kkRoQFKI6Gv9nbFHpSKA4hSgAIEgGEgXo1XlPENsMkASz4owkCUxGX2DJXSU+M06vFMxg9tc2qTmIxfb6+mrA8f1lhlTAhZGWs0XnzrwCldC6grARnDqpxJT3QExJlSKW+Uy4lpO+4Inxp1pRMKcFU2XBcSgdDJKB9NmGiWQwVWOhqncSphQLtoxtR5UAxq2KRb4iA+BldJtNNSxSc4byqHy+LyKAFISfXo08VLTOcP/dq92tBe0Lrhtqj5yXPpEl/NwqSN6Jry0oxnWdQLbg0as+oe4KTKtQlbjZqIlbVUxs6NKuvW22+LpdpVoyn4eHfXO9rdczbx+EbBG6mFCTZuIYfG3e60N4RjwgBWuR8Zgg9o4wvtTBwTHGmYwCBS2ho/wuFHelZOAxPCJl23jzt6h50tc9Y5oStsYAIINGIHvQ5I4EpTSYABoKwJZ+BgEtaa8BAQgDPnIwxpkAfARzylAdxjEpfw5F2utHs0KYM4ynQ7ZwtBfXmnsciouE1rQ60eu5wnZNGyhAikQuO2oTRpoQhpPOgxYZEzT+DlVUZJIRPXFBeZ4D6gPgpU4HSG+uAUhPtlCtIQUrk6AK6YGOf4vU7WpxkkzUpCi+pKFEZ10LX8CLBVuvSFSRnGhwosu8qiMSW8qsiwyYnyyUxhFFuFYCxbpcO6zGD2DZXHwRPn9ZS2Vkckya5Z3hwtukWNk+8jIqzLCl+mmdFxvcTEDWzlmjWlExgRlwOnYdacu9QWAd2Pc1nXJVbFupWLdU5S2eqY1b7de9IBXkrR1DZXddM6oiZn2jQs8JiQditV4A9tWsSVIn7QtrQpOIKdMGjiY9LuaPwxCWN8crg8L9vJB22V46XdZsOcdSJMyC7AoACGCYDJEyp//vzFBDj8ABjhqbyJBnc3ApzMnBCiw91ESqOQdq5Jhy1wKMLyTWPQENjR3B+KaMRta6BQm45Wtbef1zv1P4l/83/oeWoR4eaV8+L+zSvj52/tjsqFKyXKztdShohSXEH9ppC+OGNrhE8rP+zdAqkQ4TSRwiOewxrTjeq8YrPGdIN6369J5+1OHD+oSRDW6HTVvUTDKj1DxpuKNdrAWaYrJnoHdIZJcNFaAiv1kv9qNfHUEpc0kdIypxC6qA1K1tKF7nnRU4m9vLLLk20c0hVMRuhREvGpqSFO2SFAFtkLKls9d8hoZ0vFnCWxX23xt0+/HX/07bt1p2jEn/3hb8Wf/+fv6eSEGLLeRhwY1fSK1gGf3/lRPLBhTdx7+4JYvmpttGkWuV0nMNbque8DH30YjdrhvW3L3dKrQ69zx49//FQ8+YMfp8MVTXp0tGXBvGjT0a1zHWp7wOTOSfACJ0wUKmzCCb5NRDZpQ2va3sMW3MAZ8MeECl4xOYcbfijjCcMScMn4RPrgBYrws62oW5E6ZjunadJn4R0ioPIQFANxCA0F8ND4uWFSoQVoAx5A0QCYubZbHo80/Z3sQkqereYpaxQnD+p1+7VaNxHQnvfeTYdw28SNmhs06a6HUMp16nyUU/Dqv4vEUew5AWQSCUkoV0orNao4G6caKjTJwemMamZcFe6yxE38WfAu1wyjViGKXFFcgpPucJEUUOEVUAdmNTkhuuJiJWiK2UgeOK3S5AqcjUuk0ukJNW5x87YyURjuk0nInhAeDikezFqkDveOj0ky0dpkhd6o33vstO6SiWjUSYoFqvcWcbOyPu0tbdYiPMsSSmtEHFHsN+2vrdaaIi8zDZ4/F53tx9OJ/5amap1FXK29qMWx6e633opBXW/RL8miuVWXBqv+/XQaigvRmLByE2JB085o4wJm7kY78006KBOQiZH2TvBV504HT2dMPhAlE3U3g5p1TjhTJSFAiM5AdHh6KoAHsLAb8BAqmji4I44Szj2bTYCNJhz+1nbnu7i2VuSOw+KErG0lDq3Gpy98+umn45v/7JsSmZpjiU4y1OqaCiYhBjkvlzB7oteWeKrkik64pzULHKSF6CqIygdRaVlGiNeoV3mFO0m1a5uctoCKqWr2Va8E8/QZ945yBWNVmXpixVUu6doNMuCS3WGNCxtbNQ5UViKL6NQWs4ImcAiZ1gRVHtYy8w6nmNvHfylhuo1b5eTwcbNgvX//fm0V3B+b7l8fy5Ysje13bos9J5+LVh34Pac1jFGN94a4pEm7d2Cy7JKZP7ct2nUCH/F8UJy7Ihpjy22bo62uoHODHfHss8+m8Tb5sUe3Uh3msNqlQW2vAogTFOFIecEDTGuIzO4QD4SJ6XDYwQ06YOwO687bYScLTxgm8VDgwxelvnAipHcCsF7bY8AOYFjQN7EBQHM2TMLAMREhADoAhLggQNLD5Bt3GgfT2u6YEOGQ0qKhWDAvF5fhCA5XHzBeef65Z8Sp9IintnCt0qnwttaWGBIh9mr3h1awJdNozCYUujL2Ym3vYy2pPMRxynGHq2mGs0brYvU6+ydmAInqbJ3euaAOIiiQqU8vBGMviscKoJPs46qTFgJlF4Kmy5EGtcSyOB2oJY1ziPSKCzeFmIBJkTxloKbBL641TBxO63pck9+hq/d3vrMrHl69KpYsbNRFv3fGq3om7QOdCZTAr/Go1no7z0VPd6ckh3kxf16dlnH0XJtE6DEdBVs6f37ce9e2WL1snsTN3njn1Vfj/fff11h6NBZq1rW5Tc9mKx/qDNy5aoQi0MalmqLTCdud8Ll22xOGGW/aGpXaVunjD7cjPjiWc1G+cTdeEM92TH8nyyz/3BRECPAAJEACgCzAwuEgNA7Zokw8ABZkBYi4QZAADTvEh7vFjhyotjsdTIiQJ85Ir4ZdHnpqjFdwIfRh7ds8tm+/xmxH47Ytt2uWb366sPfI5X41rgqkaXoW68s0MYFopxLieIUbpmYknAiQKXk0N5gxBqriOkN5sfW8W/tQCxqXCWXEvRRLM0RMqbBGyFUabJNjgkjL6kmEZQJJI+tYsHCe1gx1N5R8jp7UFRx6xppbwpWb0pGIKW6I2DodASpoOt1Rjpip8Wa31vLmqS3e27M33t3wQaz8FW3UXjsvHrx7e+z4mx/qIRwtsgvPx4e71UleELzXhXb6qYp6vx6E1iOiKxYu18tNuppDWR++cD5+9uRPVG8eE62JVWskoqqdx7Q5opLCC2SIs3DCUkLjm7Y2J8yJD7vD047mgsoyxQGPrOncwQnjDPGMK+CJlQnP3zfS/MKJEAABbAjIgEZEhQgBFnYIDc6Ixo47wHRcAEj8XBPGwJ6MAO1Wp7xpsAqNa6q1ED2sdBZor2O/xKoRib17tet/o4iQXSlLFsyND0/u1YVMFVo/FBmxbjiq56QTGtFsRT6YnsOeaEWIHMKrkFiqmwsleopT64/mZ2RJOSq4lUwPzkBsFdrLiRvLAuwJQMxMl0yJM/NMaKWIulF34izXTh4maTtFyYePn9IRJsZ4IkIRdEEditCxyEHpCKSEeokgKaG6hOSWRGWIlcV4LfSNSkSsaa3Taf5D8fY7u2P7bXfEosVlcc8dd8Tcnz6lZ816tQCvbWsszOvOjWFxZZVYs6sStaXn6OT86iWLYoM2a5PDaS1BvPLyS0mEnyfYLV6mMqvjqtAe0hpxLiQdiAMidNtj0q4mwuSvtuY7D4MdvHFYKgRR4Q5RMuECdwSPCIPGD5wgX6QowhsPiG97gj8ON0h94UQIcKk0QMEE6OaMAI6dLQANAmSfoAnRs1nmhDkBYjcRAkcDFzfsNrFzBQPhy9gTqV4eJFmzclVcPNceHXpt6K3XX4uvPfGr2sql58HWrI0X39FJe7GjcfX+AzqVn5QwTkmB91KgOXyuSJCs/RW0jsZWLoTVYU35D+kKw8TbRGRV4nTVOj0xpATS60Y6zMtpf4iP5YFqkE1l4z7PMZWnoLHYfL3mtEKIzsi0Q7dAHddWO3Vh4sjiqCJAlhJUVbCyKGrKOqWCkmGXbEoX4Q+Is2vqIj7Yfzh2vfeRbnK7TbeSV8avPfagDh2/qDFgh+o/GrXintBunaJpFTFOHDoQv/L4o3rV975YpwPCZ9svxn/93l/H2ZPHtSe3MRFgla55TDCf4FS0Lx2gidDEgglemPAgNtvxg5j4xh1Cczq4kx7cFjHUHTnh0LS7pSSnOSVcgEpq1OlCXB+/L5wIAQoAReWVNuAwATQckUE9BMneU8aNECC7LogHgCEm0jMR4g5BYzpMbmJnX2hvv44YiROVaV2sVkeXFuu1pDpNknT3FOL9d3dF58Vz0SoiXLNyqTYia+wlbtUrQhnWPaFa9JogPiGzylr8gCKLdYIIxxE3J0REOC2IzgYUJmTodCq1bFGhJYVB7Yip0cJ7n55BKhN3hFJZh2OvJef4RjQhwrpii6Yu585vS0TYq3tmOrRcwuUSrDPylBowUy/BwDIRIQLulU6BIiI2W0GEEpOZZuWFqu4+7UnV+4s80bZXD6Su3SgiXBnxjSe+Fns+3BH72w/GqLghb2pw6/bJc92a0KnRLWyF2LJmdaxfulS8UbuO9u6PF599RmVgo34hWtVxMF6FUJghTldrMDulyRzKi3upNqHhj71U4w7RQXCInZh85+kwtAE36LTBC+OG4xoM4MIXpWadCAEIypXHpMKTARY3/CwmAHQAiLsVdgiLsQKKDdoAmPGjN4dj8k06qLwxna/TZKvXiLhafV2TxinauyKxaomuk1glzOP9+t3vvB2HDx6I9dp+ddva1fG1B++PHzz9y2ict0wL6XooVG2Xnkub4H4iAX3LcYIGVdBUd94IhCPW6hTGWW1K7pEoN1fIvHnThnjvR7/QMqAkAJVhsFfrA6rzuES2aoUdVmdTodtyK0WMbRL3urQM8Ou/9riItziufPrFl3Uotzd6dcSpra1F657isv0S83Sl/pDE68mVymeQQqhsidP65JDGxIxNx9gBo8mWp15+JRYsWRZLVm4WTArxW9/+9fjrs4diuOeSdhGtjH6NZ3mt+PC+DyWCLosnHnow1s7Thngl95/+3V/EEPvqlNVKEWej1hJp23Qrm7gZzw+wuF+jcSY4YuKhrVI4ica0PZ0UijC0Gd9szvcGfa4pJDwKE/xyu/NtP+IaFx2OsLijcwJ3OJsp8Vn8mXUivNayAyArgEfDGLC4I3LwTS8IQeJvQsed6wscz36YTgeCTg95SowDESo1UcD61Yb1a3Xd+05xp6F467VfxmO/9g0d8NUmb40XB7XAX90k0VCibBmzlpx+kEorEyou9Kes0ywnaYKVvdoW1qa8OrUksffQsXjk3ru086QpHnng/vhw3+E4eOxIzG2rjw7tguFUgjKOch3SRY1rcDimdbU+IfX2rbfHhjWrYlFzeRy5PK4Dsue1TqieXmXoE2KPciBQZSjed3qV4wFFxqo8U1Z6vhBCKSrBRUQwrI0BA1wloDT3nTgdu/auiu0b62LV8oWxVVczcjVivc4Xtukg8PsHj+najrK46+67Ysu65el+0id/+A+x8403RKy6D1VckJvlqtQZAXM4IO3BmiWw7+rS7h+5IVJCYLSnx3J8EwfxEk7ncR4wJQ7p0Nla5biCG9+lbg57M5k3PRG6ZzThQGC20wiIpQCaXouGRNO4fBOXU9KEh1siylpbPOE4E6pXN4YRDzGrRlxm88YN8fLcNp22PhGvvvRitJ86FYtXrYrNIs7Fc1vTpUrDiIcSxTSkE+GJYwuZ3WWwzMB3Wr6QOSaiqhBR9YtLHDx2QifStfShc3vLFrfEBom5h/a9J8Lr1kqExG/tFe3VafthlbepRoeXtaBeMdQTwyLkh7Zvi3ltylNlfvGVV+OA0uIRzzF1Ir26G2c0XUYsoVWTJ2lTJqLmtErhoELEVyne3RhWfQb0NDhE+9ru9zXpMxzbNn4rlmuXC53A5bNntFYoTqVoF2QHHl+775509KtdW9+e+tGPoksb5xFX12xYF0t0prBc4+gubRIvcH5S7QERcpSJjpN2or2Afz6egwiXLFlyhZhob7gcbYhJu9LeJjZzM9KyG/ZPq0gfZfPTxrvWcDc9EeY9GUC3uJETI2FoAAjLDYGJO40MUNGOj2m3S9pbSkPJKYm46X4UhW3VhNACXdF39PCJOHnieLynsWHb0lXp8qf7RAhv6pkw5vXYbVrOOEwtkQgR2wReJ4SmTEJsrtDnmv2qukad2xuLA0dP6bLZJdEsRrn99g2x9/0d2vqldyiE/LXauVJQuK4zF/RmocQ2jRfLxQnbNC7ectvGqFNy7ZoVfV9bxC6C2OJK2oYiLqiMQTo4cxIzi2VJZwcnOglBIZX0CuIk2lM82LfgxW7UIaWhLQyJ0PslHu+ROH5aa9rcN7Vt65bo0lrgfK35ia5ix+tviDgXawZ1a9riun/P7ji8d59ia6ZZ4nAzm8uVLmNoDUTE7XW+kz2wIsb5c+exEpM4INwPaQYTYoS4aEOGFrQr439vvMAPAoUj0pakTxua+KibceJKPaewGA8wUTZtJ53ZVl8KIjRgMAG6iYlv93TYTaDY0aj80CcN596WBiRum7bN0aiXtUiddu9oBnJUCF9YsSS6f+d34q03d0Wvtpa98uILcfcjT2iKvkkL2JvjZe0jra3XdRPKxkNAmstNhlv6gCMx8yiO1tGlh1a4Kl5Or+zYGXdtvSM26577e7duFKe9N37+/Iu6ZZtXolSW5kUxoDs/a8QxKrVdrlrIcKcOyK5ePi/R+J4PP4x9Bw+lZYlqne4dLejZb4aAmgRKdAYRIplSjkmVPOVXkVg2i/zFvoMJmhHlOabdOmLKyldXaeis4bMvvRK//tCdsWrx0hiZ0xbN6gkOn+iMxTrm9fVHH9a5xkI8/7Nn4v/+y/8z9uzaGYv05v2m2zfFtgfujdaFc9MWOcbcy5Ysl/iqbW7aGVSlWVyIkLaiTSE2rqigzRAz+aa9IEbai/Yz8bndXTUTnTth/LGT7mdVxp3PGu/zhr/piTCvGIC2NoARTSZT7sFMkAYsJsTqnrZCjcskT7GBJc4W6nS9hC6aqq6MRzTRAFF1d+kloh1vpi1ZHKBdvWJ5mvXr6+6KMq1WMxY0AaZFeRdIyKwCTywbaHyjI0jDeqG2Rxxix673JU6+Fqu/+3gs1u6trz90v3a+nIm3DxyN3Ufa9UJugyZxtNFZEyzjnaMxt6olHrr7bpkSAUVf7+7erSsSz0bD/HU6jK+0hc28R8FSReJqIN+EiElxkmjsHuJK+cQ4FYZNC+zIGdUxDDggu4fGtNwxKHG0UpsAenQb2xu68mPz8rZY37RJ7wzWilgiXnr+ZS1fLI+N69akrI4fPhz7PtgjWAynqxifeOLxWHvH5nQpVKcIi0kZNgT0jHRpXFmcOOvS3TmSS1Kb0Da0KwRE+2AidkKAds/bnfBM0BgnJjNd1anMHC+w+3uq8LPh/qUhQgOYhgFQfLv3tB8NhN0mAPMsqsMQlx7WM2h1En8QkwoaB6aeF24pN51zTe8T3Lv9tnj9nQ/j8IH9uqrv3XhMoteqFa3aU3lHPLPj/SIBCsPBb0VJyA4HwQ4TQiRVltJyETcc04kLrp/o12zma6++EZvntcSD2zbGmiXz41cffzhq52rip+qj+OiIbgsrr40Lep660NMRG1fPj7WakCEfuDY7iWq0nFLJsoJmWlkzHNWpdgFFhVBeQmKWR5KmIFMo5l/KtUwhUkziZ9oBQHzKq1oUNElVGNWM7oWL4rwHNPvZGhs0I8mYc442uz/4yD1pMuaF556LJ3/0D7oe5Ej8/+zdB/zf1Xkf+qO9NxJCLAnENsMMAwYbjPHMcBIncWI7aVbbdLd53ebV24ze3vQm1zetmzZt9moaZ9hxPGMbG++B2WC2WQIklgDtve7nfb7/R/ohhJXEliC2j3T+5/s7+zzn+Zzn7JPl8Xbc0cekKzq7PbZyVTaE51LnNFgbM5u6JRJwSkA+b9rsXk8zZzqZP2Sw6kj9ASHNjlI36k6dl0TEC1T5KXeNLMVvuXWL5/kj3Kiq32WOuh2K7xc9CEcJMVpJiOF3dTcyKsjkhN2TGZ/lCNBg5gS66wIjqmwNs8g+MdvNJqTL5TcEAaP7ZHD3ukx8zMq4ZEoQaPp98uT57Xve/IM5Z/df22Or17VPXnVVO/XsC9pRRy9sb7ryknbnfbk4NntCcxoxuQk3d5WIUqfjsrfUESb9vF6GbFSemW7cdovdGR/OytNnK/JG3+/+we+33W95U7vyNZe1808/oy3OuPO0U89qf/ahz+aFqCya33RLmxZJtXTx8nbk/Jl9Embligfb44+syDgxpyeS2I6sc+6I5JrgrTIqTOymNJsD9pgtZQ68zJGPvWq4LDg/jSMBr0/sxIwURJ/N2SUzMRf4rnryofaFT+e267xqfGRoMmvexPaa112WUyc5e/nE4+0Ln/pEu+ZLX+jxTsmyw8rHVrb737OirVq7uj0VabcrQN+WZYdNT2dtNZsPjs6DMp5De81rXtMlnQkZWvezJJ+6NURQz4BJA95ovUsQfelR0PnNn7i+lkKXA+mvFeYb7TZRRl9IVYSTDwQuIiNitWjyx10l8M8NeLj39927O+ZC+MEkm+KtMySA9U3SYcAyQWZcqD854zU7+qU7PUwgnd2xn5SJkXXpNl502avbyzJ++8D78zbD9de1lffe2U46+rJ25pEz2nnLFrS/vPXhtnvu0ZlwWNCezDlEW9C8STgxEyWWPrZZrA8QJ+culg0ZW3kTb0MOD8+dvbgDfv0Td/dZzVUB5BlLj25Hp2t89GkntmMjXSeEWe8966g0CJvayScc344J4z8TSfLIfV9tu9Y81RZmQmZtLiyeOmF4+ffJ7GvdFWC2OVmqyUTG+IDBuqcjS7qd1PAXQfIV+63ApsnKhFDfSweMll3G21QX0I3bnhMUGcOtyR2jjzzeHpy7st1+173tJeecljFxloji668+9IH2uU9krTMNktieypa/T3zxC9nwkG19WeLx4m96opLJbOmJbcWDD+cW8Tw6OmtG+9wXPt9nsE877bTeXR2fhsfyigkade0aj5KMkzSkAbNb3exs6vyQOh+fOgOkLsXLfQys3T5OlHt6SF3xlx42zwu/nxYgcZWMFP2hUmNN56GK/nDEO0qe+v6bmoCYLizJNaaHHAesXWKMa8cuW96OW7q8t94PP7ii3ZlXil5/+WUBxIx25rKj28fvfiTvBa5Pry+zegCdc4O7IvUmhlG2ZTcL1W8nC9MAuc0Bds14F2FrOPvsLIPMznrbqQGgNntRpDDz2LOW5xKqne2KM5Y2lyTtyZaybTlGNDXxXJCHVnWz1+f6tY988fZ23+Prc8h3VRb3c19OZnS3h1k35+HT3enClXKyz9gVEPYq3wAXtdupkC4JY5kN1327TmT8tm3rIhxzzCmTPxtXP56eRV7yTTczKzltfXD69KMPt9szG3p7NrtvzM1TdsPI20ZjwBww7ipRLlg0v1100UXZbresX2txbc4Yrn7siX6lP2lVzx2QhCUYNIyHUg0l10Dv05UeN1qTfqjVNwEIDy2JjD9e9rKXtQsvvrjdcMMN7ap0Sd/whje0004+pV3+ikvbX93yUHs6D7ps25D1vHR1bTOzN3Riwm31smcYP9jJ2uOELPZnBnNDwJGHUqbm8txli+e3//Onf6gtjaTJIcX2nvf9Vfvc1VdH+oxrb/uht7Tly5cHF+P6euKMSJXVWcucHfOsTIQsjwaVRSeclZ0t17dPfun6XHeRa+cDlm25I2dvE77vYz9CjbKXJmcMjOFI8mJgwd194mPVbTe27375pe3N/+Kftldc8JIsF+xpawPAORGeU/IO/c/88jva2/7Vz2Q558F2/1fvzZh1XVuc0/PLl53Qjszs6ezs/DkmWwFBqlK9+aab2s/8zM+0z37us31DxaWXXtq7ooBHwlV3cr9Mf1P+/DYID1KtximuyD81oLv2i1/sTHbzzTd3EM7PGthFL31Ju/OhLF5nBnFa9pEGMwFiruyzSJ71vXBUAJYHbNKtmjd9ftuZi3yzsaudnO1g3/GK89vZJ2SvZdbiHrr9tvbX7/mL9vGPfDRMnguI80SbKf0l8ffG735T+47v/Z4c5J3b33944ulcoBxkLzlmQbvypcdEMi3oEydffSSPhnqQMwCZkLGUCSfdTlK+S0EQIO2Sx72Ko67pGAi7Y6xK9c0QocGlr7yknXfeS3JPaOsHdR/N9Oi47IY57bRlaXByYVZOSJyZfaMvuegV6TKmmxp/OayUIUPMoC8dhJxBJB23ZA/wgtxhszy5iUPSsiShsSNBazxoqAGIh1oaVjlfSPPbIDwI9TeuW99v5375y1/eT4g/turR9u4/+/P22ldfGSlxRHvVBee3L157a7s/9rvzjPXEibloOMyzI6cdcgCwj12mzswZxzy5u+mZPEu9/onMuh7fXnP+S9p3X3Jeup8t7/7d2/7oN3+zXZ2zdzuzfxO4H8mlxmtyYv7Gm25ty888s12asWAwnKWNO9tdmRDyHNnFr7g8a3HHtdOWTcs2uHOy3e3L7eGnkod071yhsSFgHgThIOX2FTUo6TJpDHz2jkb6Dg+iGjcDZnRMF0hphC6++Nzebbtv5fr2yaxnrshkzJNZcjn7ogtz9OuotiRvLM7K7G+K06YHlHPHxJ5ewIpHV7Ut69fn+e+p7cQs72zfnIPBmeA56ggPo+6bBzAbCngkYR/va8C+BdS3PAjDal9TuQH6qDxocvkrXtk+d/nl7V1//Mftox/8UPvMpz7dXv/mH2hnnzS/XXruGRkH5gq/p9f1yZT8iXDJrGzOGwLmdI/JbBvXNmfi5rh5M9sbLzm/fcfLz23Hzx7X7r399vZXf/an7T3ROwLAmdk7uW59nr8OSJafelp70/f/YPupf/4v25FHzm1ffWxd+4v3f7jd/tX78krSQ+0rOW70T/7hT7TTTj+unX3q8nZtZlIfyLGmCVMjBZOf4VTvvuJZOnlueQHRNFYBlacxcMbztkipSROO6AI9w9H+aMr73peliFzSNG3+Ee2m+1dkv+2MfpZwXjaYA5rN5pvWPtO2xM+6XEh1bq4+/K7Mgp728ouzN3RCu+u2e9qH/ur97UMf+lAHXB1X0+uwM6ZmNIHxW0F9y4NQJR9oYK7HRi/Itjf7Ss3WXZoHMz/36c/ktP3D7aN5U/CopSe2s7MR+9UXnJNu4Pr2xOe+mGWF3AqQo0Bbsh44Ma38jhx+9db85N15ETiHgV936fntuy67qJ20eHp7/IGH2h//we+3D73vvXlebGu22M3LtrZcJ5gx1ImnnNa+7y1vbZdG4i4IAG956On2kUigOx9a1XZE2k6ec0R/k3B7nh/T7TsqZ/hmWNzckesxMomzfXOO+OQVpY1ZvqAA8Dmqz4yOAQ4I4yfTVIGkGWjC0dGj8e2cs89sR6R7uW7Nrmzhe6TPTDu9AIT3r16TDeRbcnIjFzE+leWXTDxNjvScnnCz0l39gYxtL8qWtgvOPLVfpXjVxz/drv3Sl7Lc87EsWWxpi3Kd5PKTT+rdUeCzNY0iEelvBfVtEB6klnWL1mUm061wF16Y9+WXLOkvDF8TRnrtG7+znR8Qnrl8Sbv/wWOytStjwYBw2vhcj5EDg64NnDEnO3ByH8ukgHBZxkKvuvCcdmrubtkZ0N5x4zXt137t19x1lC7khHbcySe38y+6pF35xu9oZ59/YZYYrJ3l3YkItU9nmeSz193YtmTP5ZQ5s3IVR84fGnbmvpvdOUUBgHMzaWPyZ2uWSDbleJYLpQqE+4q5HxrHxoS6oN6zGLqlJvIDwPzcuXZ9JorG91sAduQOmY059bAuUm7izpzdyyLhvEjBrSnrzmwz257lEM8G2FH0ymxXuzAPjx4bsE7JgDSrLX0zwFVXf7x9/tNXt5szySUnxx57bH8v3s4XJyiAsC8TJS9oX1JxX/6/+b5ecBDWbBjSWheidUNKqxAtogop7Tf7PmgPA34t9XytqfD5P9biljm0vsJUPkhAjLE6R5BOPeWU9h9+4RfbT/zUT7aVDz/S/u9f/MU8Kba+/cg//on2qovO68+MvSv7J+9Z+Xj2fmYSJkeQ1uZl2iNzudEF2aT9w697VbvsJSfmNMGa9ue/85vt//t/f7n923//s+2yK1/XLr38VX2Dt9lQ7f/aADg92PbgE5vbn/3lX6XreV++V7dFS45tj2b3iusRX/8db2xLs8c1E60Zh2WzWKTexg3r2uyjj8itbdv7xcdoQ9L36w73Emqkm4cIdJExm8Ddor0nk0rGg14OnhvpHHy1E5bMaD/29re1733Td7c7Hrg36507slifd+gjP+fkyg0zoXPn5F6YcJXTnsaHGOyBrAu+668/2D7zyY+3T3zso3k2I+9UzJrSH2Z9xWWXJvnhHUl0NzmD3sA31JF6GnSi2qv4Lc0Sv9RWt+rGqsPRiR32Va8HinNv5If54wUH4WEu7986ObN2ff9imvLNeYfvpVmje+sP/XB75399Z0C2rV3z+c+2S191WTt6+YnttBOOa0fnasBx44/M/tPJ2WUSAM7Ma1E5Ff/W73xDO3HR3LYpExQ3fvbTGQP+SQD98+1H/tm/DHhzJjI52xLpNSmn47PA0D5/fcZ3uTb+S9ff3B7KOG9Lxlm743bvffdlx84xfdnkyiuyOTozsVOzA+jpzTmQm7HcZIvUARJmw2iDGkBnIWJQEFffY1YjhmaAFHQhx56M0WYGEACVhZRhWWTurDb7gnOz7JLebxoL8z87s0lgSs4VzglHWedcl4uyHn16dU7XX9VuvfmGbNH7fLvvrjv7DqI5Ofh7VjbBn3TCSSOpfut+fsuDsI8HU/9AQJfSS6MBz75Feyu1vEuOObr9wPe9uf3+7/xuW/3Ek+3df/6n7fSMmd78tre3809c0n7h3/zzdvWXrskuko+0Rdk+99rXXdnecOWr2hE52Hp8ZklXZGH7HZGAsyJhX59u58RINKO2ex9c0b58440B7jPtoeyeuf+RlVl8n5NN1e7uXJXu3OR25FFL2vKlx7dXv/rV7YoA0JGmfhdq8mZZJP2FSAM3vgSE1vsiYUg0gBstW5VxMAEVIAfToV9i0RjStfoewTku14osCLIA8eHsdNmaHT+zM5abkO7ogqw/7IrY2xA0rs8k1oMr1uXKkYfaddd/ud2c8tz6lZvb6lWPJOSgTjh5WZZdFreTTzmpzcvOHjdBfqurb3kQHowBSEGzdqRLP8WfBa+zsmTwn37pl9p///Vfj7R6uP3Xd/7nnGrf1n7wrW9vRx57fPvhN1zWvi97QfHzhrWZkMn7ZZkIbTdef337f37u59q1197Yfuh7vsNAMOt7T+SRmRz0jYRzC8DqjMFWBoRPPPpYzhRm0iMDvytfcWlfNJ8cIP74j7+9bwGbF1DMTvxPBaDHHHVML8aeIKfPgCY+XbwIwyigioKxQiKzT8pw4G4EmCFA/ml4qC4J870ge2mdY1y7fne7/oZr23/71V9td959R5uV29N0/756y60ZSw7bCHdmb9rQLRzOdrrqsKukvTi3sC3Nwr4NCJOys2hiTu9vyIOsM3Ox1be6+jYID8IBuzLu8US0saE9ihvSnZw5bXr7iX/wY+2JdDff+5EP5IDuA+0v3vUn7at3393+0y//Sluaheun00fzdvwRee3JLplP5HT+z//7f98ee2RFmzN3drvq059vl2e28y0/+qPtyOwrnXNJZkRPzC6YpLExM43WCPv1hZGEU3JSYkHen1iQa/wWZb/mmnU724aVa9q7PvrhjKuOa4tyyNb9NaT1zuxTzdbxYCvjLLdJdfQpZBBVQARAYOtLEWMgtXF7DICkIa8TA65dmXCZlXHaoiD+iaSxNu/NP7rivjbuyayLZnYzA/Uezna1abmXRq9hew4tlzovd5BOz3jR9RTef6zxmgX6idY8eiNQvr81zW+D8CD1bmxl18jcAMBbh1PDiDsnual7YqTSj7f7VmU/6R23tYcCxDV5j+HfZQH73HPPba+98sp+XeMN6X5+9rOfbR/84Ifbk5F6m9ZnvSIcviSzgv/iX/2b8ODEbIl7WVu6/JR25gnL8hRZxobZOD4lC/1YVG9NN9DRp7lTxuXmtw3t/pzte99f/mX7wIc/0P6vd76j70Yx++JKe+dH/Au39+4zMHbVATeGssFm+NuBaYHex5hVvIEmPT3d0SmJSx7cc7MhXU7nM3bkG4in5QmnLZtyNMye2d3bIrFn9HIfnQmkJUtyO12kqKv5nbLPefiMH3OYN7O343dlnJkLgPuEUYnfIflvub/fBuFBqryfth+bNjdzB4STs8nYTppluX3tf/7mb7Uzz39p++Pf/8NcUXF7uyrAuOr9H2jv+MX/AAp95tK1FmTS8ctOaCcFbA5cPZ2pfhu5/+k/+oftjJec2l5+ySvbq1/3+rbspJPzZvy8Nmne/LY+Vzv0O3HSCGD+lemy/pt/9k9yo1oepkl8AOqtwPHppm7PeqSJF2NHJwSMCdMnjY9R5bddMMMMbHfpY8B9fmxvo/m0t/u0rOHNzNNrGQa2Fffe157M7pdlRx/dliXPi3J3zK4skezS7Uw/2Ezk5OyfzXmX3h22LW1iTvxvz8buySRzJo8m5BY5wnPK+Oy1HZ+pnt44oM63rvo2CA9S995nMCGzJmuF7kDZmEuI+zJCuHTTps19kuJtP/zW9pKTTu27Xv70f7+rS7C5M7NWmD1bW7MIOCMzrEtyAv2K172uveXtP5LlhSntLyLJPnHVR9pD997T7vzK3TkwfHd797vfnf2iOVOX7u5xy5b2c45A6BjSY9nGtjnA3WkTd7akbc6lTtOzNjE3XdusTuw99OqOz63Jb2duG1n77Wu6h2A77CMFxH1jwljnJwW3rmu0e2Zy0pTuTONhbtG2wW3Oq1STs345JQeIpyevG7fuzHWRs3o3c/sWgEzDo2EIuPu1hun6ol+tAU6JmzchdU+dmNiW9dMXSqEIRRCXHmwGatX3oTYPOQiNAaz7aCVNctDsmCSL7p6unYrjR4WVHXv+KG415c6PNUP+Dqaebz1IHJTRD1413qPLvzNrXZLEcWKYXvfO016Tc+zIlYETMtvJz+RcH794weJ2ZLqfpy4/qb3sggva/fffnx00G3u3zDYsDHdSdsBY7Lc7JEOt3GA9sZ1/1untH/zIj4apIz0S/4Y8PrNzV17mjXrkgfu7yV4AB2C3Jf3jjjpqOCr06Mp0XfNuRy5Q6pUYwEwGwIzhxk/J89mh3bjoPS7BOYDCdN3FTE7K7aCzR1LdMGAP6Y6AfWKOQ03OFGnW0O1BbyufyfWKodjqjHEvzGTQjnSRp02and1xY8e3ci9NVu/SeGSiJnWDljsjKccl7i2R1NqBNEttWh602DUxe2mzXjghDQmQP59ST6VH/VQ9Cd3LIg8WUBA3vIJfXLDFba/Kd4Ftn6lncAAtUOLK/NYhV4cchMXsSlKEq1KNupXdi9EkIQ6kMc+CdBupCanwk046KScEfqI3Mm4JoxYuXNh/+wZI40rlPjlHkc7O9YFnnvGSPjPqZIZnybjXRUf8m5nFUPZXmhy65JJLegNEat6cG+DEpUWXvtvP0lR1cA1dSldWFBc+t8HCfPrJ461F4DZSK1oMWHpyAHJClkSU8+kcIl75xGPxkwYkEy3jc5I/SYZPk34aAPno9SnOrspEu31pD4dnk6sAdI8IRD78GYId5r/7wJhcIMOYPpzZOGwgLACWOVrIXnmxYHLfW6Ejng5kN+L8gn0W2EqyAwypDjykNanv/Qz+uOnSkvB+P/HEE+3MLHecnO1qr3zlK7udSSD+aTeO8avbVveqAKNwn/nMZ3qZ9QaA0IMz4kc/wKB8P1vtA8aYHBxorcvaUct/4gsed+/K0kxeEO7LMrGVB2+BUHoMyjstd666vOnvu9qfTvW7zENdvsMKQgxJK1yBikntb1bBy3709/5hy+2FMDE+BlUuStcbgxYQgQoY+QFMmvKbtjY4et+mLjrGt0FaHKQid1P/JUmBwff4pL0n3TBqYqSWdxUty5cw6kw0IoW6x/3/lGf2Y6AVz/ZsWZs1IyAM0PTIJufCp0ceXtGxC/jW+qrMgv59VQU0ZunDXZYXDIQKuv+YDrgQ4kAgK7vDTaCDpQd0NIlVUpBJlSQENt8mWYAK8wKYi4ltXC434EWTGgvzL25mARtAxbcgd9rslbZJa1K21QlX9NPD8/0cVaCsWdHQvNM9WO5jqEjCSRkH746Em507YJbk2v/sC2hP5RDvrblmkSKV5VtD8M2oDki3Q1jQwwZCZcB8dBVS5VOjACu77jDmVt/M8lvmqNsL8U1KARFQAQoAkloUk2RjL7++uSt/SbYCGHduGNw3e0zuu8JLhxZWV3WTceeYJLTndHJAODH0DZT7KKvorIvZBzvGbsA52isN6PckDGXjtl6p+3HcRD4rk1D2o4Ly6owH92QSyA9lFbe8/H1XylFaWfbR7Nnfh7KcLxgIMRdV5oEKOeo2+n0gvy+UHUAUsKp7BkDAhFm50RSppivJ5A6U1iGBTBhSkiYNhTERg9Gr4QI8v9FCOIrfPiaUTsaFmKjTKmAxduvzMlA0ovpEyX52JmUSOv9y1T962QAAQABJREFUBCuAHpcx4Yw8A5ed2Qk5o917zz2JMOt+8TEjSyjyKd9A+c2iCoBlHq5yHXIQKsj+ACpG2d/e73I7EAH2938gP4fbDlgAA+CAq8Z8wOG3PGNWfqqrqdvIHvBoym9gA87yK7z4SyICoXSAV3dwQraKeVsQDtz83VdVSC50jDkgcBgz7p0kJRVHVfzuUwFiwmWkGUzmGepsKzsql1FpQm696TqzNbozvRutLLv7FP43EQr3EeKwfg39kEOYJKaiTVDQNvCa4cOYGJaJAYGvJAcmpdhjwmqZ/B5l1mL4r5X9CrO/H3FWvJUWvwNzDecaff9NlDySiDWWAxJlIcm4GcOxK3t2dI3hKv3905Yf8ZQkREcKcNHSOtbOLNqrxKlZsZeeA8jTk5anvrdmM8FBVUCHjvKzKychtuYC5E15+s24cOkxR7dZQeCGHEBe+fBDHdNTen0afw6NwUHjP4gHZa46er7vchdV1VuZ7MqdyR690BbtNGDi9bvo7Tflt3IL44Y49POKlyEGxf5wqEMuCbXqJSEQB2EKPFr26dNndpD6xlyIYmYQONnxWwQvonCjxf2toNAEg1FoUDR0Fb3lCqt6uqLTA/YZ2c3CfeKkPA1tO1m6kIMK45mUGRV8HBK3Z7lJQLtlhld0M3ubhf/FRy7qQefOmt0eevB+QrBLyWlJR9fVtrsXWqHLKOjQiqpeCKDhFcDTiJnYYhoWWCZCTwBkf8IJecx0rJsvDnfD2mhxqNUhl4QKQBIgVH2fffbZfW1MIZ/MSQTjC360QIiKKFowACRhgK2YUBwFxlG7Hvk34R9lxFjo55uJVnoT1CORUOvyapTW1BX+WnNLDHbYkJTPAV3vu44BUgQBLBpTgDjJpEzGg54COP64Jb2rS/7ec9ddGWMOdVmMirlfaFVSrYBYIKzGnwl0eiH8rslTeF5+Qks0fPDBBzv/2Whx/vnn926+cnHXmB0OdchBWAyEGLpQCqjwrtFbunRpZ4CVK1c2t5qVG4nIv1aMQjy/i+DixIgY7ptdFfCq4VFezKG3QJGEWnXt/6xcQzE1W+x25MR/Z8Yw0qBGQDc6JoxknJzTGiFsZzr0pXdkMmZ67opZmIunMMia3GW6NddlEKzz8rDpnNxxQ9K8GFTlGX8Uj6CV8qMTHmFP6uEvvwESGO/M83LUsmXL+j03/KO3Rkkch4u/DjkIFZKkUzCFUlCE820Llot+7A65J7Nvtm4BYElF37UuhqgIhKBMapQxu8U34R+0KqW89XtxTrt7hnrdmrV9nyoQ6kmg3ZY0dn1ypsuxCs3cF1d9d7COxYuupKANAAvzmKctswTnrTff2CWqb2cX9VBq0kisL6QqmuAv/MJUDnwmn+yUEW3q96OPPtq3CN5xxx15qPWULgF1OwFVD4zkLDofjrId8jFhFaYAw6QBs2b7MJSW6eGHH+5uFrFt5cJQBT7xaMkohB4F4+Eg1AuVhnJjKia6oYHyk4RHBhBr0oNY88xTbVky6FXc2bly4r6nHs9JjZmddgfrMIrPzhuL82ZXx2chcUakIPqbfN2ag7vXfPELfZ9oNuX0dHsjaDY24Xbl7psXUlVvSR7QCF9U152dPAIVMOIv+3P1ukhD718QAMVbwmr0hUeX4lXxHEp1yEFY0kxBtTIKT3lf766MMxxrAUJT7ipXK6V7JZxdIVoohNSyIQqiiwsj0uM8cfZNrJSVYhZzoI2GCt0evP+rfVwNCuzQa9cDq3o3sk9KOFv0LDX2O7Q0XtyROpmUo1U7dwyX7hr/HTF/et9c7oiUurg9FxSnCjJRMz9pzO2NJ8ZWHy+0Ukb5QBvaNwDR+Im7cR9t/oHdnBzQdoWlsa2h0PW5duTUU0/tvTJxUBXX4SjfIQch8FShSDZq1apV7d577+3Sz+wowuneWL5QeAz3la98pdtdnIdYtE6YC9Gq8rVa/NVm5aHjhMEwxqgpxTHGe47JOyYfCM/ni01hml7OMRD61vjozs8OM61+em1bu2Z93zgzZ0bW8Gbl1eEM3iZl/RA/7ciyw64xxurlLNwgCZ0zglNzS9r2nBOcnbqakZO8i7Jx++Tjju7Pnrlm46lc92iJcP6Chf2s4+ZtumyzXhSzoxpousCIPnhJg49O11xzTTfZEwD4yJwE+gmj4SIdhcFf1dgz0f5wNDQZOiSlQ6i02gU+wAFAA+LqBkzN+wUIwB8T4XRT9c+ZuhCIhWgko9af6TfiU51RwyROee/MPaRMTOP2MQdOp+Tukym51cwjoZ4t2x0mzdC9/zZOwKMlbRGf9luDwKyWVj78Ll2tbvkrv/IzquURE/R8jpjs0aTsfZcu//yYLZaWxoiJwfQkVqxY0X7qH/6UKcu2PhfzPpZlwUfy5sXPv+O/tVvuW9kWLV2eB2RyiDZdxq0BY9+zZuN1ykdNytLEnLxDOCmvR23LozSb16zOi0/HtR/8rte3H3rNRe2Jx59s7/rd327/+Zf/Y79x7bu+8zvz5uCs0DYnQ/KwS5cWITQ6Vxnku/LOjh+qaMgc1dOzpIJuaIvuGlmm38Kqnwo7Sn9u5S4dks8Qx7CGxHNPLB4CLOBj6m3hG2lUvqSFzwATXd1kR1Ki9eFSh1wSIiClYgAM2JgIRxXT7W9WZRr7mFUFWl0js4EIhqCIuyQ3YkujgDEpT5BNzRULiMxeWuJ25bprpKWL8FOnBZhhXodZq5KZ3Pln+k1VXJVn9qW5lXv3PPaHX2WoOEbd/rbfykYpC43hlAEdXvHKS9vnv/CF3Ed6f5uU15mOSXfx9a+4MIv2G/Ke4cbQYmrKkoYjRcn543ynddo55GuKG303PdPG59bwhXlwcOaxi3vYi3PYWIo3X/PF9oXPfDqTPOPbwjz64sqMtbkhTZm25O1F5JmIfolTeQ+kiwZFI6by1G8Nr9/8UUVX3+yVlR0A8lNhy9SdxFMAhz8A0W91iEZU5Uv40uyrbsTFP1NY9sKUO7+HUh1yECI2pZAIXhIOMRSyGKuYC9H5LV2/S1oK7+BrEWrp0qWd2Fo4wCytJVMJCEuXf8T1u5jBdL7vyid/o7oqkCnPZfIjTP1WRt8Uf/Lvt1b361XSEScaYTJKA7Jgwbx28onL2i233NR++T/+h/af//tvuUWxveHyS/J2/GPtqs9fkyMPWTvMtYJztexx3BnJpeXfGsm5J49kTMzFnzOTxWVLFrVT81rU6y67rC1fND1vTjzWPv6xj7Wbbry+vzV4xql5mTdSCQiVid6duFSvGq6yy9vot99FT+UoupXd1ByVYk8DGnvh0U+ZdR/rN0mlQS439npK1XNCG2HUu/qXR/FR/Fa9CE+VG//cpK+xPyq3F/Bf7t3zIfxzyEGoIFV4TISIiKbgCL8jzykXEAGuQFeEtqBfRBsqfndvrSoeM13sgVA3QqUx/caoTrZjnvotzQJhVdgoE4x2eeRdHEy6wOybUlHlLo5SVV7mN0KJp7T45EM+7Rs995yz2qfyvsN73/Wudtzxy9r/8XP/sS2bP77923/2g3lDorWrv3BN27pmQ64q3Dp0SXNMQtfs2HTp5+WY0km5D/Sc005pLzv3nLZ0QSY10o7ccee97X//3u+0P//930v3c0Zuyj6x9zi8r6GckyZHuk7IntXkyy3kVNFk/2+NJ1U0ZqIbU5iiUYVncqs6eih36+AJEgrflPabPb/iKB4ZBTJ77nSBsOjIrtIUhr00gZDi/3CpQw5CBVFABVYwrZmKqYIfCHj880tXK4XIwFr21cpp/aqSdEeMlcRdlWgd0hqRrluBUytZoJwyZWgM+K8KkqZ0VJR05b3yzxy187sqmUkJ+41S4ip6yKMueOXVrdvnnnVmu+LSS9v7/vqj7WPv/8vM8GVM97Yfa/Pymuc//uHvbeefcXJblz2kT695pjeA+pkaqsWLjsgN2HPbwrlHtKOPnJObtjum28c/+NF26/XXtKs/8tcqrp0RgLovFI035pa3wK2Xr2jQ85edNpTvKnuZaFn0k28anWj23uugivajpjj0ethJjx7lF/bDmH4ArbRovFF14nelKZ3KV+WJP+5lr3EXL/fDpQ4LCBVQQUeBx26U4L6LEEUgJknDDXC5j/oRJzBRFZeWsuJmr/sqDpVVWpcVIIHz+OOP7RXHzW9SovyrQPFRKkv+C+BVsZWvqjRmuckHpvl6lDjEWen7ppXXlKg9oxde8LL2v//0vblq4sH2J7/32+2cs85ui49d2k44ZlE76rJzWp6J6PeCDnEERmkrdof5STbX3APgU6vzOnC6tb/333+t3XnbLbl06ul2wfnn5eKq8zqNd7i3MWPDKZlIcf4wTVTfxtYbw0jkoj8TWOSbRi8mO41ogWmvn5RBmALXaK+IfTW2VW7xlR26ipviXsp31RW/9a383Jh01VP5lwdCQh7ww+FShxyECEmNEq8Ix62+q8AIMkoo7ohFAgCFMBgfOFSkeClE5XdUs9eyISwwipcSDyKL8/rrr+2VCoCAWRLTbxV4dO7YlD5g8k+KMv1mr+KYledKg1nfPdGv408xkSh0w4qm47M/dFIuabr8ile3X/i5f9fe/+EPtxtvuLFdccnF7R/903/RXhn7K664IqcjzEgFcDmkOydvJ6LCxh0bM+u6qd1670Pt/e99f/ur976nPZkr9YPsdspJy/Os2RnZWnh6n4l27eO6zKAqs5nVLaG/cu9KGSfsTtw5AFzgwsDc5JE2S8nkzr7cy0+dgURDWlmZ0kI//tWp76pj8RV91RHld/FY1VX9rriZ4qDLTjjxV4Mrn/jrcKpDDkKFUUgKUYp4fiNmqbLf3yyCIZLw4qp4EBLR2NH1Ld6yU4niFJ7JT40rxL0lR3fEp+IAE8iY1YLapuWbXU1zM8uPrp18iJ8/pnirHID99Spx0hgXCJVBfumtmze1Rx9/KE+rXdG2ZRZ0U266fnDFw+13fuN/to/89Yfbm9/85tA5G7JzKsKeTw/IPP30U9mQfUdueXugPf7EmrY6j3tOSRlmZcb4nLPObcccu6QvZh+RceOmdPd3ZCP49tyhmjWdmFvz4lJmXnNdYad5ZmCBsACG3gU09YCh0aPqEa2L3r1eEueBVNUf2lIVx6hZNBYf2hdN0Eo4frlV2qNhR+2kxX81DOh7ONUhXycsoCmYynElvLVC3UiEWJsHUCjuVZEYTeWxqwF42RWhVABF0iGidPgvXUD0m6rfZVYl9yn7uNdvfke/gU1FlhQE0pKG7C2hqEAMUH5GJaVyymtVujDFIOyKkZ7PJMGrfPJOK1PlEZ0m5Vp5dHnk4VXtxptvatdcd23fjbQ+a2bItCdh0oFVtL70wHQ9YpLP+xFpXPL6kwksDc68PO3tFjV5253AG5K+yRrrr9vG1hu3Ji1vXuzOEse2TRvSMR3irjoRf32jn2/xlVb+Ki9JOOq/7MtOOdkJM6orrnL3G/jUQ9UPYLIXjpvf6oZJs2cW36H10qVLmw0iekKHSx24GTrEqSNqKUxZzFV2RVBE4sYPYmG+IphvbsBZTFoVKHzFKY5i2PJXpvSsE1Lsyiz/flerrktrpnZ/pXKlJ49V0Uy/2e8PQvmhudG6v5XvUVM6four8qtMVe5ePhfGBAI7Mq4quvhemllS7z08kzfjVz+e84aRVHvSbRyXbmU6X0k3IBxL/8gjFieNQYrsyOW/Tz6+JfHt7I3g9tDYozKeWOvnEpOfPc4nBjjsgI+kn5B9pJXfUbO+laPKy1T+KquDxL5H/ZYbO6Dyu+hWZsXHveJEc7roi27ANFo3VS/c0AxfPZ/ip/L2fH6+EfaHBYRfqyAmSTCWFh2g+FX40ohcqvwVARFRy+Z3MSg/xagVx6hZ4GRHmWEsxW7/vFb83CqN0TgqHowgbDFHxVNx+r0/A7EDMqr8728eDIS7AoYtmXnZlV4Gv4PkGdYnMeDOeZnQCgh1SZlUmqVs1h7y6wbv8bnZe3N/RYpUcsvM2DpdB3mssqwxPqJzAiavBibdyAk5YAjYu7P1b/981++iD5qxKzqiEzVa/lEaVnjlKZoW/cqs+ABLPdHiq7jFb7hQ9VUmP/iKqZGlKp/9x2H+c8hBWMRkllbG+ja+QgDAAULjNV1MGjARjuJHmCKWihAGEdnxNwpAv9kXket3mdwGPXRX9/3eJxGlK81S9V3m87nvb+93MdKBGI17KfmgyrQE41u+6Wpg+u+AZH1eOXJFU7nZsrfHyYaM47KVZaBZL8MwoznEy3/qI+DanYas+zO/Ikivp8AUwALXaTNslYvkGgOtGVnb/jw6EQonHuEHgFUZxVFAwOj1u8xRf5MjhYc09zVgo+4ludgV+MoUzjc/QEWqMSsMd+Utf/zyA9i07zrgWzTnf6BRr4bD8ueQg1ApEGFUjf4mzRANUfTlgRLj1axm7THljxZWxVY3z75KRNvLhAFmZ9AxEOpGFmHZl9+ym5ztWpTfZZab39Ks3wcyi9nki/a7vnuE+VO/D2RWd6jiFmb0W1n9rjJVObtdQLghO19MtnjrT6O1cWPGaTmUK63JeXbNJb6D3zR0ac9czpQUhjwl3gk9/vgB8Ohx6WruA0EmwgJwT5sBXaJMI5CJrjGwyuu0GXmTg6RMuUtj9iqrevU96lbf3c9YXOwKXKPuBeJyK7P8jE58lR0/wjHZAaZeAf5iX413LT8px4EUusnjoVaHHIRViE7wkQLV71rHQ6xqoRCsxmJ2xJCQBcxanEdICmFHmXRUGrIXLzXqx3fp3pKPubMrv8/3XUAuf8wqSzEBs+wqn/W7/Jc5mj9pVvyVP/4qL76pfW55rCU3Yw/peRBmXM4T5qWj1Kpu9q6M7aZnxjP46Y2JyZXgLN3HIR43tG3N1jUg8mjL+Ly0NDFPqw0MPDDx8LJSpv/HwGkiZeIYcyemDBUTWcorDwWQYn5lLlowR7+LHpMDinITToNc4dnrYlY8+7uz10hSvinh5R8vMW3219CJhxv61lpg0Vq4ommZ7A6XOuQg3L8gRfyyR1gFBzrf3BFP66USEFMLTzLWJm7A1YoJg7jCIyiGHzXZi4sqgo+a7O0dLVUVwKSY0q48F7Mwy04DUars/PZNlaTzXXa+S2GMSnc0b74pZeTuN11lLL8T5zqAmnW7+IvMzgtSmfjJGctteS13x45MTKSRIgH75E1AaLmhl490S/s0LnfJGPMNeR+WA3ZnUX53kGuChuRMrfRp1UnCDMXq99Ggg72opGeVocpVtOhpxVJ+2VVZhKXUD/sCWIHQb378Lnd2o5q9+uEHnTXIekjMGh8aE1aa/AItk51wVOWx/xj583z2I16+IZ+HHYT751r3sxhMC4XJRls/EzeIgZiIB3ykIe23Q8AVXqUJr3KKSQsE4ih/vkvPylXvvqmyG/1dXWBx0tKob6bGYv+wFQ97TFPu/eMAf/ivvJVZcSjPqPuzQZhJKMe3wlg7cvVh9R52Tc4RrlzQKxz/lhPG95MTeVM+6w3mSLtK/rekQ2HMV0yvTHsiKjv9ApxpebYtGA1ejRCj+1gRvUzgZLOEp9QSpsCBsWl0ogtk5afs+9KEuNJl7nZAl8ke2gRQz08kddVn0UO++3JLutlJuJ+OLwACn0bbb+Glacwnfr+p3Rkv0zvzDHqv2171aSAGFuh+DvefQw5CxFNYFVMMhCDsgA2o/FZZiMdENAxFF4gQBlGrtStCzZqz77EUcZFMwmEiyrKC+Is5xDHK1FOzbasz3BjD+q588iePVIVhlmZfIBSvfDNHdeVjNMzot/D1u9Jllp2GpvLEXtmY5ZcgHp8zghNzfGvKSN6rTHoQJJjfU8fC9TU+fo0NJ2X2MGUCS2umPd1xMbuA1PVM/GNlctV+Z+ixrqllC2NKam/ZQ4N6eltcGge0V4+Tc4pDXaCPWSBHozQIJpaMPUHdexiWQWje9hiD5sORKeN39T87k0XMSbmG44iFR/Zjkj3OxGDMujUPlzp+xa7fOieD0lDOlDu5zr2q4bNw/670hIYcBIjJSelksH/3LkAPP/zZH6tjzdmIj7/95yEH4d8+S88OUczEFhHrt2/KIrNvTHkgSQlEwgA9k+qMFGZgbsrJcZXle7QF93t/xV9pbr4rH2U/ao6GL3/M0tyrPEwMqhzMsse8vtkrQ2l2tEZLfL658Vea/bYsX3Abzde4gCxWYcUsZUzMbWQBA/nY/VlysJwhn7GrbWXyygZz9ue4dyePAe1kdIpEi3WnIX9UpTct9PdN9cYxUghtO30DtCk5kbE7AJs4jkQUcJjpHdLf0x+l0VDNzAtR/ZhaAKhO0UUcO8wGB2CVXiIYvpPVfXbJW36nSLLZ1Sh4uKXUvYs95nxYjRc9CIvBMEgxl+/SGzcPi/mYUWVpIQ3GeyWG6rq4mJNJA6rf3Ck3ixVTMAGA9q0SpVmVWfblv9yrxsrf6G9+96aFscd0Tzvf8lN20qpyMdnLq29uvkv7zb0A6zcm586UF+HMHvJXcTPr2xLDjnRVh6WGMZrmwqc+JuzpDxMZ4tIVrfIpU89/wIfuQMit0yX+mH5Tuqu9TAFfTzduADdBFzgScrvznAH0+BzGnp6uZO/pRMKpS43i0UsW9zKShMoqXvF5LlxjIf5YdvshD2N3zqRUse13sMoH8PVGxHUm0aMPl+4G/DHN76BI54FHyuZQmS96EO6t8DASpQIwWjGSJg7TGSOqhL1dn7SUKq2msIsR+dVlLXB6aZdb6c4wnQGH9IqZhgoemKuYrOyer3LEKT9MqtIY/a1VL/sq02ge5NVvbrT81zf7kpRoAtDcldtv7kzxj8bhu//OEaTInw5CjVGPN/3PcicJJ2XGFNN6g36fHBmkjFnW8QFUgbDTYwysE8aAYTKNvafb5FV5+yz4lBzJSjd67rwFnUbVgAIh9wKha/mVYds2jU4axOTDxoFJ6X6PSzm3p7xVD+rFcsrAMwMwQ4xOe2UAw0EN8tAmg5opHnN4QYwXPQgxMaagmAWAUWphMhWFiSiVghH5NfHjGwPQZs8sgVAdDGOzhcXYZUqrmLf7K/9jZtmJuxS70mU3MMSBAVh+Kgy/BYBKn6TxLV/KWNpv4YCOO3sgpJXTb/bGyfxVHML5pnv4zIDuinuw0zzYuztdxHIDQnfyhKCxw8LPLp9wW7asDxiGHoS8lh5nkiXhnEKRny7h0D4XFAMZf2hn4ocyg9vzmTHdhvXb2vrE7XflvwMtDcTkNApTcvZqTySnrjI/e3I5FblltSQd+p5PM7byPSrx5H8AHvANPCVt3dn9NfsDqUG+H8jl7273ogch4pfGpKVVIPv1G9f1lhRYtbLF9MVItYRA8gmjheWPxhyujKcqjf2/MQHVGWSEeXvlhwEqnfpd/pil6rv8VHzM0e6o35UPJv9As799+RmNjx9lV8ZKT94KxL6LdgVE/jx3TcaZTBG2P6cmsihSZcsuFzoFMDmF4Z0K8XkVmN84tHm5JFi8aFm0ZdYkjD2q/KqfHn/QLv3emGSG8pHHV/X89rLGTT67TtqUBnNC1i7FP25CJtFSX1tztnHLNhvbd2XD+axIx320FqaXMyBEp+eqAt/QJe3g64AMELt31Di86kUPQpWlgqpyisGQCZGnTpneK1cFd8aIPb97IuF2pXmdlJvWhOm/Y27LnSqm4C1cY4wZucW6mNfv0uLq8QesX0tV/kbz2NOXZnSBqPLd8zLmJt5q6at8BZCKY7Q72hl3TBqWf3mvtLkLX5o9QJS7MOVW8c8fPzx4YplCXH2LWuTJ0MUcAMQeXTyRPSFjsEkdkCZSdA0jOcO81TBY1K9v5XvmqaeH+rAskPyR3LR1TRcOj0t9WPbo8WemGtgmMAM8dbAjSyt5LLGf5CD5JozNsIqbDBsmZfKZ/NOWPLoeq789Y6f+B98am4QZ090ueR/kaHjsWRJR7CTkoA4E5zGnr9v4ewfCYh4lx1wYAWNVtwwDqLyBaYY3A+u7S74wEz/CChMB2X9XGH5pv8WtG8W/74q7vv2u/IwyOruyl0bltUx+aQpIKP6Vo8JW+IqX2ygI/eYGpKN+9g+v+72/e6XD3q6ZoXxAlXJH6hlr9TICYxgxsO77Uc1E9nyYPVXG2G/KBnB2JHqf+Mo2upoA634j7aTT+5tiCx1JUztlnGCZHtDZdWOihhu/wmWA0dc3zYj2SZNEsTVnGAFl8tQc8s4Vli610hX1mpTu50Qg7Lq3Cj2+ZPNZs55jAhbJO8AG4AEiCWmCJt+J63Cq5wVhJ1xyooJKYQIMSiG0Lh27UqN+61tLj/kxh7DiZYc5MOgUD5IcRIkLKJgV7778DRIwzs9Svd4z82cbljAqw3UOulgFsPGZ1OGm8g+kuckjU5jRPLCjC0TPSnzkh3JTBapRc397zFe6/BVj+o3W+7urg2Lc/UEqTKVR4ZSnvoc4h1MkvO6M1NmaExUuDN6cB2AArO++ycl8h3q35ZZuj8UAo+sxdqY7qB7Xrs8rWrmHtOgqfqDze1Lq3PuGGjMbLnYkHu7DIn2eQ0gj4p6fCdnIbTePOK3hTc4M6aR+lYaKDa01EPFDW5/cHsm6LWVZdOSCNES5ACr8uHbr+nbiiScm/3m/Mb+35cCz/FkmAbMtaSCUn7Q2KUSO+gfEm5OvcMOYDi0Ceo0DPqJS1fupgbaA+/WqAyKgGPxAkas4jFEV7LsUpixV34hQit+SRtIYQHj47vKofDzb3Jf/Z9u/OH6hc4HM9/7aZgR2GHt/EAp3oO7sPhBGsuREhE3w23Mif/IUB60ntk1bArpse8uP7DhZ1SVjB1iYEuvpIu6w5BAwPvnQiqHnEMauBpnfKWPdRmmZiJFHlzYBgBlrfKD+Z8yYEyma0/q5jMpyg+HF7oDQZcXbdm1OubJhwozpjDTkaUA3bhommjToXpRyNeP8BXNzk/bCzJDnOsSgZ3skpnJMz7uKxvw2I+xOoyAP8mZpRL6270qDoJoz42rTgfcWNyV+w5igse+5dfi5e0kcxdODzTfu73NAeCAA2nWhxS0pKHlEpBSsMifsgb4VGDOoJCYwig9Bvl51oPx+vXG+mMKjmTKOAg09/WZvH+2oWwGRH+6jZrkxB/tdfWKr12HqYlvGaNsi/TZvyWRNl0aRXvOPaGvy/uHjuXR53bo18TOszwGg3SmL86ZDb4jTlu3O+MsOFbyhntc/k4dX8psEtOmbnTp3Z83uXKVPrXp8dVu0+Mhc6T+tLzOlr9VmzQh4ApR1kaB6Lo89vGq4UTs9KOF1Z5XNdZlH5LJjXdZ58+Z086QTl7cZM4eGfVvSmJJTHpaxWg41j58w7MbqediZNeP0jLxl8tgTq3rvTBy64nbi6JHCn0ZHcEqauu/faPUsEEqkVH2PMsEoaBCJ2ygwK+z+Jj/FOOJQacA6FGp/34fz94tbCqJEgaiA5nfREv06AOKvvv2m/S67DrKRXop4B/oPXfFZeXNwQhh0w8bs3c2gaFrW4DZu2NKezAXC3mkAhvWbNrZJkTwYdUoms7aly7d5Qy7RigSblMkZdQwcs2fO6qDTTbdpYly6mL3+x3iFVCQBAXJ6XpCaNmde25bF+q0bNdLZwRMRtD133jz22GPt/vvvb/evWNHjIz3lmUAwnFFGYL/37p19BnVuyiDNa6+5rt+Pc8YZp7VTTj0pUtEmfzPiwwTe0ABZ6hk2s7tn5yMfvSrd703t8stf2ZdAnsn7HruNRTP2nTM7O4pCr8wkoDJCH6hviqR/Z7UXhCqs1Oj30GUYupS+MQBiIABToSjfpUa/+UcwFcGeSVW4v8mYsOI9kDnkdV/az/XD7fn0c32/2GyUjwYkun6XHXoWyIruTDRnb+zOb4F31DSxMj0b2AFqWwC1IwCcMGlqLova0u7Ppbt33n1fJmBauoPT2ryFi/qY8PGnV7cdj2ctMrPOZpafzgZpXU8TLdJbterRDobjc/+p+0rr0Pa6ZyJFScJ0EzsP9Etu8j1lZtuUric1btykbMh/sq0I8Navfab7O+bY47u0f/yJ1f03qbdw1pwOZGWbluHOE6ufag89sqp3c2fPnN6eCoh0W1c99ng7/dRTMm48os2fOy9jzezQ2bWhd3V1d3VvLdE8vXZNf+PRTK9DzJZdZmTyJycRO+bkDTz2srgfAElcfgPURBU0qup3mSRXVa6Wji4gckN4qvyUWXH6XXbCmUVTGbUrYix4ef87mF8LgH+H6F6kQUbpWFlkh/5fS/NTdVnhRs3wYZdyO3Psaeq0Welyrm933nVvu/f+XC+fyYrly0/Oy09PB2y5kW36pH7L9+yszTk+tWXjhrZk0cI2zjJC+EjD6tQC7dEf70QsW7aseYraW4CuP9ycC4Sr7ndGSm7Pmxbjp0zLqYat8f9Iv9Z+U6TuzIAL4ADy6KMWtzPPfmk76siFfRijgcGHk7PvdMO6jR2kxsZPPfVku/3WrySOlV1iEhR2Am3ZsrRNXOb9kYwrI9ZIwaEx2t1IPTOr9JbN2/rFY9wd4NpKMkNe74Lu13PruCEjx/qto0T9W37vlYTCVWWVyU6B3Wp93XXXDS1TiInIugS6CKRjqQKb3/XtNrK6y1O81RL71iIaRH89ajSvX088L9awJdHQk/ZbmavcowBEW79Hacw/xX81mswxy0i9DZF+ObcZabdzx7j2yKqV7a50QffsmdxOPeP0tmrlY+24pce3i4+/2PxFAPlkpMzaAGl63mw4su1KN263O27GejxubPMyku4kKenbgvuSc17a8/7I9kf6OcXJiV/dz1w0pz3yxDPtvq/e3Y+lTY40WrAg10yGN9Zny9uP/fhPJPNZ782uHFJ1QbrDJvvQwqTN9mxnU+aItT6bec959wTMD7dbbrqh/cEf/GFeWboiM5/DWHLxUYv69jlb7awV492didtEDdNY1e0CaLVtW3ofmbQi4Sl28DiY39iGfy8IRX4g5RWk97///e1XfuVXOvDOOeecTlh7Ap1g0LpRBboyKy7+zz777H6NnPcHVRY/0qsuafn9tvlcCqBVAc936f3BWf7KRF/MqedRwETv0t0uTOa33S3is9Tw6BOPZ2JmS1uYB0G9eDUzkySusMDkXu5dODdAyMTHuPE5QZH8bLMul4PEGFoPB3u6Xj+yJWt5U/r1lq64BE6N9tR09/DAnmxr2xH/T69Z1x544IG2Jml7iGVcwLB54/o2f8lR7dJLXpY4MkadbD9ptqtl9nRPJoQ2b8pWuaRtpnXW1Jl9RtSrWxMT5zGLF7alxy1uc/LG4tR0mcU9bXqOPGUCaVrGoPMzdpyYLndynkYnO3Iyg0qaKbMxJYExfXomHYPr6QEgfA8TM/lQurREoWzSHxq3XuDnVtvfymYigpBIClWtmQpBUG87mMVUYb6t9WhFdSeIf1dP6Bao8Kp0cfBPUx//+MfbF77whXbrrbe2t771rXtbRv5NjetSiGNv65wwFZc4EEbeqGJGfvlhvz0zZKOK/agqf8LSwrAbGoDheggDcL+5yQtTOWiTC4PfYYuZLg5twzja6BGgH7vRMmB+4cTXx0DJFEZlz+S30ip76Qkzmmfxj/4ejUsdSRedKo8VB5O99JSHqnr2u6cTdwxOUqzZ5M2H4UGUjblL9PRFC5LP7W3hovmRHqFLGHVPxo4TE1/LWuGkdNGUYUIkiiUAQJ7lbGaS6mkGtMaK69NdvPOOu9vRxxzXli47sT2e8duUbN42M5kMtbXrnmn333tXf/lpRsBssue8s05tZ5x+Sp7/BrA8nTYuE4DZWjYhu2smZdw4KfFKe2LyMHdK0s67G9u2Z/05s6Fzjjmi7dFa7DklD9e09v4Pfrh9/OqrA8BZWQJJfW3e3k444YQ0InnhKd1P5xY3Z210cu5a7S9WBczPPLO2zU/a6AGAw8JMcBl6UXZf5W//rtlSNC06j36rO6rc+o+RP9z3SsIR+2d9enpKS4YZPCn8/d///X1BVKS6B5iRksFRLXL6Ax/4QLvpppvaRz/60c58l+XpLRIUETHQlIwHSmFGCnMWU2O0UQBxx2DFzNuyvtUrJBWKyfilKv36LW/y7Hf5H5/tUuKytanS4EZXeE9FA5tWWvwmA8TFj3yWKqav38zyo1zoh/Glo2z8s/O78sVewyR+6Wv0aN/8j4JVOG7ow56JJsLKJzemocNoWHmgOz3CH65K7PWQbXzPPPl0byStmZEIM2Yl/TDnHpMYAWQmEALaHLy2VS1T/DsSz4TQLs1hl5QYE00jG7sklEfxPJOJD93TRx9/rB+d2rklUihdP68M335PJFWknHjdl7P06OXt2CVHJo4so+zI2mHSDE6STuotaU3Ib3p8Hj81dbJt45q+n9R2ulkz7PaZ3LZm6WRWZjWXn7K8vepVr2o33HRju/Urt3WpN2ni1DY7IBuffajTZ+ZAcx4UhTR1ULuH+p07BSq7g1KX6mBQ+CsN+divfV+DH/FQ/Nf3gX53T2N/DgpCazwqiQI6g+zzzjuvMw8ppZIlSKvY0mXnOeJTTjml/fZv/3a74YYb2hlnnNGZU5zis6OlmJWdb5VXzILRK27MVAzEDzdn37iX20DMAWy+i4n5oeSvvrm7bbrf0RKGwsjc5aHi/Pmf//me/x/4gR/oeReHtEfXOStNZoVj0qbU+UcrYSj2/FLKAzxUuQNVNW7yVEqYamgqfmbRgj/xoYXw3ABdmdjRvkfVzkikviczLL3NIn3yMjPLDCZF5EdPZde4LGpnJ0uQ06XetgAIAOXT5mpjtn0KMw+9DnTUDX3woRVZ6rgvM6o5mDvGTzNnz+ppPZ5G/szzL2gzkxYwnrj8hFzHn/FiZmiVxfoiRSIN3cIhJdQzX6JXtj07YZyYd5/O+IBs2wY9rMm9sb/wwgv7/tb3v+9D7Y477uhrkMq2eKFLj4cZXTHKK111ONTR0OAPKQ5/q94KhKnlvc4VlsXod3kY4hzqveyYBwUhoGAglU/7VkCVpaKBTOS0Ci5ddirqZS97WZ/c+d3f/d22YmzdByHEvW7dhh6fTCMKQmCqik969Y2JqnC+2asodsIUISsOdtKnfPM36sZuYPJBekifFi97YT/1qU91IL3xjW/sjMkeHfghtQo4fou/8sJP/eYmv2gmv35Lhx9pAIp8cWen688/qWsSgh9uRVu/uRVAxTeq+SswSocazYOw3G3vku6WSCaTJNI2BrRWKH31LC+6o05X5JXsbDsjFQO+AG1SJmd6PQSfwxUZoYG8qA9rh7sz8ZbupDpcu35D89bg8aG5dMjPBx98sM3NE23HH3dsxodbQsuBz5SVssaYtuFrKvS3FQ5N5GVSurSdR82Ahg5Aetppp7WbbzJr+nA7ZsmxvTuKHuiHVqN8wR5tuk65d+Wbqrpkjll0YxSELLiLY39V4bjVd/k5KAhJOrsyFBDxFFrBMDClEqkqjAQqI5WgApGgmNbUtW6teMRhwFxhxIGY0ilAeH9cGiUly2+lIV/c/RafNIvZK0/cxVdxyC9/9JaMh5wK4KbyxKO8tljJr7Dll5s46QKwyQZKPgoo3JRB2AIQd2UmmSkTW2hr5pBf3Tbpyocw/FUZe4D8wTTioQrETOkCcpWbe5XVxJn8y7Ow6oIpj96wsIl6U57M3pXu6NRIvRmp25WPPZmn0p7JcsSJfXzkue3JGWe5/yURJ1zCZrbSTCaQEoT9XpnwXkjU823xP8XKmHpW7zltyUl4DcqixUt6OTdt2dzflj/rped3uvQHazLhszU3gRtzzg9dJyQNalQCOlw8HDCWZl6XylY1M5u+0SBH9Ds9XXS1PWclN2X3jw0EL3nJS9qH82qViUZ03Jj0XdOBNuhcPIQ+3LdOinQ1OzMGQvTiT3ebSe1fP91yvz/lt9LhPPrt90FBWAyFUWgRFGNVZEy6GLRMdqQd/5hV11alIcS+J4mHbkCBQHoVF9MSh/jEQSMSe0SjW6abuRfxyq1AIF52pfhDmIE4w7grTUhnTBKCkg53DM4/zQ7zSrMAIG69gbLTOFH88Q8U/FT+2ftWRopb5dtEl+l8NOLOHlDlXXrSkCdxyCeTwjCVv9Fy+uanyiA/VYYqm3T4mZLZwp22dY2P1MpsxqY0BuYBXnre+Z3+wu3M5EUGgplZDM3tcMlvC+IkIiW9vZ1S48Lk16FfIEEXM5PSRS+NjfHhtpRDebdu3pilh7m9Qd6d9UJSV77H5whTthwk9iGNntB+f5Rf/PxbYkAzF1+NSwNj8/j8xL8q4FySMT1e1KhXAzjFeDd57Dw3VifKKo8ZXUYK5iaANDTyva/ehq72vmzs4619ds/9Eoe0mJTvUgcFoQIW+GREJH4rdCd87Jj1zU9piSgw/wpnfOAbEHvFJG5rPZjRb5JC5YmrV3wYsZhYXNKuwmAe6cR2b57EzR1RxcNEeGBQWcKwJ/F0h6dnbWxjxg9FD+kKo2zyIy6ttzgKMOIq5i6/TJoqUAEKvxobaWqlK89+k4DiJW3lhV+/hcOYRWvpoiGaoYmw8lT0Fk5+lUkYftjR8kJxRxvuBVju/JKA0/JmobH1hrYlezEXtnmzH2ur01Deeftt7aRTTu1xkBouEw5nppuXcWzyaYF9Tui0J0BMraeDGfrle6iDoZdk4g1tJgYU7DdnBlM+tmS727FHH5N846NdfSJlciZXtu3MqZssNWzPiY2pAVOqNyp816d6elb6H9KQ3YScsFc+dOl7UhO3LnE4wRikL5/oVaDpCcuWtZtuvrW/Wmx8uiDdX6p4Bk3RBQgnBiNenZo0c9+rWoPfAQPCUML4Zpaq3+Vnf3+j9twOCkLMq+ViaqllsBikGKFM9qXZlT0CmGXEYJhbfADHHYEwqBaKtjGASTKwx5jAa1p56dKlfckAwYvZd2RXg7gKNBjWTJyWXHfPrg15pxWeRLb+5RntBdme5CXaOjGOIMILa7xCYmNU+ZYnexnFAwS60YAkznK79957+7hHF7BAhwFJc92hc889t2/lAry77ror7wPe18t01llnSbrT1uSV8iqTWeRrrrmmTyjoxqOtSS7rrsoAoPInz/Ig38oufXYYyvUSyiwP8oze1ShqFDZtCpB0/frlSxN7o/HU08+0O+75arv5xhsHBg8Y0BxYMKZ689u0vzzpCoJgmsPuhvk7AGJnmUI68qqOtj0zSGTdfWt0/XqL0HBG1g93Z/zYr9nPFRb2pE6Zna5775I+vySU/oZIW/Vg0X16dv1MSxltv3Ptxqonnsq65Zy2af3mTvvPffzqvfysXoWjKeWSV3TblinZ8Zn52Z2GWh1yG9X50cMIyb7iqHj83t++BziA/0w+7btmb/Rb6yISGcIQWloVqgL5w2RUZRAxqqUXrpSCYjYMbWCO4TACIJYEMGDGZBgOWCu8ipOuNDF/MfLrXve6znzcxofQCoz5MBmgfOYzn2m33XZb96Ph4I8Wr9lK/oHwhBOWtdVPPt5e//rXdmZTJqD99V//9fbpT3+6l1u5xGGJxaaFvvgbZvof/+N/9PzI11VXXdW+9KUv9bVQO4soeZaGfFGA8+pXv7q9/OUvb6effnr7oz/6o/aJT3yipwVIGh30+Y3f+I1Om//yX/5Le9e73tU+97nPtU9+8pOdzvKCBpT4jbOVF33/5E/+5FndVOUF9q985Sud3mh+/vnn9xle0lm9auD2ZLZFg4Ym3rTYFvulxx+XirV75rF2/bXXtPkLj2hHLl7cF73Vsfwar+1IV21CfuuSjg/TejRmZ+cD485heDIz47zpuZof3aXpfNC0jD23ZzJo3nFZBkmDtiPABr7tkZI7M8kyKfs/HVOSzqSM8VJxe3nCjChNDsoz/mPiyfHRaNR5M0tXQLjoiIXtyadW9/rtPYKUGa2XHJM11KzWWyqRTj0VJ494dVqk9KZN2VIXd40H+glfPQlllbZb4KRfmh29vyp35qjCkweVhDKlwiX+yCPZcpQMA5DCApEWTUQ0O1pF0exUNP8YTIurdV+WboHMIIbZ0Q9+8IO9tSdl7bDBJBjVzCtphgA333xz39b03ve+t+/s/9Ef/dGep/nZ4iRP/N6YlhsAAQEASAuMatKDNAZqFbQiM7T8AFa4MHnZ0y666KK2OIymrCQRZpeH973vfT2fmEgcJ598cvdnER/Arr/++varv/qrPU8YX76OP/747gctSEthP//5z7ff+q3fan/2Z3/Wfvqnf7rTAgOSYJ05ki561Nsb4tUoAaCdRugiPnlTJg0iAH7sYx/rtNFQyBPaLl26tNNQFxadAZH+4he/2NO79NJLu7u0Jo/TTcTUGXsmDyTTnHTBFgV4u8OA9wTg69evDe1Xdmk1K9JrVl78nRNzXCTktqwfAkQHRZgeAwIEWvu29WxyGiq8UAyIH6hhS1ikahcnGeNmQd4Q0091Mj4i1vfXUpp78e5r9ofwxpVJst8I0Gdy08WVL0q31RX/8sRO+MobuwIaSbgnXdbia26JsYfrkffYtBH7ysZq8Dfka8xLN57P/qAgJAVlFKi0rJjKbxIOaACEkgA/QIvRAYPG7GalSBbumFzXiATR9XzPe97bGcQG3+/93u9t3/Vd39XjAt7q+kpzWZiLf5LB4j/m1LLPnjO/M7kKv+eee7o0AsjXvva1PYx4gKMYXfq6tk5gX3zxRe1df/LHkXiTO5NLT0Pxr//1v+7g9/vd7353L/N3fud3NhJYXMrBH0C94x3v6NKTmzSBEJ3QjT/dWuB4zWte097ylre0//W//lffAohuZ555Zm+g0A+thNONBFplxKzWKW1wIOWBVJ7Eze8f/uEfdqAW+K3BahgxlHJq0dWHvOrGos/dd9/d4/++7/u+TpM92bjNf79iImiYHloIOyGnHGZk4uK4Y4/ui+1P6OJuyqxx6nb1U4/3k/XyfEzOAsrPrEy8zJg1M+DLMCNLC3YyKb+8DUw+dOnY4Y9+lQZQpBGUVmfk8Dghots7rE0MUz0k314dF9ceajaoAk//MfZ71A6g8GsvU0x8Ig/oYpzLnv8CCDe8KY+k3M7QgF0BsdJJgB4GLkfD93IkPsp3/S5zb/iRj4OCUKYRmyKWddcwAkBU4bhJhD9uWmDMBKikjS1rCoZJlgVMQIiJSFaMoqXXTcNsWnoEwDgkj7jEjZFVtkplpwtI4hx3/Ak9HRKTvXS8037FFVf0/ImnGgX5RHwVQ+odl/Wp66/7cl8LJFlsq8Ps/CAsoDABmNRiclMhmFlDoBwaDuuIupvCyC9FApPGtdyhbJ5iRg/jN9KCRjd5pNAb3QDRbo/LL7+8A0vZpK8nwb/xp3GltKzDXnLJJZ2u6ID26ITO0kZHPQONmfyTvjT39FkiiYZunQuX9oTBJ+YYz4QJs5O3gDFd1NlzcvV8pKOZTtP+TuFLo3o48kAry6wcM9IILpi/sNMMk6Pdzp3DpJh0lRFd1RVa2uNp5tXOJUsmQBjZ1P10ooz+6QDcZ2FSCELFR48q5doZAEmPlkd+rGnqhlLyR1UZ5KdAODkzwXilNH6vJAZJq9w9eP8j7oqHReWn0i2f+/8+KAgFlCkRMrW+KsBDLIjOroharQgGolU4hhHWgqmdNs6YYShjK9IRCEmJK6+8so+bgJj/CgtEmI8/imTDcJjYOOz0M87qhEQ8aWJm+ZE3TOJbXAiICYXXmEhHd0u+br/9K71R4Vd6unblXzyABbRAxE28xrC6d76BTxdPo4AeJam4yY+4hEU30k/+3/Oe93TJJk2VwlRO4PGt0UETEgzQ5V0ZxansxpNMoNYIkIDSkV9x8It55EW96Hr6rbHR+Bkzi9MmawviuS8pdA9HkULpBk7K4ty0MOHW0G5G/EzNkaVdLV3UdMf6+/WRdEPjkYm70BJd+vAiZXwmEvuBFQ/3/Jy49ITehUdDDdzTT69JfQ3LNuoL4CZOdP3F0B11HUUx6Zg8Sa3rmiaPoww/9o1X4NLkEO03rXtcSjgPwOyKRtuieT76N1plyrenWzysIcyp2V5G9YJ26JsgPf786eYeFmNKvqkyx6yfY9fzHL9M6qAglAFMLGIZQWitB2YuxmGyq8IpCL8KZ1yFsZctW9YrHYMUSLXSQHnBBRf01tKsHiarsZk0afFiLgyJ+bXqL33pS/u+1Cte/doubbT28orpzDAa42Eyla9lFgemER97v9fl2gZd4CuvvKLHjZGVT9nEY5sTO3mmAIxWNo0CcJhoIrGMFcXPTfmBThrSUl5KPmjdVt1qIKoGoiSoipGe7jmpR7JJs3oFgAxQJmPE/frXv77ZmmXMrXciPumqDzSjKfkSt3TQ0Il5DZCJCypBuu5dQUyZXTMWq2fnBEJqoI+jtubIEuZ0GZMHSKfktIHLs0h8AKPkdajfLd0vGlIaKGN9fquR4w+PTM7Ysl9/mPQmZE9n3ymTMPKrXRjBk6gOqLrfMaYuD4DoEZvt2fit0a0GHk3Qhy6+9rqxb/lBQ3U5JT0BdKs6Va+hUqcvv6UrPb+pMke/5a8Ud7/L30FBKGEtAIU5dfW05iKQ2d5iIFa0yh9NTBigohAAAzFJQozk9ymnnNZbZwDil5SiFJySti6MeOVFJTPlBcEwMgZAUDtx+MWgn/3sZ3u8wnPH/MWUBU7rhN5xX579ihgf4fmXD2XjDwiqjNJQRnkgTfjTGJAuwiqbBqcqDpPVzJr8+607z7+uuS619JSjyqbMaKGhYYpXHPx0AIQuxSSYmh+9EvFUWqSvvMmPxkR+/RYXGmgQjTnVwdy5s/NqUwCbeFzqOylnCvGSG8gyz5LbsHPoNYCT/z2Z2Ryf8d6UpOW2sgTI9rTkMd1IcdN+T88OFddJ4JG1kXwaCNvi5s6d34Gozuxi2ZrdSvzIuxMbuMy36xQpPc2/idqf5wBXd5HqQNsy9CA66GPtJjeb1NEOXdUXEPqWH3VBj377zX3c2M3dZkdL8UcxO53Gfpd7meVv//weFIQS1nphepnVopnYYK9QIvZdGfddiUkcUfnT+gkvA8VcfhsvYBTMgWmkwz/iAYH4xCFds4EYjT2G5HdSmAGAgIVUAo5bbrml/cVf/EWXYiZgxCEcyUIDJAZelC7W8ccd0+MjlQHMGE4+5Ee5i/i9MlNWDE1a8k/xJz/8ASAFJH4LL+3ySzpajuFuPCY9ZRCnMrNnR/PLTVjlAyz04tesrPLyA1xmjLlpgPil0IxfwEBvcZLeehvs1Icy9VPkvR8XPxNSP5PCfL0OMVzGedn+xVRvliOcMNjmbtEtaagCyAlZjNf5yyPBwWQ2cQQ5EZgdmMaB515wXh9zP/DQA+2IXDNx6hmnRoJOyQzr7Lb+8WG8L28udNqdMal0koPetfRnT+yIQkekKNsCsP+wkybljG/+YG58ttc5jzgua54u+GU5LpM+xoBbs/iPHuPjPilb8CLkeqOToqaukl5MeRCzA79w5A5T7uqQxtd6CrwFqnKZj6GBSkr5FxU/mRbr337LRo82tLLsU0pcBcZ+vcUoaOp7SHBopUgsGuOQKpiOu29gkMFqCauVxhQYEZNKTHcKI2GUmmRA/GMz++YWLyCzb9CmYgWdkYVgg3Txz8+NWg8+eH+YiVSb32f5+EHUtbl2YXp2P8w85tge72WveGW78IKX9TGP+EnFdQHNoytXtXvuursDaPOWzW1e7hw54YRlOed2VHvDG17Xx3S6avJGYWJgpDA2plUOZVAW7pSxG3tdU2YB1zclD8CERsoCEGgCREzxaSDQSvrACFy6wQAGKNyEo8WjLoTRGJBoupZoIS8Aqn4ocVN+c6fkQd50d7/85evaK15+WZhyeui+vX0s48ybb/9Ke/0b39COzTBhc66emJk1uw05ZLtrRzZYy0N6txjdecIsxPWp/p27MDqGj4TMCYid6aZab3SPy6bNW9uxxx/T74D56gP3tQsjWafkmbM5Oad4+203tZtuuTnb485pqx5ZGT8SGoQAACCdSURBVObPMCZAwuKulrD9rNM5wEZHGk90IQxEKce4rC/2e0qTtm1yeGjj7k1tSg77Tk25t+7c0R5d/UTOGm5un/7cp/qwwVj3yPDUrJza6HyeM4qTs/NmYi4U3p3Z4u1bNUT5nf2vrmBMsqmDDDVSTkelNER7opXZ9RmOWek2mLWVXw0ESYkFfJPrLjeGw2G0mniwRwfo32CdECOqeAoRMATGUMHsi9mY+2v+2Q3EM+M2TBELhymYiMAec2B2jAbItLCkJIVBpSk/7GhA1zDoVnGvyQnx1QSQmUMAAS7hmRoCoHIlnq6RSRLgMeYEDGnIX6VdzKzcJblIVL+BXBkAQENEke7slIlZgAEaZVQu9qSxb/FIV9mLZsrAjjuN7qU0AvIoz9YPLTeQcmiGDuLzWxzCUsrNvux8bw5Ajl58bL9lbeUTj2ZZIWuF2cK2HaiSl53bcu1gyjAxyJscibIj29ScP8wMR3guHBTGnDw+O1Oy4L8jjeLunFzI9EfAMBwa3hF/+phTczLfFRrrNqztoE2th+GzJpn7QjUat+VeGI3wljRAm3OJ8MKsUZKoWwIo0gjDRz6FNhkahQ6OUXWVsu3JntepmcFVnl0Zn06ckv2eOTScr76TxoXCc7Iz6rr3/mVv3IzdHRSmN2VOgNSbnIkn7yx6so2UnDE9t8AFfMA90D8NwBgdexc5XdKUPnWYegk0hrcwSEm2JF943nckH3ojFdFIgg8++NqnDtodVbhiBt/FVJgU0wBCKRnGRKXZy4QwmI/figODUkCA2fkBSn4wurgxGv+YCyOLC5Nx47f8+w0UFP8khTjkQ965SY9/cQALSfTUU6vbddd/uY8fbSkDYpUk3CjgxSsNZZYXoK78+K0MJpOkwZ/w8iGtyiupJu8aDcejbD4w7quKK7AUHZjsxD9qJz5dZuVDN0ODmsiSpjIKo1HwW54BGC0pZUcf0nHhwszGZmZyWySWM5VTslSwK99os3zCKdmWNj3S9pk2K8sTrpjfkUaL3yn5xozWAx2OZVoKsFsGk2FCJxtMW6KBfaNOVUh7a4BPNDixsWTx0e2BB+9r1+WawhOXntjps27N2p5f2+OURd7Hhdm3J04TNsak0us6eZiaRoPU3LAme2uT+Iwc1J0xPU+sB1A7x29p61IWx6jue+DBdIG9Xz+uH9daZJNHuqFrnnkqu3RSb5mxdcu4tc45oS1tiWJS8u1M4yQAze6diJL8C4/nn/qZlHJ0m+Sl+F5ZuaHDIL46Bjv9BxsN49A4sjwoCIEHITACUwUXcVRkgVCitIwgPP/FjBIqyYV5C9TstNBabXEtXbq0+yOlhAUKjC0PpIvxEW2NzvgQQ8sLhgQMEx3Lli3roJMOd8yH+cVX+WOSlCSha93vuOO2PlYjUeVdWN1CeZM+QEqfvbQwtrzq0tmlo0toxpMb+lSeAaaACTjCkYa25gGC8OiEhtwwqd8UWrOT77L3LU55UU7LDCZl0IlWTmHk27e0/ab8Fjfa1la2+fOPyE1mx6Q+Mv6eNb3XgfwX/aeke9YX38Mwu9NNBLjwaoA2sFagkK9sVcv1E7tCU6t78pjV937z9Z4JkY6RTtWTODLXJqonkmF6pNXidLvXBgTGyQ9n8gY95uQe0g1rx9aG589LCkk7XdAk3k/Q96fbLGNE74r9Nl3jfE+emX2oAfs4p0AyKN2ybVOWTra2ZwJOu4r25N03rwJvzG1vp512Ru4Tndd3A7m+f2IkVt9+FmluyUZPo/NMUq/jXhMz4WTmFn/0txeVM2pLzlcGbrLXy87d8wrFb73no0H6GmqI6Wt4wCAYklKJWldMgbBMahSAEqdLEjAxjkLRmEUhmSSBBWdT6yrHLBqpIuP8SgMzAhrGkA+/AdA4SHcMc2/PsZonckHRhz70wSygXx0/1sfMdpogMTY1IURKahxMKLkmb0PPPzBhaMxMWhWIlBvoKPmXLnd5UG7dJ9ITyAFRtxSwNDDKpgzi0NAom/wr30c+8pF29dVXd6AAfTVIBT70YsekTPaghfjKXh5JbHSz3GC2VTnkTZ7RVx7Vi+/Kv/RWZMsemsuri3yNsXaHPrsziYIBpaGcG3M3DAA65Ls73c0t9mJmU/TU/B4fcO7IOGpXELk1gIqsDgjTyIVRgYDkGx/TqXsTP2tymZPT9sfmLtINa/Odck1Bp8yQHn3Ukkibye2Ga29oK+5/oIPTbhrMPy6cPT50cHN2Ih106iKOvbu8O342Jl+7YuZy1FzdBJTh0/zenbS3RdJdd8MtXU+I3cxIyROWndwl5f33r8hGjRvTBd6QsluS0MsxXh4ApO56AxoaTOoPmkbiZWP5RA3RhPTK0g2n3Zs6IZNX4/OEwISMQyeENhN1ZYWLTmyRiPtg1seLvRELMMdmWve59ip/7p+SHlp5lYnBVDSmwDjcqVEg9tYiLUIxlHCYETMBjokH4LFOhRlsbdOqMzGzwgMy8GFCs5n1m3+MhLG14BhQyy8NecSUZkilxa+8yhvGBST5VgaSV/eLHxoIi3H5I0HkQ/rCaBCUR3zKJw5roMIaU9oZZOaRwsT8Y2jAkC9gUDZ+NTQUUMibvBfIxM2Oya7yxD8alD97W8VJqrnHR5zcNQryL5/ilRem/CoPfxqxWpN1Tb0HVWzItlwxK5cBc9PI2XOpa2X20PsT6cznlrT8zmm7nelq7srM4NbUkW7gbo3GGFAy4d/Hbc4cur1butPCyKTfdtI9/h1Xmj09p1HmLsjWt6PaQw+uyE6iQbJXXRqzmvzpfV+MHFDqZpKCZZKAGci29VnueCp1YWJnUsq+OhN2n//SNe3aG27MzXGLU/5MxMx0gmaYkLrpxlv6cSz0Un49ol6vuY1tTnh0RmZvZ+UV581Z4Lc+umV7JPrWHHPKIeFNuSxqY/SG6D1pQPbp5M3ETepuT3QqpM/qprjPAqK6LGV+66DdURWLKCpVtxFTUZi4Wu8CIJP/smdWi455gEpcCqvw/Bt/XHvttX3G00kDXS1jJkxjyQFDAaFu6Je//OW+U8RiPElgoRqDAyFmtX5pF43N0gACBAAvTe7ioilhHs9khE3SKwLqV7ziFb37Kv/yJQwgyTemxOz2qlb+pWsHkNMUv/RLv9R+4Rd+IZL4Q30ddWmkEncNjnyjmxMYlhIoe1N1S0siypN4KaCRvkYAnQAV7bXM6KdMxnvU93zP9/SG63d+53e6f5sehK2us7oy+YPGtsrZjA5c4mKvARvelMjMrMmT7BslmTZsuq/ddcedYd68ERGgpxoTb8aXeZxza7psuyI1g8TYZ5Ikbr2lN0MYcOzKeE3eNU7qWNoa4JmZ7CC5l2YWm9T1BmE//Z6N4E7pO1/oLcNrvvjlXu9Ljjl6kOyZJbdmOYwDIz36eDANQuwmoEfiJv12BXyk0Nqke8e997VPf+qz7TOf+VzvbZ1z5ln91agUfOhxPZD9vAGYjfAPPPxgm5Gb1dB11vxslVw4v02bm9sOkj9jQfZ28RgzTkqjr07wSArtf7riGok0msRZTE6Z10oD5ne0H2OKf0st8RYnXVSB/gYgJEEQFdMay2jNAUDmuBXIRIYBShcYZRrzMEsy8gNYlG1XKktraX1POtz412IzKXslaVLORISdLkBhgRnQzLKJC9hcsfjnf/7nXYotW7asS4ySKhoG6RlXfuW2WyIZHulge9Ob3tQX++VD3jUymMfsKmDbrC2cxoE9AJqZxGQ/+ZM/2TdqfyYnOH72Z3+204A/5ZUvSnwaDXtk7eaxjskdyIAdjeQdOIuJgZO9vPvmXiADMFvlAN0GeWnbhWMfrh6GuIXR9ZRHG8mVeenSpZ35bDKQji6oKx/HZVxkCej4pcf2U/O3331P+1LoeOkrX9XP503M7KjyC+OKhzRVCWdMGI6KFt60TH/ZKFJpbSQgIG6Mtrl7ZhqSlQ8/0k5ZdmLv/pIA00PHndkwMX1KtrEtO6E9+PBDubT35t4gqYNJsddgjM94LiPnpJHxccaZLrvZ4+FQx7Bybca29YYpmZzJ3ta77r63j9HXPLOhHb9saQ4OD3tm5wbsq9MIrAnQHSY2XzBt5uS26qlcszI58e6KdNu6qT29PheXrRxbBUh6W3PkCg86YVINsPtOAciSiAbIBEwmVTvfGFtaOpmQsPHRLrn4wg63gUoJ9iwViiV8jlENY7hy8xu4FF6Laiyj1dR99BtDYDAKg1AYQ7hSfmN2WgFojKtFx+SYSWuOMaVz+eWXd2YBcF3SYkrxSVN+2FGA97a3va3vM5X+448/2ePRkltAPS33VQKmeDCBvMgzTUmfFqf8eQTEHk2AQmRMhnnlS/7e/va3d+bD4Lq68q0RMCZkKpf8AyWAmfUUh/GfLrH8ixcw7BkVZkUkr7SZZjc1aNIUF3/sKeF0h8XHP2BR4vRbXJQyKm9t6jZBJSx7IFdWtNfTIC3tLBIv+m3J1RKz58zs3U3drUULsoH9+DB+upZPrH66ffLjn2hH5iJe5Z2XJQV1qS6Gx0H3vbyr64muW2Kq39oGtjDxaVif3LAxPLQ4kjLLSrncaVxEwuaMx+ZF0j6TyZnFueL+mGOXRBIfmbXDW3rP6NTTT8sp+DWdLmYtlduGcmXfnjSk465RPOo+U+k45I0XZ6ary99ticvFVJdcdHFuDMglVvFv1nNJaLd+87q29ITj27W3XNsvPv7qg/e2p9Y9HQk8zHcA+LCAHyKH1cVnxjcfw3esrSOquz2ZzUXvqbkpYFbqfXZ6QtNyJvIlp5+a9HI9Zbri3HpE+Wunlh6FM5BZ4hDzPqViigmZumLGX7ZbYRZdPov0KkLQAmJ9++27NAaSOUp8KkqLWq2qeLT+1u5o370FTbeMX5KvQGQMZAeMboQK4X7SSQFdmFM8KoWEoFWMvIiTv+oeqSD5NxNn6eLss8/srSLA8ScMhmUKg+kwNzdlopgkp/JIk39dTnTSDa38KDspTZHu4kNPPQob4W1gf+c739klJGkF+OjMz//f3t31anVUcQDfpwd6OIeXAqUItjUQoiW+JI16Y220hi/ifZN+l34LvbAXxuiNF5p4aeKFiUZrTOOFWooih8OLcEpdv9nPH6abBzbw0DZSBuasmTVrrZlZs9bM7NkvD8fWBvWrQ5RXNzrtIV//0Ejb7nkw3vWtcn2FN3E4BDORah8Z8A4ibLl266vWdU+7DLsOn+ppGD+o8vfzHwwX65Tyg2qXH+D0jGg7Ra1rpQMH6pZF6ZwcE4c3Ejj6+AOj47ZfW93Ut70+Xnr+0skX2yfsN+qa0gu0+Qk1b9Dv1irkft0zZawOcv55/v16APy99kMvXrzdKP1qN0dUn6do6F68Uk/uePbbVs+D4Wt1rUnGtZ3xnrItLx29+vVv1EMc3x6OH32+Pip8cHih7h2ev/jB8I/tC8OPfvLj4W+16zp8/MRtnemfe5T0zvGaBVcl7Z5fjaf7hlZzenGz0M18OD7CCQ/UAwmbtZL//Gc/rUWhntmtgyEvKlvTheaEtXo7dGpPzMRJFEonGkSGb+nmfAY7gSGIaA2GKMjHWOAyIyvTMTJFafwMmEPZVrltwJkMHIPmTFYXeU5LIdKuDbXFgMRJrQoGCm593dsS+xv/iRPHbzvxqNhx1dYuET25nFYd5GofZSpTn1XA6q9v8AyY09gGWvHefPPN5mwcTZ/IIxu0GuoHPL3oK+Mx2XAM+lUPKKhLO0w86tAWfOHXhrQP5GCg8sjxXGr6Bi+qU996HeypPRTnSSBHvcZiTx0wHKl3NV+oCetSrTD/qk9eXNrZHi7VyrpdK5cb0UI/9pxDHT4zoR5bs7OvfLm+nFY/4nmoPj9f+Zu1uuzWIQfPsYXzy05rddroV3R3rtWTLnWiePbsV2qS/GJ9DOp8m7h8mc0n+s+/7+NQ44qjf3vqKRe7H+NxrQ5POOFz9Xzq8eNfGM7U1wH2bx3UwOFPf/jj8Pvf/XbYvXZ5OPe9N4aj9Yn8q9sXh1fO1C2x2o5+/7XvDhfsDmr8Ys/Plh5sOemkwXLD9g5kg7aaoxOul9kbH9HJp3Z5D5NdW/kceInk9sGpaU5HmxMqDBEojpWPR+RmcINFsZTOEKV1HhQ0Al9gBid5ZXCCND6GAYrBaTxnYpSpkyOoizFxFitFDNw9Jo5r9tcuqxyHOXXqVFNIts7qVp96GCs8h8gJJZy643yUyaDg0m5tYKRWTc7n/qDPSnAm13smEe3jjOmb/mqrrRJZJhfXrE6D0VvZ1akujsnx6Exf0QvSQq9L/cCjnVa9rHxWd+3VVpE+tEm95NA1PjrTJjrYrVXIx31d4xn3rbq94zDCBOKFZ19Ce+nFk7cnyPZ4odWr6vHNUitGMTbZruN8vImeXBZYfXfLdm7W5+U9xlabr/Z2wp5aUm7VCny9TiXR7q/LiYMHx/u57jP63Ql24GDrhpWttpEms+3tcYLe3rncftD02frO6Mnq88n6lOLJl16sSeNkrZwe/hhXS/340oljwy/ri+Hv/fXd4Rc7/xlef+079Zn9s8MLR7427KnH7A6WDvxK8KHq526tat66F3yU6vl6vJGuS9tt10A/To1dF1r5bDM9umZsBE/csKUNeqgtfdN3+Z+nfoTxb0uOckvGXU6oWEUxPGmCDLZgMOMA8gYUrYb2MI2KAaFFE3mhp2gGZPbndIwXrzpEBqRT4WVYjMeAoOMAjt3hOeJ7tY2BtzKq2wmg6x/GyTkYnTaoS3utJGDy2slAySfTtjVtJU9Z2maryVFcLzoUEkweePWJcaFVLz71OKV0r5DerPKnT59uqy1aujDhKBPx0n0ch27IEKWTx8uR9TttBPFnS60N0as66Ft+zSy9O46dvH2dWd4N8I/21mtf5ZBkbRTd/rqWer6uH91rdapqG3jLuDcnXlyGlMGVettzpFU0XKit4L46VbT93LdZE0DJ5hi2ZhtlU+yKfNszzufXfq9fvtp0eK1uD7QJuKCx0J+tcpZjtcpt1UTop86O1g/UOFDy1sZmbZM9LbPV4PiFvH9fvFAPnB8dzrz8w+Ev7/55+M2vf1WOenj4wRuvt4n4yEdHhpfLgf0WhTdDfK7DgYuPF3uBmZPF9sbPZNTYlAOK8JzRePgFJ4Ft6dPeGr/qfp0oe4dxxI9uCssXKKkl7zghQYSOBHdWQgNtkBmCYHY0WPIMMAbaGmJQS0Yb3IJwjEmQFjRSSF3yDAjEh45DMFqGbHsWJzUQ+NByTIOi7NSpUw1vZWFcmSgMoOsk12uO5vFqM4PkpLZdHEn/ekPWDv3kvIxYffg4sDKBoj1r6qT4nXfeabLydr12ckZ8VlrBtZrvxjhl1Rafwzh37lyrw6RCn718euDMZAggXcJHT8YmRixNH8roU3/018oavugLRLPPu4JONWvYm1yG5OCh3LBqaY+IeR/ArE6WDzLRt2c3/RiLzw2u18PfVGL1uMkxK+Ofz9K7gNpfD0m3E8OqZ628Fq/firhyqaqpm9Vbm+MbKHRgJ+D6cqtuZ2izl4d9g8hYHKlbCibMQwcPj3ZXTrJe/M/VF9l8Pt/uZMNN89qSNl0VJGOj3pe8Vqeee8vBjx05MLx88tjwrW++Wgcz9a5mvWZ168Oa5MrRnq0DnVrShr3V7L21gtProbIxeh1/m8J2sw7H7BZMJBXppG3L2bZJpIKTUt+wWeMvNWa2/AJaOm48Czr5dm1ZBl9849YmBJgQJGoII9E5AxiDgA9NYBuEGgB5IQbT40OrnMGGRv2iOjgTRzQAbabU4KpfWhkD5axpF4eTBxkKRxRAePRtVq368GQ7SqZ0G+CCjJfDcSJOKOqnQbZSMV785Lrgtwq+/fbbbRU2YXjfUpuzlcqK49TUvUbbKzfa33rrreaEJgL9VEf0q48CSDdgcPQDR2/6RZfK+rGQpwM0ZEev4aVfvDdqK+jNh+u1VbxxrXYgxWfbxSs/dNhQ20fOsVFbUv3e3TU5lt6Lz3dh9tYTJEP9ziDadjhTzuXT87fqNX11fVROwhGu1Cnolcv1Ffd6KsVhRjHVj8yYNDyHu90mMJNq+uMpnbyPePbsVzG0dtH7vn3jZGjC2leTw/qag7HxsUb3Hol37eapnT212hq3tXIuDu4k+Mzp07V6Hqq66zT3cv0a07qnkcYTbLf0HFLdKHq3Q/A3O65+2E1qO6eRXi9nNXnt2aynd/Rn4S/6XduLtlKWElrb/SmJC58YnbKy/tP2sFYDVW/oj7NsE4BjEVoDFumUwTECgy4anDQgZXEqrGTDo4Xvy5S3GW9hZOoIPUMRKZ4hMyzlcShyDByjZvScIrLiJAbAKggvMEwrWxyWDHl48s1+HDCOhs81DTpOJcKB0Zk2GmDPJ7pO9DElbSJT0DYybZttbd0KcbLKEdHgtTJrP1kmBFA/1WUloz9Bv+Dk8aJBK6/92T1or76MjjM6MIfEAxoL7bflunx1vN6/2Q5Lymnqprzgo8Bk0vHl+kDyTjnLjboOJNe1ntNAJ4NXr1Qb6ppNWzjz9XIsfB/WqqpdO3V66fRQm2pH2yY5WzyPremL/tIPnRovDsjBNjfHE1gvAgvNAcq58EQP1YU66SwnchO9dOM68L91mkpbPjrs5V3Xr3gO18HQzpW6Lq9J1m9rtF1OPZq3uV71PMORanIrV2nvL5ad7a2nqfxMuD6pW19QuLVixRzvXdbKWdvY4mrlaKoJRVdb0YUDapeA2zYXvzoWxaMTlnLGEW6kd/8h+H6BcvvQ00sbcCH4wPD05cpSHshwpNWTGIeGZ3jBG/xmAFUnGuXhl095aPBZzVLGQBkTGBrtjMMZ/GaEC2eAl+/bl7aRHbzVjgPmtggjizOBCegT4aTTfvLIjnywL0/fOGXajscEhi68KbvNX/f10DX+un7JBODmN5rRaQtfp5q5FwhnJUGjfe1gptrLKWzPGGCie8z0ZoexVSehJiW3DTg3vAko+h11O77SRS/w6MCRZnHQsSjznCdZtoutvJzJxBJebeDgwugU4wrdtoALL/C6Ugu1Db9VK95IV5jqh0DWbVw5YS1XJaxs3rbdClltu9tDKGJJoBvE8UAkNTa1dV/NCQ3wKOtOU4KDN7h9SFkgAxDkg+vTDEFAJ8qDoQk+ZVMjY1ShaYa2cNTgIg+dOBrYmEZjhYrs0IDhQ2+QRiO5YwDy8CYJhtRm+ZrpGQXjU6YPjHDa7+T1G698397UHbqUw6f/obcTSHn6kTJ4J81gePWtl2Gl1hdtFjMJpQ9xJlDfTDAcjdOhARkyPiuzPCgPL9BF5AfGkcia6jdl2hU9J92XRW7qkJ+m8QXXw4asP9qTEH75pANDcz8Y2kC0dL+yE0ZQKic0QdqAC1N8aPry0IBJU2ryMR4wOB2ShmNIiaHpYYwrNPjwo4mDZouHBl79KWegKUcPzwn78jhqypWJkSedoG7yhPQHTB6cOmHkRY76Qg8XXSyT18tOmuNoR2/EMWT4OBmnkU7kSOg41ZSX4cLhxxf56BNTvowXPzp80j0/emXhTz8ip4f4oidpUejT6BNSHhow9dyPJmVzMPID0Wv/rBPOCY4SQtfnpRPvVQ4fnp42OAoPfgrx9oYnLTL40OqwdPA9hO+dI44IRka2g2ln5ILBRSa+6UqCJnhl5AraJVophV5e6mgFi7Lg1CUNPkhoBxMT44sRgNrE0Bh7ViswjqAudMYhuEB4tIJ0Ygw75T1eOoYt7ZoQJL+PoTFJ9TzwieoN3ZRGXoiekgf7NJrkl6V7+mn5sjxcH+gvIfUEwiu/s9aG8iFhL7BnzeAp7xsyTfflyhLJ6tOpp6dHYxBC1xtocHHilMXpUt7zK0t56DkQWvlpVD8jiawpVA4X2JcHZ7u3jKYx1Z+0L/RTGdqUQDeJwVmxggN7o00+tKGTlxb6lQwvfYKRM14T3nHSOCi6yA9cxt+3L7IDwwfeL2pnXy6fkHbKT2nk6RNMmEv35eFZFc6uhA9TaYxJo/p0Gtnjko785MFEfFk5IiP0yRswITw9hDcIQpxKedLwynueadpKFZ6pE8K7ZgG1M6tgVtI4SAxB20OLRjkjhxPAxOTT/tA0wsUfuGxnoXrd9OmUwYmRKZ2VbJl8fHHCqYzITzmZ04iHXtDGsTgpOnn4e610ylJHD/s0+fQoBN8yXb7vK5rQBabfyS+TNcX1tKnvXjA20Mvo+dW/8krYVx7hBCcdGNy00305WcpDk3RolsHglvHCpTyyeqg8Tt7TwSfEyZMPTBtz+oiOgU3lMxKye/kGRr1o55ww/Kk3MPLUmZA2BcJP+wcXXun0Dy5OlLTynC6mX3B92sSDnpzoIGn4lEemOpImK5NAcGAf+/7BT8MyHJroIPXBRW7SYOikhcgL7MuDGykf39/HuhL2zUrjpw0PPjAzFV64xD4vTU4fg+tXgvCACamnh8vSob8XTLumcEof2cEnD0YXMQx59ywTetlw8hw2fHBJB8ZIe97MvnAOUhLkE5KOE/T8SYcWVF/fbnkx9Yem55GeK89KGXk9xN/bh3wftNN2Nn1RlnQgHJmBkd8Q9Se66mlSBkZOyvuyB0lHPtrICIQj/65XmRQ8zpBO3Etm36B70dwPPyd/1fJsd+7VhrnyfhCWyUj/087A0M6tZFP68AVmpUt+ClP/FJ/8XHmcOPRTOMc/176pvIfNz9U/V/6w9T0K/Z29zKNwfw545gbpfjP1g6inl987VJ8mp6fr01O6aZ1z7etlTXmn9X4S5ctkft5wT51wZsTnjLTfbi0T9aArYXh7p5Lu82j69khPyyMnsKcProdzTtrTLkvPyZ8rXybz84Z74p1wVSOY45/bTj2qE8a5Ahlm2hII15fLT0NPOy2TX7V8rn/L6uxxc/X3tE9q+ol3wlUHbs5I5srnnHRZ+3rH6tN9XUn35ctkhW5Z2ePAza2kc+17HG34f5fxxDvhqka4Kv+jGIg6Y7x9/X06cpfhUvZpwFXrX5V/ro/R4xzdZ1n+xDvhqsr9pI1k2r6p0cinDX06fFP64APDm/ynDT/r+j/t/j5KfU+d8FG01vHMOUFHujQZI+3l9GlMyaPt00sFTpChn6BvZ1P/bcQksSr/RNzT7BINrHyfcG6QltT5MdSqRvAxYUsyq8qf4++rjC4Clc1dM/X8T3o6egl8qp9xxP8HXr+WequwuGMAAAAASUVORK5CYII=;" vertex="1" parent="1">
          <mxGeometry x="580" y="480" width="90" height="90" as="geometry" />
        </mxCell>
        <mxCell id="LfRqxSiJlln_DhOymT-F-9" value="" style="endArrow=classic;html=1;entryX=0.5;entryY=0;entryDx=0;entryDy=0;exitX=0.75;exitY=1;exitDx=0;exitDy=0;" edge="1" parent="1" source="LfRqxSiJlln_DhOymT-F-13" target="LfRqxSiJlln_DhOymT-F-7">
          <mxGeometry width="50" height="50" relative="1" as="geometry">
            <mxPoint x="490" y="440" as="sourcePoint" />
            <mxPoint x="540" y="390" as="targetPoint" />
          </mxGeometry>
        </mxCell>
        <mxCell id="LfRqxSiJlln_DhOymT-F-10" value="" style="endArrow=classic;html=1;entryX=0.5;entryY=0;entryDx=0;entryDy=0;exitX=0.183;exitY=1.022;exitDx=0;exitDy=0;exitPerimeter=0;" edge="1" parent="1" source="LfRqxSiJlln_DhOymT-F-13" target="LfRqxSiJlln_DhOymT-F-4">
          <mxGeometry width="50" height="50" relative="1" as="geometry">
            <mxPoint x="440" y="430" as="sourcePoint" />
            <mxPoint x="490" y="380" as="targetPoint" />
            <Array as="points" />
          </mxGeometry>
        </mxCell>
        <mxCell id="LfRqxSiJlln_DhOymT-F-15" value="" style="shape=image;imageAspect=0;aspect=fixed;verticalLabelPosition=bottom;verticalAlign=top;strokeWidth=2;image=data:image/png,iVBORw0KGgoAAAANSUhEUgAAAIMAAACXCAYAAAA22ujrAAAMYWlDQ1BJQ0MgUHJvZmlsZQAASImVVwdYU8kWnltSSWgJEZASehNFagApIbQIAlIFUQlJIKHEmBBU7OiigmsXUSwruiqi6OoKyFoQca2LYnctiwUVZV0s2FB5ExLQdV/53vm+ufPfM6dnJncOAHrtArk8D9UHIF9WoIiPCGGPS01jkx4CHcAEusANMAVCpZwbFxcNIA3Mf6c31wCini+7qm39c/2/kqFIrBQCgKRDnClSCvMhbgIALxbKFQUAEEMh32ZqgVyNJRAzFTBAiGeqcbYGL1fjTA3e1i+TGM+DuAEAMk0gUGQDoNsC+exCYTa0o/sQYjeZSCoDQI8JcaBQIhBBnAjxsPz8yWo8F2JHKC+HeCfEnMyvbGb/zX7moH2BIHsQa/LqJ3KoVCnPE0z/P0vzvyk/TzXgwx4OmkQRGa/OH9bwRu7kKDWmQdwly4yJVdca4ndSkabuAKBUiSoySSOPmgmVPFg/wILYTSQIjYLYDOJwWV5MtJafmSUN50MMdws6TVrAT9TqLhIrwxK0NjcoJsfHDuAsBY+r1a0VKPr9quVbVLlJXK39GxIxf8D+6yJJYgrEVAAwaqE0OQZiXYiZytyEKI0MZl0k4cUMyChU8er4bSHmiGURIRr7WHqWIjxeKy/PVw7ki5VIpPwYLa4okCRGauqD7RIK+uM3hrhOLOMmDdgRK8dFD+QiEoeGaXLHWsWyJG2+2F15QUi8VrdbnhenlcfJ4rwINd8aYlNlYYJWFx9VADenxj4eLS+IS9TEiWfkCEbHaeLBC0E04IFQwAYqODLBZJADpK1d9V3wTbMSDgRAAbKBGLhqOQMaKf0rMvhMAEXgT4jEQDmoF9K/KgaFkP9pkKt5uoKs/tXCfo1c8AjifBAF8uC7ql9LNugtGTyEHOk/vAthrHlwqNf+yeNCTrSWoxqwy9YbkCSGEUOJkcRwohNuigfi/ng0fAbD4Y5zcN+BaL/IEx4R2gj3CVcJ7YSbk6TFim9iGQPaof1wbcaZX2eM20ObXngIHgCtQ8s4CzcFrrgn9MPFg6BnL8jlaeNW587+N3kOZvBVzbVyFDcKShlCCaY4fqup66zrNWhFXdGv66OJNXOwqrzBlW/9876qswjOUd9KYouwA9gp7Dh2BjuM1QM2dgxrwM5jR9R4cA897N9DA97i++PJhXak//An0PpUV1LpVuPW6fZRuwYKxNMK1AeMN1k+XSHNlhSwufArIGbzZcLhw9jubu5uAKi/KZq/qVes/m8Fwjr7hZf7GgAfc3h+ir7wRDMAaLgAj0z9F559Fnw3AuBor1ClKNTwcPWDAP8N9OCJMgEWwAY4wozcgTfwB8EgDIwGsSARpIKJsM4SuJ8VYCqYCeaBElAGloM1YD3YDLaCnWAP2A/qwWFwHPwKzoGL4Cq4BfdPB3gGusEb0IsgCAmhIwzEBLFE7BAXxB3hIIFIGBKNxCOpSAaSjcgQFTITmY+UISuR9cgWpBr5CTmEHEfOIG3ITeQe0om8RD6gGEpDmag5ao+OQDkoF41CE9EJaDY6BS1CF6BL0Qq0Ct2N1qHH0XPoVbQdfYb2YADTwViYFeaKcTAeFoulYVmYApuNlWLlWBVWizXCX/oy1o51Ye9xIs7A2bgr3MOReBIuxKfgs/El+Hp8J16Ht+CX8Xt4N/6ZQCeYEVwIfgQ+YRwhmzCVUEIoJ2wnHCSchKepg/CGSCSyiA5EH3gaU4k5xBnEJcSNxL3EJmIb8QGxh0QimZBcSAGkWJKAVEAqIa0j7SYdI10idZDekXXIlmR3cjg5jSwjF5PLybvIR8mXyI/JvRR9ih3FjxJLEVGmU5ZRtlEaKRcoHZReqgHVgRpATaTmUOdRK6i11JPU29RXOjo61jq+OmN1pDpzdSp09umc1rmn855mSHOm8WjpNBVtKW0HrYl2k/aKTqfb04PpafQC+lJ6Nf0E/S79nS5Dd7guX1ekO0e3UrdO95Lucz2Knp0eV2+iXpFeud4BvQt6XfoUfXt9nr5Af7Z+pf4h/ev6PQYMg5EGsQb5BksMdhmcMXhiSDK0NwwzFBkuMNxqeMLwAQNj2DB4DCFjPmMb4ySjg0lkOjD5zBxmGXMPs5XZbWRo5GmUbDTNqNLoiFE7C2PZs/isPNYy1n7WNdaHIeZDuEPEQxYPqR1yachb46HGwcZi41LjvcZXjT+YsE3CTHJNVpjUm9wxxU2dTceaTjXdZHrStGsoc6j/UOHQ0qH7h/5uhpo5m8WbzTDbanberMfcwjzCXG6+zvyEeZcFyyLYIsditcVRi05LhmWgpdRyteUxy6dsIzaXnceuYLewu63MrCKtVFZbrFqteq0drJOsi633Wt+xodpwbLJsVts023TbWtqOsZ1pW2P7ux3FjmMnsVtrd8rurb2DfYr9Qvt6+ycOxg58hyKHGofbjnTHIMcpjlWOV5yIThynXKeNThedUWcvZ4lzpfMFF9TF20XqstGlbRhhmO8w2bCqYdddaa5c10LXGtd7w1nDo4cXD68f/nyE7Yi0EStGnBrx2c3LLc9tm9utkYYjR48sHtk48qW7s7vQvdL9igfdI9xjjkeDxwtPF0+x5ybPG14MrzFeC72avT55+3grvGu9O31sfTJ8Nvhc5zA5cZwlnNO+BN8Q3zm+h33f+3n7Ffjt9/vL39U/13+X/5NRDqPEo7aNehBgHSAI2BLQHsgOzAj8IbA9yCpIEFQVdD/YJlgUvD34MdeJm8PdzX0e4haiCDkY8pbnx5vFawrFQiNCS0NbwwzDksLWh90Ntw7PDq8J747wipgR0RRJiIyKXBF5nW/OF/Kr+d2jfUbPGt0SRYtKiFofdT/aOVoR3TgGHTN6zKoxt2PsYmQx9bEglh+7KvZOnEPclLhfxhLHxo2tHPsofmT8zPhTCYyESQm7Et4khiQuS7yV5JikSmpO1ktOT65OfpsSmrIypX3ciHGzxp1LNU2VpjakkdKS07an9YwPG79mfEe6V3pJ+rUJDhOmTTgz0XRi3sQjk/QmCSYdyCBkpGTsyvgoiBVUCXoy+ZkbMruFPOFa4TNRsGi1qFMcIF4pfpwVkLUy60l2QPaq7E5JkKRc0iXlSddLX+RE5mzOeZsbm7sjty8vJW9vPjk/I/+QzFCWK2uZbDF52uQ2uYu8RN4+xW/KmindiijFdiWinKBsKGDCy/t5laPqO9W9wsDCysJ3U5OnHphmME027fx05+mLpz8uCi/6cQY+QzijeabVzHkz783iztoyG5mdObt5js2cBXM65kbM3TmPOi933m/FbsUri1/PT5nfuMB8wdwFD76L+K6mRLdEUXJ9of/CzYvwRdJFrYs9Fq9b/LlUVHq2zK2svOzjEuGSs9+P/L7i+76lWUtbl3kv27ScuFy2/NqKoBU7VxqsLFr5YNWYVXWr2atLV79eM2nNmXLP8s1rqWtVa9sroisa1tmuW77u43rJ+quVIZV7N5htWLzh7UbRxkubgjfVbjbfXLb5ww/SH25sidhSV2VfVb6VuLVw66NtydtO/cj5sXq76fay7Z92yHa074zf2VLtU129y2zXshq0RlXTuTt998U9oXsaal1rt+xl7S3bB/ap9j39KeOna/uj9jcf4Byo/dnu5w0HGQdL65C66XXd9ZL69obUhrZDow81N/o3Hvxl+C87DlsdrjxidGTZUerRBUf7jhUd62mSN3Udzz7+oHlS860T405caRnb0noy6uTpX8N/PXGKe+rY6YDTh8/4nTl0lnO2/pz3ubrzXucP/ub128FW79a6Cz4XGi76XmxsG9V29FLQpeOXQy//eoV/5dzVmKtt15Ku3biefr39hujGk5t5N1/8Xvh77625twm3S+/o3ym/a3a36g+nP/a2e7cfuRd67/z9hPu3HggfPHuofPixY8Ej+qPyx5aPq5+4PzncGd558en4px3P5M96u0r+NPhzw3PH5z//FfzX+e5x3R0vFC/6Xi55ZfJqx2vP1809cT133+S/6X1b+s7k3c73nPenPqR8eNw79SPpY8Unp0+Nn6M+3+7L7+uTCxSC/qsABgeaBe8IL3cAQE8FgHERtgnjNT1fPyGaPrUfgf+ENX1hP3kDsLUJgMS5AKiv5pvVdxCI9YI174nBAPXwGBxaUmZ5uGts0WDHQ3jX1/cK3m1IjQB8UvT19W7s6/sEe1TsJgBNUzS9ppqIsDf4Qd0TgWvbFw74HyRNH/pVjt/OQB2BJ/h2/he04oY5v3YfqQAAAJZlWElmTU0AKgAAAAgABQESAAMAAAABAAEAAAEaAAUAAAABAAAASgEbAAUAAAABAAAAUgEoAAMAAAABAAIAAIdpAAQAAAABAAAAWgAAAAAAAACQAAAAAQAAAJAAAAABAAOShgAHAAAAEgAAAISgAgAEAAAAAQAAAIOgAwAEAAAAAQAAAJcAAAAAQVNDSUkAAABTY3JlZW5zaG90jpQ68gAAAAlwSFlzAAAWJQAAFiUBSVIk8AAAAnNpVFh0WE1MOmNvbS5hZG9iZS54bXAAAAAAADx4OnhtcG1ldGEgeG1sbnM6eD0iYWRvYmU6bnM6bWV0YS8iIHg6eG1wdGs9IlhNUCBDb3JlIDUuNC4wIj4KICAgPHJkZjpSREYgeG1sbnM6cmRmPSJodHRwOi8vd3d3LnczLm9yZy8xOTk5LzAyLzIyLXJkZi1zeW50YXgtbnMjIj4KICAgICAgPHJkZjpEZXNjcmlwdGlvbiByZGY6YWJvdXQ9IiIKICAgICAgICAgICAgeG1sbnM6ZXhpZj0iaHR0cDovL25zLmFkb2JlLmNvbS9leGlmLzEuMC8iCiAgICAgICAgICAgIHhtbG5zOnRpZmY9Imh0dHA6Ly9ucy5hZG9iZS5jb20vdGlmZi8xLjAvIj4KICAgICAgICAgPGV4aWY6VXNlckNvbW1lbnQ+U2NyZWVuc2hvdDwvZXhpZjpVc2VyQ29tbWVudD4KICAgICAgICAgPGV4aWY6UGl4ZWxYRGltZW5zaW9uPjE1MDwvZXhpZjpQaXhlbFhEaW1lbnNpb24+CiAgICAgICAgIDxleGlmOlBpeGVsWURpbWVuc2lvbj4xNTg8L2V4aWY6UGl4ZWxZRGltZW5zaW9uPgogICAgICAgICA8dGlmZjpPcmllbnRhdGlvbj4xPC90aWZmOk9yaWVudGF0aW9uPgogICAgICAgICA8dGlmZjpSZXNvbHV0aW9uVW5pdD4yPC90aWZmOlJlc29sdXRpb25Vbml0PgogICAgICA8L3JkZjpEZXNjcmlwdGlvbj4KICAgPC9yZGY6UkRGPgo8L3g6eG1wbWV0YT4KdxrYUAAAIUpJREFUeAHtXWlsm0d6fniT4ilSt2RZsizfV5zEOZw7m81uum26u2236HZ/LLZdoAWK/mj/t0D/dIGiQIH+aYuiQC/0yGIvbNPdXJttnDiJr9ixLVmndR+kJFK8D6nPOzRtyxYpSiIpSvomoUmR3zffzDvPvPfM6JZZUFVlGZlUgq8o0olFRALDCE7eRHDiOj8PIBocB6TJ1dZs0lCnN8BkdcHh64Sz6TA8bSdRU9sOi6MeRosdeoOFL2NVUfv+xuiqCwzLWMqkOeiDWBi7grnbnyIydxuJsJ/giGMpncDSUroqgaCIqtNBp9NzwM0wmKwwmO1w1O2Dp+U4vB1PoMa7Fxa79376V9XnKgHDMhKLM2rgQ9O9iAaGECZHiBIIqXhIAaGqqFZsYwgOc40XVmcT7L69ChiO+i64Gg/DxO+NZluxNVXkui0FwzJnucz4VGwBwanrmBv+FP7BjxBfnFZcoCIUqOBDrK4mJT4au1+Eo6EbNe4WihUndEp06CrYktUftaVgiIdnEZ7pw1TP2whN3kCM+oDoCssUFcvLS6u3eBt/q9Mblfgw2dxwtxyDr+NJ1O17hjqFj6LFtOU9q7g2s7y0pBTD0NQNKoWfIzR1E6GZ3qxekIxuOUHK2QDhhOlEGGn2c3kpg1R0QSnIomi6m49Sn6iD3mguZxMK1l1BMIhymEIyMoewfxAz5AZzoxdIjKFqNAwKEm3TP5LrxUNTSk8KclIojkiAuKloWp0N1CXsNE0qLzYqJiaWCYQ4lcTp3ncxTSBEF0aoK4QIkOSmabtdK9DJgPNlNNfA6mqGr/MsGg+8AE/rKZqp+ooDoiKcQUAQnu1XCuL82GX1OZ2MkCNktus4lqTdysVDf0kqHuakGCU9zikRGgtOoHbPaeoSIjYsJXlWMZWUFQwiF5OxIJ1G1+EfOIeZW+9RTAR2PQhWGxixqsKzfaSPX4kNOlPonzgBq6eFXMKo/Ber3VfK78oqJsRknLn1PqYJgvmRT6k4RdjHJYKhypyepaToJusSL6Y4rERsNB99DS18iQezEopleTgDBzvsH8D86GXM9L2Pxeke5TzaJJ12xe3CTTPJGGILY5jt/yXFRwIN3S8ot7a4ustZSg4GUQiTi7PUDz6hsviOEhGKI5SzFzusbvGxiNgIUbwmo3MUEyb6JNJw1ncrriHcoxylpGCQTiSjAYxf+xFmBz7E4uwtdipRjnbvijolDiMm6Oil/1JeWgGBs34/DPryuLFLCoYI/QeB4Y8xS5dyZG5YsbtdMWrl6iTFrZjkonQLp2UYDDrqEHZfB6OgjpI/tSRgkEijKIvzo5foWn5LacXpBJVFrWyaAlnzM6N0MKGpBL7EN+FkbCPrwi6dc6okYJC8Az+VHbEaRM4tpXevI2nTo5+vAorgBM3O0cvfZxg/Q1D4Sh7T2DQYRKZJjGG67z0GnURHiOfrjvb9JiggHGKZkywRnkFg8EMYGOlsPPwqTdDGkgW5NgwGURbFclgkAGbIFSQZJcnAi1bKSQGJ7yQRmr6pTE6bp1WFv20MjZeibBwMStOdVtlIM7feVdG4UjRIq2NtCkjGV5R+iPFrPwHZAoNbjVQjNq87MBqy/iIyKxEOMOD0FiTWINlI4izRSmUoIFxZlMnQVA89uxfpy7lG8Rzb9MM3xBnStBwWmZ4m3sXw7ED15iRumjzVW4HkRoj+sDBxlcqkB2ZbLfWHpk3pDxsCgySkTN38X5WjmNnhCSnVC4dsyyRTTLiyXXknbSrSudE2rwsMKieBqWpiPSyMfaZYlbCstUrdvrOo6zq71mXa7w9QQCK9/sFzD3y78s8M9Yd4cBL+vl/AaLQyW8q34TyIosEgpo2kaykgEAyiwBRbPK0n0HHmW8Verl13hwLpOP03a4CBIWClvIvnV9ZouJoOwWTzqDUc6yVk0QqkjvH1FHMTpnveoWnTs97naNeXkQIqhsEEoiCTihfGP2MYYGO5pEWDIbowoSyHsL8faYJCK1VEAXFIUW9YpP4w23+OnkomEFHBXG9ZEwzK88WMZklcDQyfV0mcmbTmZVwvoStxfTw0qXQ5STjeiANwTZ1BxIMoKWJKBoY+ot4QrkS/tGdsgAJLS4xwRv0cpw9hYlRTcijXU9YEg0qyoCkZmRvig4IldS7NDnzA3MgP1tPeHXltXdczqOdr04XiIsV1GZJh5mw4oBb+6rg4R9Z/FlMKg+GOpiqhaVkNvRE5VKgRwfGruP3pvxW6ZFf8JulsJQEDqSXmvyxWDvuHEAtNw+ZuYvyiuIU5BSEjPoQUzZu5kQtqIeyuGJlt3kkVQGR0Uzj5wviVdVkWBcEg7k7xNsYYpt6oubLNabtNm7+svMPzI5fUZCZLL6ofBcEQozkpQRDJYiq1iCiqddpFG6ZAnEnJ4g+SrQ6KDWIVBIN4GUWuS+q2VrYXBSTvQSbxIleyxbnZSTFlVTDkdAXJYooujKuEimIq066pIgpQ+RfRLlsdSOyimLI6GKiRJgiEGCtJRudLak4W0yjtmtJQQC3ZYyaajKNshaCSawtUvSoYRMaopeL0aGll+1JAOQtnB7n2IrsTjjgQC5U8YIir3MYEK9HK9qWADL4sz4svTmbXsayRtf4wGGiGCGeI0Gkhu6xpZftSQMWVuO2B2jyNsSXJnSxUHgKD7K4ijiZRHmU9hFa2PwUS3C0nEritYkyFevMQGFLxIBWOCd4Yp8JRnLOi0AO037aeAmIExIJjFBmpgo15CAyJyLzKYlqLpRSsVfuxqigg2etiUSxR/Bea4A+BIUUURedG10RRVfVWa0xBCoi/QRbvJji2hVa8PQwGZjElaFKuxVIKPl37scookM1JkVhTmlwiX3kIDOlESO3QusxECa3sHAqodRbceTdVwChYBQxkKWQnssxeKzuHAjKeMq6ZAlslrACDeKwkHV7trUDftlZ2DgUkYTZJ40DGN19ZkekkW9nK3s0S8dLKzqKAAgNXyRcCwwrOkORqKS2JZWeBINcb0Rlks7BC47sCDOpshzVclrnKtfftRQHxL2SY2b5UYJnDCjAIarQteLbXIBfd2jsxp0IugxVgECCIbNHKzqOAcIaldKrg+K4Ag3inlpc1k3LnQYE9kswnqgCFcllXgoGxb40z7EgoqE7JmopC47sSDOQM6nS4nUuPXdszpUBSDSg0viv8DGqTKM3XtCMBk90ATOZ+/o3AVnAGPTesLtcm1TuSwtuoU+JQ1ukMBdddrgQDTz3R86ALrew8CsgxR3pj4cn+ABjMGmfYeTi42yPZa7rQ8csaGO6Saqd/0KnzrkRU5CsrwGDgbmGazpCPVNv7+9wZ3XLeVb6yAgyyS5jeVJ6DLfI1QPu+MhQQncFkc6mTbPI9cQVMzNxD0KDAIOaHZmPmI9p2/F44gpFg0D9wGPtjf3+vNys4g0Wd3F5z71ft046hgIh/c02tOlA1X6dWcAYxPeToXSO3lcnIIaQb2D4u34O077eWAgoMNi85/8rJfuG799q1gjNQe4SBR/GaZYfRIjeFuleV9qmaKaDTGe9wBp6znaesBAMvknOZLfbagvZonrq0r6uYAuJfkPOtCh109hAYTJQrVnXCiamKu6Y1bX0U4Kl3dDjZ3C3Kosh370NgkLMLajxt5AzFbReXr2Lt++qhgMFohmwvaHH4YHxAZ7i/lauAwcvdyfdoYLifStv8s9HqVAeTiD6oo7jIVx4CgyBIDuU2mCwbPrcg38O077eGAmJSFjPBHwKDOJ0sdi9Ed8g6oLamA9pTS0cBcSbafXuzE7xAtQ+BQexRAUGNt12ZIgXu1X7aJhSQ02nkYBJRIguVh8AgFwsYXI2HlJwpdLP2W3VTQHxFBqONRx02we7toB5I0V+grKpNGExWOAmG4Pg1LPC8xLW2jCtQf8GfHDzxvYmntu72InQoRxFOYOGJuKID5s7QLvScVcGgZyjbxS3q5Wg88UrSL806Sh+4ajr8RYLhi4Xap/22CQoYmLnmajyQ3VmeUcu1yqpXSPKkAEKcFI66LrKawuxlrYdov28NBYTDu5qOkDsUdzzyqmBgYEK5o+WsZREXUqlWthcFxGkoFqGD511anQ1FNX51MNy5tYZgkGMIxVmhle1FAQOjzzbqCmJSip+hmFIQDBZHPTnDQdjonjZanMXUp11TJRRw1HXCu/dMwcDUg01dVYHMXSQcQZRIERWytj88u7FNQmWb+8nrb+aq1d6LpIDQbb0lm+toIkfogGfPqYLJLA/WXRAMcrGcglbXcYY7xk4QDOtvnNQx3fOWeslnrZSXApLrKGFqAYO78fC6EpwLiglptvI58EhdBys32dzrqry83dZqX40Coiv4OHkdvn3giqh1xZfWBIMkUlqd9XDQ7+BuOqy8k6s1Qvtu6ykgFoS4nr17H0cNFcf1ZqutCYZsF/VKb6g/8JKKi4vpqZXqo4DoeDZ3K2r3PMqclD3rbmCRYICyVd3NR5V1IejTSvVRQDh34+FXlH9hvVxBerOmApnrsmRNixNKzJVULMQ9BecKbkqdu6/Qu5zKKq/dWuQIhzkeN7jZoxwkv9FkdcNJMNS2PZK1IDbAvYsGgwyYib6GhgMvqiMI5IjDZe4RtJmYRePBl7H/uT/crVigdTaAKz/4kw2b7DnCSehAJpWbrmexIjZaihYT8gBJmRIRIV7Jun1niUbHRp+r3VciCuiZ3yjuZgn4ucgZNlPWxRlUfFwFPw6p3cnltJolnrtcaKPJzTROu3dtCkgw0dv+GCfoSYKice0bClyxLjDk6rF7mULF1VdBHo0sWwzH1KEW6w9xy2ZTsgPZbi1ymJjswraRkt2WRwd38zE0Hf2y0uf0kre6ibIhMFBgcAmeB63HvwJuNI1JKpPqiF2V91B8a6Zu/gyhmd7ib9hhV8oO73LM4EaKLJMT68679zE4mRyjL0GawQbBQM+kKC2MWdS2T/B8ihmeyH5VcYn1KJQRihh5aWV9FJC0RLHs6vc/C0/LcXqGPeurIM/VGwaDJM6KueltP00+sazOQBLuoC3WzUPpkn2t42KYOsUVGg++BCudTKUq67ImVnuopGF72k5gzyNfo417QnNOrkakEn0noQFJK6jreg5tj/wGTKT9RpxL+ZqzYc6Qq1ACWZJwWbfvaWVVpOJhxfq10+9yFCrNu2zOJRPP1/kUaf2Uyl5Xq6M24FzK16JNg0EqFuVF0qvURtXUjsc++yFPWZ3etIcyX6N33/c6GBiWdtR3oe3UV5WDSfwLpS4lAUOuUTau0azvfg5pnmYTGDqPxendaynkaLLZdxEDkp9QTyefLCuw14pZX56c1JKCwcQFnnZfJxr2P09ZJruR6pTIUGcpbtCe3iwxt/P9MvvF4yvxhobu56mbnaLX11m2nJKSgkEIrywMxtONdFUbrXaMX/0xYgsTkB3NtVIcBZRDiRzBbKtVqe57H/+mEhGSuFLOUnIw5Bor8fTG7hfJ0myY6Xsf84zOZc3OjXnccvXuhncd9/CWlVCN3S+ggcG8Gnp8JRhV7lI2MIick8WedXc2rzawg+JtlIPXtaOP8g+r2iyFdKttf1QFA8XdrPZ8lpVtZS46rqMs+1RN8FS80MR13L78n1Qqb6lzmdUB3eV/dJnJV8LqOdhiPrpbjtKz+Bxajr6mfAqFdnQt4dNVVRUBg5yTKQkx0fkR+Ac/5Oscwv4B+iVipe7PtqxPOZOYZ9pA93Jt++PKu2jh39lljZVLMSybmLh/VFSiJvcTymZXc69JipD50Usq9V6FwdVRy2VnUPc3qSo+i0tfaCIWmMQYfHTcydrWYpfDlboTFeEMDzZawt5zoxe5luJdBMgpRI9Qoex1Rj0frHe7/C2+A/EeSuaYnRHHZvoPGqhsm+3cf7PARt/l7t+WgEHyGJKxIBJMjllk6ldg+CMEJ64hEhgud3+3vH69BPjIGd3kBJJP6m45pvZbMnPrJNEZJD1gq0pFxMSDnRP2qPaNogPF7GigPe1kinczgpM3qVfcVsm2wj12TsmuapfYglrZTm4gYBAgSGp7taxy3xLOsNogJyMBLM7couh4GwvkEtG5EeWXkBNaleWx2k1V/p0SBwS+xG5k+z1PK/WCzqfpWn5GBZ0KnQqzFV2rGjCIhzLFzcsFFNGFcUT8gwiOXVG+iSg9mNndY7aCRBt7Zi6m4OTOKZJA7GoiF/C0kCPWcV2Dh5aCBJq2TiSs1quqAcP9jRMRIb4J4RSLM30qviF/y0vWa0gCbrVxiywXkDBzrZr1kpxaw8GXSKNEdB20GMSdLCKyWktVguF+YmUIjBgVTREdQabWSRKuhMfFRyHubQGFelX4DO/s4NMrSA+rKIU62SlFYgnkBC7mJoqpKGsZ1HKCCngP76fZRj9XPRjE8pBEGeEWyXiIKfpBxINTCAeGlPURC46rHEwRL4pbVMKrSQDIVgUWzn5JVa/xtqmZL+53yUeU438kYCecQICyXdK/qh4MD6J8iQ6qdCKkABELMhlXiQ6/Eh8pmqspgkbEiITNM8yryL7zWGd6QUUZXUv3yEYMOds50w1mq1p1LvkDBh7nI4moYhbKeRxGvkT+Sz6iOIkEFPJZ4gjVpgs8SMN8f287MKzWEbX+ggAQLiEAiZJzpKhbCLeI85WMBtSiH6VrkNNkRctqE5Zb8Yv2LyxfzF7a/rJ/ouQUiFkoWxPIjvuShCq6wVY6iFajw2a/2xFg4OiqAc6kyQFSCeXNFOtEDgFXpim5ghI3olcsU+yIrsF1ourUeKGgAIBRVTH1xDMo+oD6LMdB0xGU+02STSSULDGD7cwB8oFmZ4AhX+9W+T6nbAo47qb1i3v4DiBkG5zdWnYdGHbrQBfT7907DYqhzi67RgPDLhvwQt3VwFCIOrvsNw0Mu2zAC3W3rCHswGIMb17sQyAUzdsGm8WEzhYPDrbUod3nznud9kP5KVBWMEzOL+Iv3/g/3BybhZ4LakzG7MIa6ZZ4jdOZDBw2M155vAtff/IwXFYznDYLDLvYvCv/kOd/QlnBkHtsDWd/g9eJ/a305VvMdPosI5laQt/YNEam/fjF5SH454O4NT6B77z0JJprXblbtfcKUqAiYGhvdOHJw2146lAX3DU2BYZUegkT/jZ8PjyB/7nQh8v94zAbl/CNpx+pYPe1R91PgYqAobPJjS+e7sArx/bDa195dsX1kVlcHZ7B57dDGJ1eIMegy5glnVlCKJZQosVsNCKaSCGRTKkAoNdpg8lgQIYcJhxPIc7vU+nsfQYDl6VRHDkpfkQsSUllltU1IpZcFENGXiNF8rGl3ngyDauZZ0Ub9ape+S3F5ycJ2GSav5kMfJkghzOFY0lE4gkFaLlOniecz6buX5mrIPXHWHeEbUyxHuGIIgFrKA5tZq6autM+qaeY/sp15SwVAUM2ird6Vo/ZZERLfR1GAwvsZ1anYKQBM1Q6//HdK+horMPh9ib8/NIgPusfglGXxF988xV0NvngD8fx3x/243zPMAYnsnsjeV02HO1owLe/8Cg6690cAB0G/El81DOIqcAMfu8Lp9HscWJpWYckR+utayM4f2sUTxxqwqm9jej0ZQ/qGFtI4vOxedy4PYQzXc145lAn/NSDv3+uBz/88DPEE4yCUvGR5716phsvHOnA8bZ7J74IENL855c9k/jJJ/3oHRlDNB6Dx2HFS6e78dLxTpzm83IRzrX6u4/9zV3LD2UpFQFDPJXGImdUmjODk1TNSOlNMJbByFwCoWiciqQJbRy87KzVccYnce76CD7uncCe+lFcHpjC/GIQnY12Vcf5njG8eWkAH5DYCQadHI4a2C02TM4v4Kef3OJMXMKvPn4Qj+xrRTytQ8/YHK4N3MaXT3fBU2MlhzFiZCGFT/un8eaFXoz6p2BcPnEXDFcGxvHG+R4sRGbR5LZiZrEJ/3WuF7+4NoDpUAR7G7yc8WlMBRN8Xh9C4Si5RgQn2luVXjQbiuGnF27hnavDuD4SgM9lhYWLkUOJDH7Gdo9MB9B7oAWvPsJ9sdj2tfpbltF/oNKKgGEhnMDQdBC3ZxYIijTZe7YVAoTzfTMYmpyFz23CyS6mipHlShFxMTYzz0GchcVsUAPY3ebDo93tZM0m/PTiNXzvjV+qmfblM4fx2hNH0OCuxU8+uob/eO8C/vbHHyNFELbU8UBwowNRgnFgYg6DM3No8blQY7Lj+lgI128H8PngODnLCI611uErj8rGmjp8NjCCH527SC7jIJhSGJsL4+//5wMs65bx9NF2/NqTpzAXTuKT3nG8deE6gRFBBgl01PsIVj3rDuB7//1LTC+EcKC1Hl89yxxIix2Dk/Os9xIu3RrCxz39ONnRArfdlre/j7G/dird5eYKQvOKgKGXM2N2IYo3zw/cnfny8DgtCuEY/mAYTx/pxovHu+HirM0WYbSA22HEic56/NFrz6CrmauyTGZMhw2Y4KxupoXyx7/+BJ4li+5s4G+Uwa2uUzjV4cOf/9s7eP/zfpjNaXz31edQW8O9IqgffNw/glbe11FnxMVbIwSo7IGtQyyuQ4LtWeKQLpEsSwSEh8ruV586iSOc7RHKFBEtJzvr8JtnD+Jku4/msgEnWj1o8nCFWDQIC/UKCX9fGPDjP8/1Yz4S5bWH8QevnUFjLZNgGRld6G7Asb1N+I9ffIKB8VGE4nHqJfe2XX6wv267FT7nSj0rS5/S/1sRMLjsFsp+Dw61MiOIM1+ILyVJoeqnY+pjio+puShn2SQONtcrZS7X1T0Nbjx5pA1PHGzjILqVaBnqX0QwmuSMMeDM/lYcbau/M3sAJ/enFGWyjTNUWP+t8Wnol9Ooc9nhqLHjYt8oTlEHaXR5cZViw2jQ4dGDHbg5zIzsRJrtYXYU7GrwhUud4szdW+/B8ExM5TLfJod7h6bwjaEA++Sjycz2HWpFJsM2mJfZDhPG/UEqxDOIsb40uUQwsYzA+Jzyn0ifF9j2RGqZOkQG/RQXwqly5cH+5r6vxHtFwLCPHsbXOZt+6+mTRLmDMyzbtQiJ1DuxgL/54Qf4+OYQ/vXdqyRsi2L9uc63kc2f3NesQCTfZZbITaIJEjNF4lKB48zJstHsHRxb2Kj9N3Am+hfnlQUivzRTMexobsKN4esYnlrAsT0J9NOv0dXWRDDsxfRciPpBAn20aMggOKtTBKWeAHShgUri/GICrT4HxVYA//zOdXLtJZzoasUzx/bhGQK1o97BtlhgpeUT4WwPhBZpIQC9kyH8+OKwsmaMtICE3c/Mx5T4MNOiGONz58Ix8qKseHywv9leVebfioDBbjWhngS10gyz0LTK5ayarTocaSarf/0s/s6kw3tXbuLDniF4Hbz2zuYUGSoYaTE3czfdpYsg6g6q7n6X/8OR9ma8fCqJvtFBjM2n0Tsdp+K5hO4mF1460oq3L/gwGYzjf2m1xFN2jPn91GMMMDPzyUx7sKvBhb/+zpdwYyKIq6Pz+KTnNsZn5/BPb36MH7x/hVaFEcf3+vCnr7+4ohFiUsaTYnmIuZqmaNGjzm1GrbOdPhcznjzYTiebB7PzEXVf/v6uqLYsf1QEDEYSU2x4PWetsvCzUgIyi4XV13vctCZsig2LqSm2e67I9hG5nMXcd9l32YqUuxVLGhtfIr9zJU3uMRdiJjWJL6JBXOGt3hocb+eaBuY3Xrg1jvlwimIhQl3CiL3kPk8c7qIDbBRvXeynmDGh0WvEmQMdbJeV/o4lWhBJTC+GyR3stGh8ONzsIhjmlUi4Ph7E6Ow0uVASUfoVhHslU0y1QxL7Gux45Xg7m3an0/ykJ4fon5pXHK7exV3c6HeYRRYM+fub61353isChoQyLRNYpPPFqGfuIf9j6qlytARpXfSMRjCzEKECZsQ+Erqe8n1hcfU9oGRgawggURZZLcbon2hhgMtjdyhyL9IkHQuE6N2c4zU6dNAEFIDV2vXY4xXnkBliNl4bGuPM13GwDZyhVjxLh9jgpB8//5QigOV3XjpGRxnjJfxtNpzBZ6MhvPnp53j+8B7GUY7h8X1e1YfJhRj+6f1+/PijBIKRedUnaZtwQ70uzeBbDe9pU84uPSdFnFxuKhilZeNXrngDumEST1QVlIqAYXAyiJ9fHuEMdtAzaKPptcQZaiAAougdncV56gtDUzM0Dc2UvR7UOQUM4oR6uNitBjy6z4336u006cL4s39/D99+5Qy+8dxpDroBb16+jX957yplcgRfO3sAv/vCo/DRjhdyW8hxfG4X7LYQuVIGTxxpRmezlwAx4Fi7By3kHrnSUuvEEZqENgKJ/Ecpe5d6p5FMZlDrduIs2bvNYoE/kiSYJ6lzzMFpyRAgy3RgdWIubsDf/iBEP8gE/uHtC/jtZ0+RSzmpcwTxV2+8jatD42jw0DVPr6hwzmooFQGDmJUX6TwKRQgCKljiuRPnUpD+h3kqTylmNT9ztA3PcgbtrWdqOq/JFRM/W2hO6kXGsBj5Xu8w4dmjHbQWwnRM9eKNczcwMUcljHVe7BcLwo/nTnbg5ZNdDI030pXMjGfe67BaKA72K/9AIBjA04c6aK7WqTqbXCZGTfVUSnUcZDErzfAQuBJB9dAs3eO1UNa7MUCF8F/f/Qyf3hwj+EwQ59LlviHso8v9heN7lAOpxmbH89RD+sdO4MbIGH5E55Wfzikr12FM0F9x7kb2+tefOET9iEC9J0HIzVb2V3W6Qv/co3oZHigxAtGOY4wdEAHoG5l86CnOGosKYn39qUP40qkuDhozlflf7t42igAf5WourC10o5KP56jFO+wuBIJBchU6kyavqLp1dArJM7/10gk8eaCN5t69MxiE5b986gC5ToSKpA5Pde+lv6GWdVN34avJbcP+llqlDLZ4uXXhnY0zvATD4eYaArYTH1wfwAV6P+WVLSLylvDis6fx+186Ax+fYWaFR1sc+Mbzp/H9D3QUPdf4/nm2feQcLoqmrz1N/8OvPAU7ASX6RL7+3nlIRd7Kmh0tIBieCdLeXl3+Sw9lJjoICC999h6aiQIEKbl7LWT9XiePM+CszgFCfqchoIJUY356NWnPJ+94Nc00N53UKZroWHJSMbufy0hga5G2/RzBEEsk6OamyKB3L1ev5F9MzYfJYYBGxi8a3PeOXUrSTpwOxmhyxpXuI651iZrpObg2TqlGt52OJScDXQJmMYHlWWkE6LeYp6uannfFAUwEnYH3NNU6+HIq8SWruNbqr/S53KWsYCh343P1i19AgkJSjOQMNFzugir7ben+ldiKvAQL8khh8SY+UxTb1YpcI68kb5JrhAvx/zuQX+2OrftuR4Bh68i3s54sINWKRgFFAQ0MGhDuUkADw11SaB80MGgYuEsBDQx3SaF90MCgYeAuBTQw3CWF9kEDg4aBuxT4f0pp1iJFUm8uAAAAAElFTkSuQmCC;" vertex="1" parent="1">
          <mxGeometry x="10" y="270" width="69.4" height="80" as="geometry" />
        </mxCell>
        <mxCell id="LfRqxSiJlln_DhOymT-F-16" value="" style="shape=image;imageAspect=0;aspect=fixed;verticalLabelPosition=bottom;verticalAlign=top;strokeWidth=2;image=data:image/png,iVBORw0KGgoAAAANSUhEUgAAAGoAAAByCAYAAAC7pERhAAAMYWlDQ1BJQ0MgUHJvZmlsZQAASImVVwdYU8kWnltSSWgJEZASehNFagApIbQIAlIFUQlJIKHEmBBU7OiigmsXUSwruiqi6OoKyFoQca2LYnctiwUVZV0s2FB5ExLQdV/53vm+ufPfM6dnJncOAHrtArk8D9UHIF9WoIiPCGGPS01jkx4CHcAEusANMAVCpZwbFxcNIA3Mf6c31wCini+7qm39c/2/kqFIrBQCgKRDnClSCvMhbgIALxbKFQUAEEMh32ZqgVyNJRAzFTBAiGeqcbYGL1fjTA3e1i+TGM+DuAEAMk0gUGQDoNsC+exCYTa0o/sQYjeZSCoDQI8JcaBQIhBBnAjxsPz8yWo8F2JHKC+HeCfEnMyvbGb/zX7moH2BIHsQa/LqJ3KoVCnPE0z/P0vzvyk/TzXgwx4OmkQRGa/OH9bwRu7kKDWmQdwly4yJVdca4ndSkabuAKBUiSoySSOPmgmVPFg/wILYTSQIjYLYDOJwWV5MtJafmSUN50MMdws6TVrAT9TqLhIrwxK0NjcoJsfHDuAsBY+r1a0VKPr9quVbVLlJXK39GxIxf8D+6yJJYgrEVAAwaqE0OQZiXYiZytyEKI0MZl0k4cUMyChU8er4bSHmiGURIRr7WHqWIjxeKy/PVw7ki5VIpPwYLa4okCRGauqD7RIK+uM3hrhOLOMmDdgRK8dFD+QiEoeGaXLHWsWyJG2+2F15QUi8VrdbnhenlcfJ4rwINd8aYlNlYYJWFx9VADenxj4eLS+IS9TEiWfkCEbHaeLBC0E04IFQwAYqODLBZJADpK1d9V3wTbMSDgRAAbKBGLhqOQMaKf0rMvhMAEXgT4jEQDmoF9K/KgaFkP9pkKt5uoKs/tXCfo1c8AjifBAF8uC7ql9LNugtGTyEHOk/vAthrHlwqNf+yeNCTrSWoxqwy9YbkCSGEUOJkcRwohNuigfi/ng0fAbD4Y5zcN+BaL/IEx4R2gj3CVcJ7YSbk6TFim9iGQPaof1wbcaZX2eM20ObXngIHgCtQ8s4CzcFrrgn9MPFg6BnL8jlaeNW587+N3kOZvBVzbVyFDcKShlCCaY4fqup66zrNWhFXdGv66OJNXOwqrzBlW/9876qswjOUd9KYouwA9gp7Dh2BjuM1QM2dgxrwM5jR9R4cA897N9DA97i++PJhXak//An0PpUV1LpVuPW6fZRuwYKxNMK1AeMN1k+XSHNlhSwufArIGbzZcLhw9jubu5uAKi/KZq/qVes/m8Fwjr7hZf7GgAfc3h+ir7wRDMAaLgAj0z9F559Fnw3AuBor1ClKNTwcPWDAP8N9OCJMgEWwAY4wozcgTfwB8EgDIwGsSARpIKJsM4SuJ8VYCqYCeaBElAGloM1YD3YDLaCnWAP2A/qwWFwHPwKzoGL4Cq4BfdPB3gGusEb0IsgCAmhIwzEBLFE7BAXxB3hIIFIGBKNxCOpSAaSjcgQFTITmY+UISuR9cgWpBr5CTmEHEfOIG3ITeQe0om8RD6gGEpDmag5ao+OQDkoF41CE9EJaDY6BS1CF6BL0Qq0Ct2N1qHH0XPoVbQdfYb2YADTwViYFeaKcTAeFoulYVmYApuNlWLlWBVWizXCX/oy1o51Ye9xIs7A2bgr3MOReBIuxKfgs/El+Hp8J16Ht+CX8Xt4N/6ZQCeYEVwIfgQ+YRwhmzCVUEIoJ2wnHCSchKepg/CGSCSyiA5EH3gaU4k5xBnEJcSNxL3EJmIb8QGxh0QimZBcSAGkWJKAVEAqIa0j7SYdI10idZDekXXIlmR3cjg5jSwjF5PLybvIR8mXyI/JvRR9ih3FjxJLEVGmU5ZRtlEaKRcoHZReqgHVgRpATaTmUOdRK6i11JPU29RXOjo61jq+OmN1pDpzdSp09umc1rmn855mSHOm8WjpNBVtKW0HrYl2k/aKTqfb04PpafQC+lJ6Nf0E/S79nS5Dd7guX1ekO0e3UrdO95Lucz2Knp0eV2+iXpFeud4BvQt6XfoUfXt9nr5Af7Z+pf4h/ev6PQYMg5EGsQb5BksMdhmcMXhiSDK0NwwzFBkuMNxqeMLwAQNj2DB4DCFjPmMb4ySjg0lkOjD5zBxmGXMPs5XZbWRo5GmUbDTNqNLoiFE7C2PZs/isPNYy1n7WNdaHIeZDuEPEQxYPqR1yachb46HGwcZi41LjvcZXjT+YsE3CTHJNVpjUm9wxxU2dTceaTjXdZHrStGsoc6j/UOHQ0qH7h/5uhpo5m8WbzTDbanberMfcwjzCXG6+zvyEeZcFyyLYIsditcVRi05LhmWgpdRyteUxy6dsIzaXnceuYLewu63MrCKtVFZbrFqteq0drJOsi633Wt+xodpwbLJsVts023TbWtqOsZ1pW2P7ux3FjmMnsVtrd8rurb2DfYr9Qvt6+ycOxg58hyKHGofbjnTHIMcpjlWOV5yIThynXKeNThedUWcvZ4lzpfMFF9TF20XqstGlbRhhmO8w2bCqYdddaa5c10LXGtd7w1nDo4cXD68f/nyE7Yi0EStGnBrx2c3LLc9tm9utkYYjR48sHtk48qW7s7vQvdL9igfdI9xjjkeDxwtPF0+x5ybPG14MrzFeC72avT55+3grvGu9O31sfTJ8Nvhc5zA5cZwlnNO+BN8Q3zm+h33f+3n7Ffjt9/vL39U/13+X/5NRDqPEo7aNehBgHSAI2BLQHsgOzAj8IbA9yCpIEFQVdD/YJlgUvD34MdeJm8PdzX0e4haiCDkY8pbnx5vFawrFQiNCS0NbwwzDksLWh90Ntw7PDq8J747wipgR0RRJiIyKXBF5nW/OF/Kr+d2jfUbPGt0SRYtKiFofdT/aOVoR3TgGHTN6zKoxt2PsYmQx9bEglh+7KvZOnEPclLhfxhLHxo2tHPsofmT8zPhTCYyESQm7Et4khiQuS7yV5JikSmpO1ktOT65OfpsSmrIypX3ciHGzxp1LNU2VpjakkdKS07an9YwPG79mfEe6V3pJ+rUJDhOmTTgz0XRi3sQjk/QmCSYdyCBkpGTsyvgoiBVUCXoy+ZkbMruFPOFa4TNRsGi1qFMcIF4pfpwVkLUy60l2QPaq7E5JkKRc0iXlSddLX+RE5mzOeZsbm7sjty8vJW9vPjk/I/+QzFCWK2uZbDF52uQ2uYu8RN4+xW/KmindiijFdiWinKBsKGDCy/t5laPqO9W9wsDCysJ3U5OnHphmME027fx05+mLpz8uCi/6cQY+QzijeabVzHkz783iztoyG5mdObt5js2cBXM65kbM3TmPOi933m/FbsUri1/PT5nfuMB8wdwFD76L+K6mRLdEUXJ9of/CzYvwRdJFrYs9Fq9b/LlUVHq2zK2svOzjEuGSs9+P/L7i+76lWUtbl3kv27ScuFy2/NqKoBU7VxqsLFr5YNWYVXWr2atLV79eM2nNmXLP8s1rqWtVa9sroisa1tmuW77u43rJ+quVIZV7N5htWLzh7UbRxkubgjfVbjbfXLb5ww/SH25sidhSV2VfVb6VuLVw66NtydtO/cj5sXq76fay7Z92yHa074zf2VLtU129y2zXshq0RlXTuTt998U9oXsaal1rt+xl7S3bB/ap9j39KeOna/uj9jcf4Byo/dnu5w0HGQdL65C66XXd9ZL69obUhrZDow81N/o3Hvxl+C87DlsdrjxidGTZUerRBUf7jhUd62mSN3Udzz7+oHlS860T405caRnb0noy6uTpX8N/PXGKe+rY6YDTh8/4nTl0lnO2/pz3ubrzXucP/ub128FW79a6Cz4XGi76XmxsG9V29FLQpeOXQy//eoV/5dzVmKtt15Ku3biefr39hujGk5t5N1/8Xvh77625twm3S+/o3ym/a3a36g+nP/a2e7cfuRd67/z9hPu3HggfPHuofPixY8Ej+qPyx5aPq5+4PzncGd558en4px3P5M96u0r+NPhzw3PH5z//FfzX+e5x3R0vFC/6Xi55ZfJqx2vP1809cT133+S/6X1b+s7k3c73nPenPqR8eNw79SPpY8Unp0+Nn6M+3+7L7+uTCxSC/qsABgeaBe8IL3cAQE8FgHERtgnjNT1fPyGaPrUfgf+ENX1hP3kDsLUJgMS5AKiv5pvVdxCI9YI174nBAPXwGBxaUmZ5uGts0WDHQ3jX1/cK3m1IjQB8UvT19W7s6/sEe1TsJgBNUzS9ppqIsDf4Qd0TgWvbFw74HyRNH/pVjt/OQB2BJ/h2/he04oY5v3YfqQAAAJZlWElmTU0AKgAAAAgABQESAAMAAAABAAEAAAEaAAUAAAABAAAASgEbAAUAAAABAAAAUgEoAAMAAAABAAIAAIdpAAQAAAABAAAAWgAAAAAAAACQAAAAAQAAAJAAAAABAAOShgAHAAAAEgAAAISgAgAEAAAAAQAAAGqgAwAEAAAAAQAAAHIAAAAAQVNDSUkAAABTY3JlZW5zaG90dfZX0AAAAAlwSFlzAAAWJQAAFiUBSVIk8AAAAnNpVFh0WE1MOmNvbS5hZG9iZS54bXAAAAAAADx4OnhtcG1ldGEgeG1sbnM6eD0iYWRvYmU6bnM6bWV0YS8iIHg6eG1wdGs9IlhNUCBDb3JlIDUuNC4wIj4KICAgPHJkZjpSREYgeG1sbnM6cmRmPSJodHRwOi8vd3d3LnczLm9yZy8xOTk5LzAyLzIyLXJkZi1zeW50YXgtbnMjIj4KICAgICAgPHJkZjpEZXNjcmlwdGlvbiByZGY6YWJvdXQ9IiIKICAgICAgICAgICAgeG1sbnM6ZXhpZj0iaHR0cDovL25zLmFkb2JlLmNvbS9leGlmLzEuMC8iCiAgICAgICAgICAgIHhtbG5zOnRpZmY9Imh0dHA6Ly9ucy5hZG9iZS5jb20vdGlmZi8xLjAvIj4KICAgICAgICAgPGV4aWY6VXNlckNvbW1lbnQ+U2NyZWVuc2hvdDwvZXhpZjpVc2VyQ29tbWVudD4KICAgICAgICAgPGV4aWY6UGl4ZWxYRGltZW5zaW9uPjEwNjwvZXhpZjpQaXhlbFhEaW1lbnNpb24+CiAgICAgICAgIDxleGlmOlBpeGVsWURpbWVuc2lvbj4xMTQ8L2V4aWY6UGl4ZWxZRGltZW5zaW9uPgogICAgICAgICA8dGlmZjpPcmllbnRhdGlvbj4xPC90aWZmOk9yaWVudGF0aW9uPgogICAgICAgICA8dGlmZjpSZXNvbHV0aW9uVW5pdD4yPC90aWZmOlJlc29sdXRpb25Vbml0PgogICAgICA8L3JkZjpEZXNjcmlwdGlvbj4KICAgPC9yZGY6UkRGPgo8L3g6eG1wbWV0YT4KQNcPzAAALlBJREFUeAHtnQd83MeV3weLQoIgAQIkQbCCYC+iSFGyukR1yZYl9xbbshOfc058Zyfn3MWfO9vnek4+ubvE1tm5JHdJzkVyl61qWV2URBWSoiRWkQQIggUEiUaARAfy+77Z2f2jErtYUAx8Q2L/u/+d/8zr8+bNm9msPhU3QcoXHnXumWrn/uZW5zaWTxCk4mjEJhI6QeKyJhJSE5FRE5A/CZQmlEYlsJqAbyYUo8JomzUBbd+EYtQEVKQEShOSURNQodyEYlTw+hJiOIHeTChGTSC+DELlnxk1iCTn542ccw3W4EBIn+NfLCu7HyhNbUdd7ekDru50lTtxutKdPFPtTnWecDyfNYxbV9n4l2rjbe6Xu7/qNh/ekmivr6/XTcktcjPzy93Mggo3u2CxK51S4UqnLunXVm9fj57Jsn+Jh7kzTH/ROuP9PutchJCizAFpPve5XhEkliBCd0+nmHLAVTW96g7qr6n9qGvprHddvR0uO5bjsrNyxEwMQHquQq+Y1dvX7Xp6u0woCnJLXNGkUje/cI1bXPw2VzZ1qZuSNz1Bb5gW4BsIf6LSOXwz7owKSA7JII3+J84cdLtOPO2qGrdIg/aLMe1GSBiTHcs1YsFWZ396HUGjhqNb8pmgLX2uJ840GAhsM/MXuoVF69yqmdcZ83Kyc605+17vsiQkUVyG62u87o8bo6JI8R7zE4t589bT2+32N2x2rx9/zLSno+e0ESIve7IxBqZ4D47nhjd16RAl2h5s8xraZ5qLtuXE8lxZwXK3dvZNYtrGhJb19PaYRgeBo2/en6uScUZFGQQSXiJFEiHV2d3u9px81m099ht3rPVNM0V52VNMgzxzMs+YsxEyyTivbZjkrp4Og6148jy3bvat7kL9FU4uNaU2kyjtOtcMyyijjEkSMlDmfdAirrtPPONeOvILd6RltzEmN3uSaQ+EoSQJdjbSjs/30f6DpnVrfIRpxflz3YY5d7pL5rzL5eXkm/ABBWOm6b7Uf7y1KyOMMgYJcANWDPJ2P1ufnTtyarfbVP0DV9n0CjVcXnZ+3LCde+2BuKMpSaZ5Levu7TSGlclLvGrhx93qWRutmV6ZQ8auc6FdY2ZUEimvFZgGvLSO7jNuc829bsvR37j23lY3KbtAbIobuAyPO6Mhfrp1PH5ihv519rSBpFslRl236FOmab293hkJGhWlR7p9DvXcmBllpLeR32sIDsORU7vcY5X/3dU0vyFTMcVcazNxqteXJefAWDYUOOfpPeDWP2/qnGvvbnFFebPd9WLW2rJb4J2siHc2DDV9DozLFEZpMwrJ8YXxCCDl0Ullthz5tXuq+h8lfWdMi2DQeElZpogw2nYCHsyvMId4iRfNeae7qeIPTSDxDLPjdAh1R9v22eqlxagoENhptAhT9/iB77vtxx92OXKzmQdptmLSlmnpOhtS4/29x99H39q7Wmz+dcfyP3UlU+aLed0mtGHcyhTuKTMqMIkrTkO2mNTSUe9+s/fbrrLxFYVqCs1M8D0qdg6nGuPNn37tBzqgXe3drYpyzHZ3rviPrnz6ejEr83OulBgVgIsyqa61yv16zzdd3ZkqNzlnqpg0cUxdP84M9UGy6MeubJn6dnm0k907l37BrSzdmHHNGjWj+jPJe3bHW/a5X+z+muJytW6SnIZemTpBnvGBdCganU/3oA2ORrfGLDzbty/99+7CslvdQPd9LGZwVIwaiknHYNKuL1vglLmRn7ED5u9n8TSKGR1g0O0wa85tg8xguswa1XoU4wyA+DEpR8sOB9190iSi26g7TDKX7/eTR4a1dx4Uz5TXh3P18IHvuN11T9sYDn2gHwO2XdOg01kZRcPMfLgGx+HXe77lGjuOxZkUJnxp9D7BHokyC9Qe3PfXFnQmAGAWR/d8HRyt1MqIjII5pqrxpQDiXg/s/c/uuJYjiDT4UNHvr7kbitSBWTCnu6/T6HXydLVFazCJCZoO9fAI94ZlVGiwV8ziDwAeV7Rhf+NL8u6mxSXkn5k0FG0Ds3Jjk11zxwl3v4S7vatVNPRrWtCWv1TKsIzynamx+Fxp+7GH3bZjD7h8zZO8GotJbwGfMMTplPSeSqcn/wz0g06Tcwq0YrDLhNxCZwqhBSVIhVlDMipwPCxT1LVUuieq/octqnn/W8CcIyYNZIyPE/Lq/3lABgLD51AjvO9P9IHt9v82M5+8sItZudPcq4rYbK992JwN+g7MGm1Pg5JbQgMhKsy49LvKv3PtPUTANVeKj1ej7SDdelgGvE3ITeGKViCl5D4gRCBs7JCn5etRg3q6xr+3Z2VyzBtTWIvWwnPe+sTHYSqOQwkQYQafVgyUHI0ZUxYaHQWV9QhDz1YGMSph8ohyiwCvHPmV1pK2WWjITN4oGj1bp2f9XhT0wHsECPp2KggKM/I1PhYqKaVEq6+Fk2e76ZPK3NS8EperaQKF5zq729zpriZ3quO4/k64RmU0NXXUujPdTcZolttjlixj9kFM57mzQpVWhUBP8j9aOhtkmf6n++CabxicKEUsNqRRG9RXP0bxIAVpZeA7ofDQi4d/ZlEHf2+csImDFbTZqW9KDxFqMWlqbrGrmH6Jqyja4OYVrXbTJ5cZw0ZL3Y6u02JYnTvSusdVK8Op5tRO+wzjc7LzjGimZwkBiQOUoYtnlkxg9lTlirzo3lCuCJELcAs094I5fIeDIhO9vYiXNyn37f6623Xyae/lKTzkzcvwjaX7TX9gs8SgLpP8kvz5brWyglbMvMrNnLLIXNx+fQhUFvNYUrHwjdSCtrKzcl1uzmSXF8sfJLEIXEPbEXeg4WW3s+5Jm2r0Sf7QssAs+jgb4frBkcIH4CzKK3WfWH+35RoCL1rFdaQ+E4wKxAIRZtYHGl5xP9v5FyIOCIyfaaBtP2YAbK8I3iFzNsddVPZOt6b0ep9UQiUVTG+3xsya5h2WHNPQViP3t86i16R/BX3HZDOeTsubIe2b50qVdDln2gpXLE2MaX4TypnOZrev/gUl29xvqWrMfTCJgWEjES60kcrVmCLY2rpOuWvK79Iq8b8ynEL+4EhtJRhFJbQJWw1B7nnjz9yh5tctmUN39G0gw0jNpfZdUoqybCEuR5qwtvQmd+m892ltZ0GisdaOBjHkuJs7baVpwq/2fN3y/6iAlmOm+8Mn1ovp5lToewKmU5VwyfOY0CUlb3NFGt9CadXYse3o/Tb9ONN9Kj7e0cbIUh6eT+kqK0DwmvjoJ9bdLeGZa7B6HFCIoemcEC+AYokC72hf/WbZcZbRlYgihId7OCUAB1ROEiFLiSPtboYSIK9deJdbpSWCUFo7Gt2b9Zvc1qMPuEVa54HQREV6+rosMoLkh5J85+9E0eW7M93Nbnf9s2rvBVdydJ6Z1DWzbnLFU+aZM3Ltok+68qKL3LPV/8fVtOyUKVSWVNyUZhJ/UhGyXa5D+LZKOG5e8m9EY0y2sppiUagDZv5qo7YxSTWRPMaHrUpIgUGUTALpuxR5I5IKkxaJQO9b9ZUEk3p6ut2O40+4n+78c/fbA9919W3VxiSeP6qsJtMWEyyEyweLPdNgCZrgtcl/6+8hgAzmOA+NSpd+9tAP3L07v+j2KEsXeOB5efE6955VX3ZrxcBeCUOA074PwI/xigUAPjRq54kn5ZEe8zTO8ut4wzVvGgUzlJltZuSwPCIzeaR1jYM2BeQBqKeny62Zeb2k6t8mMlIbzxxxzx36oZyYZwymHM0/CjXWzJE2NQmpE9osANFxeEIZKEwDP1MPpnkT7mzcxV3GXcdkMr7R9gw5L1MnzXC3Lv28xreZ7uVjvxTDvABH4aa9sRTTKpn5Fm162Fn3uLu6/OOitWA0lIY2tzEAMCCkfiD4qmbPNjDr/VAIjwlAAWJtqk9yC9bPfrt7+7J/55mk7w7Uv6SFyL90r9U9aoM+xCTjZ5acgZL8eXIg9gq5kyJ0bpzwo4cGSU4WpTDLKZk3daXGq0tdbcte9yvtAHnl6K/NouTJY7xm0SfcNQs+rikpa0ze/EOnTJSgVZjXHSeecEwfvEMxNJPoMwbhguYwMTyoyS2uaqaACoiZMMS1oEvzIzTpRmkS6WQI+/bah9z9b/4nd1KenMUTxcjJcq/XzLpBDL1d2tXjqptfs/FJOWem/dZ2ysRTZ/oPYYgSMA5XNmzRtp5D7qmD/+CePfh/XZdSr/EAL1/wIXf5vA+qvjdLnlaZYRYajvNU33ZYge6XTYDNZA+DTw4E5B/jGJOxlo6Tik2RoDIe8yYtV0uSl5Zc5m5a/Bl5V3nmSLx8+BfumUP/JMntNrPULgkrUq737Uv/xFWUXGL8gHgdSiKRbHmkPJdQ0fg7SaP+nb34YCnCsLBovWvrPOUONr+qZggzxdzmIz+zuRkJlpNyC9wVCz5sjsirEiQyq2BxJoq3Vn5FeK/y8VfPuk5Ny2WAUXGcov0Yo7D5fL/35PMmSUiQbyhaNf33Xpv8RJY5zU2LPuPy84osp+BQ0+vugLKXKqZvsMGe/VDMM1bMutaYhJRheggRrZx5jQbgpx27P5jUAnfCrQ3gxQWeSexQJAVPph+zppTb3OqocuHrpcXMHSEQ5ujV2geN6ddV/IFp3DXyRk+1HzfJxxkJ+IQu074KrzyNwYdOva7pR63mfHNsXIYZA+lvUUpuovq4vkxwM57NqvYJ8jIJvXbhJ11JwXxDFuIsKt7gKoov9oSKYwxjkG4IArkxU2j9/GkXuKsWfERwHrCEmhbF8fAa4YiP3UnijTtoF0VP2dhrH+wFYaWtedNWKzSW74407xLjz9jzYQiIaQzcdvwhixxcufCjGkOLNODfpX6rXGtXvRfmZJNpv/NORY5jHofAFs0ui9PFh9CiDXvTp7GjUpGINpkWsolAJVMlSF+PTOna0lvckhmXGTBnFDQ9efqQJq5t+iMJv03M7Ibipi3sCFygMSSHXR9iGgSeOqnEXVfxKQPtdCfPH7T5XnXTa+6EXHjahEEIW0LTYIzQ4XnPuD65xlO0w3CZzHCnO6w5ExqGg2I14tKcJQbjXMwoWGSaPGfactsc8NLRX/SrZx/SfDFTbf3FbH5H/I97XkCB2YC21nPkTRhfWNwiSg2AcDpThc7w8GZp/+wlc99tgJCw+NiB7xlw9MTYBIV9r3rVf5YFbl/2J261wkgd3adtwN8jl31K7nQRebmbrZ0VuOzlxevd1dphcbz1gJmmKpnR49rzy7JMjoiPpmXF8UG78GgLFWvD9DVoIG9oO6TvZfaMm544EIpQE5sbnj/0I+33XSSGLXQXa9tNtSS/9sw+azsTNBJIQj1b044qR0gL7e1j48GAqHoOkndG0lnbqs41DvRp4pWpEiQjJkAuKrvdTc8vM4LsPP64260BFClGUGKOeGJSejB9rIwS5kHqH91/t9Vn2yhcxCvNU85G0aRZ2h24TM7J5W7h9HXaEvMR89JqZPMJuFY2bbEsXkwsXpwJqJhQov1OjAd7Tm6SKWuWBmuMFjODM4JwYQbph62raNaNi//QFeXPdusk9XWVlUNKfTp0QzgRKGKW8IBhwBTFNC1JEzN9DZqpN7YfkxRPEhmSAKfTcfQZECfBY97UVebVwLh6jYXbah9AdPU/CYipkT3MeNZl0Yp5havd/pMvuj31zxlcZOJSCHXBNLJzjwm5HZrhQ/wFhWvNTBEKWlR8kSOL9426x2wTHZNLtIQEEx+Jz5Xm7bMgMI6KCVUUnLjg4LDs1grCkuJL3bKZl6v9a629Qy2vy732AWsDKs0XiYRpNA5UnSxBRcnFmBjDN0ofi0zASYtMGKD9oE2zex5TZ2JErC/bkDMvT6b19eO/1XhyyEIoYfAOnYiPeqpHa02Fth0TBwRCw5RJFilR/mCcuTgbsaxJZiJh3Em1CePe0EwfBq/R8gj7mG5c/K/V1i0WcGVT96z8RW75jKuMEGilnzMO9nLpxptARbtlql+v+51pLaYJZjG2eS0E+rHQzI9JWBecOQFmjAs0CVeZvizNzPcBlf6rwwyNT3486HIzJy9wy0quMKTrzxx2+7TJ2ramDFBtiAIs3QorVczYYESp0XhQfWq7TQy9xA8kiI/z8ZwFUYUVZvNg01aFwV6Tm/2QMXzt7JsVFvpjafX1bkrOdI033uu8bP775YA0q540XOY5KsEQiM8ID2bzUPN2JZ5WSQhW6biDS1xJ7Tzv1muaoGpjK6I5czS8WT+XzNUVy5YsFkJqbD+iO5ii5BdjfUdbEBdzND1/Dq0rRLRZyB01rw7ljhaIgvfFai5rUYjW9uOP2JI6Jmtg/fCsJyZtJZlGwBPiHlXI6dHKu7Wu9iW3X+GpBUUXGJPQVGDD5K0R89BgtNu4EhpOXAkG+DUkVofBA3wqpmssMelPVEz7DbjRB246KQQmtLoXLTFsI1JFxf5fRaul+h7t7JO5mmxeGU/TD6ESCIpERKWXuhTGD8zSgqIL5V295ieYGgcM8BGkKLQVmBaYSro1pq1a2vCbvd9yrx59MN49IwPM0p/6BXfRf0j8re04R4C/VWncFLbX0L5vY2yUg/n0w+a4BgWlAx7WUfwlxtwDd9mWg4cENVp9dO9RWrSjUHuG5kxdYURgoCSOh7scGENrgQm48CVaRGPnOQBvkafVrkU8tCm416Pp3Qgbr4gZpDBv6tA8jWUFQmQU7wXGRPiTNgYFOLhG4aMuIwJjyEl5gBy7AFM5omeakmzogynN2ItfYmqV00OhySgcYlSzZxQ2OkOMAnDmKx6ZmerR2WIcQoEtjvaDongiZbuLNc+aOXWR1oiesU1xjDse2PQIEZgGMfFoOTph14mnTGIbTtfY4h2u/dULP2Z5IQgLzwSYAvGBF61rV+jKj+dMvme62WIWCSr2QKic5hWtIp+CrCkrEpgAP59j245pE5aiA34mnx5BfMuRV5uTxBIJKaRvHWVCDcfoAkpY4eolaUXJlW592TtM9V888lP5fhCNUMrYzArdoJG+FQyez/x5ruaH2oD3DZuWXKEo+W1LP6d5WZktcxiQAUQaAOg4GCy1gA8aycSbCHhU8q16Gi8wBUeiVcLsS3/Njn1z0xr3XPXfyqO5MI3mh34EnPDsiICDRJuWwZvaas2JCE9wn9VkkCZv4EpFqTFzLx/9pdzsg+bFDXTfw7OpX6UT0irMLrkT9NuhfslXfEBLKwcbX7X5161LPquJ8FzzPJHwKANwxcGJaMbprgb7bob27NrcM25iU4er/xMwq0twURDSaP8W/atvu8g9WfUt91Tlt+Uiru3/dDqfBDiDOImRdN6syDN5deQ6IDWYGKLfTIQXyiu8csG/sCPZ9p541u2oe8KeRQcSipcODAOeMd0VoYl4wCjmZrnyDjlm7pH9/9XtO7nZLVbSy80VnxGzZlsdYA/EwvwRamJO1dxeZ3gVyEPNUywyE1Ma+oE5xD598Q5GQCMnGBYQqTuz1tVVfVtjyxtu9ex7dK7dG6FeSleInKtFPxCh4AbjJZ3ubLTNb6yaXl3+MT/xFID5ys0mwLpZJg9A/dgkRyCDnGJwRkuyNVbh6OCwYAiJKZJF+3jl940RSxU0vkEC9Xjl3xus7AnzRORpZwxmlZnCrhYcFTNX0jh6SLcgFHgQNubRkgc40VxOaDqTDAMxTMKkeMiH4OkHVn/DnBb2+xL8nVMob5ASx69K5udoyx5DnNvR8SkQivvpFq+hyveTRhGtR6ugLRNLtL9JGv9Y5fdkHmNK+LzaFg8fr/p7S+60qYtJvAgpa9Ch9ACKd//H5vBE8YFZCBElGnvkc2LhA4bxB90C09Cwp6VhqZtEos/ZphlqTpHtfUrj/Z3Z90J5SyRDMmawzR/AeM8ywvzCC4xoSLuXeM9FkzYaUoFp6RRvuggAZ6vfTjlQHRIGzIsftFkQbFK8kz1grFERzbh83gesfhAUrvx1i1kUtBMTPgZF6o8KwpBoLKiQr2Kxvv61/SdPovj7FE0QMT6zBHGWHz61wz2ubTssf2Nqrpj3Ibd+zjskvbQPsbLc/KI17sNrvq1owh5b0mCS2qjUY1Z8cTJsUqr2qGusAqmU4GK88YwOJIAsQTwxg6x9ETN8Uon8t6/4UyWCvt/SuYhPxsRIuvN/8RbisKCtoR0wSregRR5PtQawEfwSjDLk4z0ERGYV7FBa8Y9TH6vUiTEr3hGdY1IYo5jUcqwaREajGKCPndpjIX47NlSZrMTSOGSEkA3n+x1SClt7T4uk1zPMWBVBYnSEgbEgr9p6lv4DnsZ8ozUme7LN+Z6q+kdbD7tGqVyN8vQOKSGVo+tMq+IC6JsK7UQpODqIorW8toYceAmUYA0tUy/hTPAhAJ42g2hEhQ4YhzBfFJa2mczN0gLcbUs+5xZMX2vLFzb5lLYcVi45m7fxEudribxCy/MsK1ygUyjJQuKc2V3yBg/oKDliYYwpiTHMCGzdjPgC2oxH5Lbj3EwSQzC5ocB3iMUVZ4YTOl86/HO3cdG/tIVJNk5zCgCCFaSecQ7THSVoaC/VqxcWn5jJs8CiVxMoPptGJRn0hjQofW+PBikADpM4H2mavFc2Zi8svNDdUPFpN7dwpQVI2Rx3UpKKV2W7L2RamG+RdkyEvWTyfcq5u9x2cizWGg1/1Y3bLVB7QDE3Vn0ZV9RVHCm9hcrDFC88veYkmGZKeJDaKJ89sTxxuL/t+IOyJkt1Ess1boMCxZtqfqD6xDALrBfyNciqskb6tTQMEGe5DfjBAaNqFB/z+kpl4lbN+pGWt3eA99iLeiQHglgdZZ68vnkrVmlnxiydvfCMjVcENzk3CSw9uaR5ktZJ2T5SXt9+2J2Qu75D61EwbH3Z2y3Ay0ouq8OvHPmlO6bESZwWW0qnFdOIoTHA6vVl9RhcTHzzpDXQdmDtwCzqtOlAqhcO32MnOHOK2F4tYLLmNVWZuxRipER1BIA+DWzJqoz6BRogsOxAoQBHlFHZ93z3c1+dPunPXXZ2pQhFHC4DRY0wsWXnBNsgcYk59XjLkfvc0wf/t+XJ+bQr5kqiV5zApu5xAICFJepOTUwJ23AgVrNcew6HWqQ8iWXFlxusZE919pJF5NeTQlsDsUBD4MxCRebxOtluc0LP5sj0DixRZiFQ4LJCqWpoJUd+b5hzh2UokeewU7FDwlJRog5sbzSfA9zrZt+ms9nZOoqxTjIr5+qFBcqrm+aaOo/LDnp0RtPwSHXoABeWrZkgQNL/5pqfuOcP/1ifY8YAxoeA3MCrta3vbYVYDMiWlrEbY4sODa7UouC60tvMfb5+8act25WEfyIMPiLO+Ji07QFO+iDLiXYwtySZco8FTjy+AEOyvn9HksnOk09pN8lFtmKMa48loD7uPGMe+I6teGtAhJ48kQB/FKYYLinqZhlIY+4wDq4h32NH8cAQllDQDB86YpkjOYgPi6AIYUWyQ/QbjcEJYCfG09X/oHOYvuL2nnheeQxXuves/JJbyfK6GBSQ5NqvxBliyxx6D85GiGFp7BlOv5i45w/fazmEG+a+K77Q2KedJXtt+hAlaL8+R/kB3UFYJsWmaFFyrlmZgcy3Fd5ZCtdbZwORG2VHg6rhWgpBdl7gkqNF5Tr8nXkUyx+64fsb9OAQN0RIYPOE91EEsqWOKTHlkf3/zW06+ANJYZk2G3xemnaLNRDV1tAifKcNdm1wZBvPaEpuWjYcoUO/5AmyTP7myRdEUD+ZBy9Mn3mfYvxYCkzBvLIRgtwQv77VX9AsMuEjBSKGSXH/CukAQAtEAJD+utZKI1BpwWJXrC2fxLIY2FMtgZheGz3DOpS798KRe90zGveytBJ8vRJZLpr9DnEExNHaKAH9MzM1ZlLI47i2/JOuIK9YzJLps7rR+lbNhISUNtzw/Y0v2gYCGE42FaYPPPEex1J4nKGCpFAYT6LRQJ0RDFna1rJIA77fD4UajrWgyHRIEuRBRRggwjSFjrDzBoG6GGSaRtlpkHJvUlnsjFne3ZMKomK+N2pf7DplHdEnUwQEg4G5Xe78XG2zYYcG22rQ7ssXfNBdXHaHvtdyi7xUxhsLaQl+z2RPC7SI/6SZ5eQoc1f/DulgYxYSwRN80y9q3brp017jJUaXoSyC5fWROTp7yhKbkbOTPC2R7wepUEE7lZ9G+IikDSR3+YwrbT/Q6XjSY79HUviQ1C4EwhOTdC7s/PWaq5E5y/yHda1Knd2EqZs5eb4lsuBaQwgEBSYvlzfH+Q8sw5DXQf7f6a5G7ySobbxPmDZZqd6LtbOECEuLtnVWyakxgo6wnXM0KAEFZo+Nc2WCGXzsXxyv0IYiEz3a6j9Jc6hlXvoVtjcJCjXSvEIIvDDmHVWNW3Xs9M3qY6kSKzdYjlx2jncqAqFT7QYYw7MQr1v97dIS/hJt6SH6vX7u7ZYafLT1BkuaIWyFsPCMd33RhCxNH+a7W5Z+1u6xradVS+FsBjiskBH5ERx1gKe4SCvQSDylpmm7JUuCnzHcy0qqKFh9zB4RDrJwccutvT6/KSLgR0XzyEGazcxksJq06WmQGEvxCSlaCJM071bO+HIRD/O6ruw2y7s7rcmwX+uRvKbQFYhQokiwbAG82PiZyimnjjcfMcvDQ6MaztSI+Dtt++esqRUoifZGtQi2p6RBzZqflZprzAovxyZcMPtGMY1443b3ZsMLbtWMjdKqqaadTHxZeLTIiGhnjRlUqb54rQZWnC2Cz9GDg6OtWe45SJdrUxcuK2ZKM5f0+0607j01OodAJO+v1J6n+cpivUBHFLx45OeqqX5SQDSqRXSDu0+Zo/xzsldXzLhau9znmnPAfeqzT/i56h9ahIMxi2V/cvnWKoecxJ6XFOFgfxRMIEUZrcPhIOS1SHu21pTeaEIWzFGVdr0QewQvr00pSBlARYqJnB7HIpBk49vrL4ShusYoEFJSfu5Ut1iRhC219yubdJohGSqle0UA+NehyAFHyPH7TFPyCrXEcYdFo4+07rZotZf+kRFOEkWmSwwiGjBDWbirFbT1v0Yz07KK2GVerATJUDrEHFLVTmlfE5vGas8ccCeqD1oWEVpeOmWxbSLD0+roPe3a21ptYwDxxml5syxn/or5H5YTMVln7rVoC+sjtpGO+acXstBT6tcsmTg0s1T+Qdk0Pz719eKaJM16aNW8PrHSuLm85CpFDXzCI4TJRKEdgqCc3cAZQDRbrF0dVwr5Kdk6+09Eh6HD9cd9nrE6QoAgKNL/tjnvtonu1eUf1d1e91LNz7Vh+mtKtPwrRdp1dE7LfvsjR2KZnBgmk9hYVp675eXVyMkhRFWu2CHbXhgrmNwSHWDlFpNC6hbLHhae0mcWP6tPvWZ1hoN39DQDKVkFORL8IhxhNovEI9z6G1gs99ye0DfsNSpVEj0OAAhlpNCxGiILdpuOslmgVdy5RexGv8wW5iwiLU4EZkWBhBj+s/eMYFi5YnWXagP00hmXWrbQTp1H8crR+3zetrQMX/fRA39nS/rspeKEf6IWBHdZlMwS4XGpyfHDe2MNjN8/9JvgiBfCdh+rvLD0VuUavsvGIibKrx1/1AZ+tMnXGkzQ0dIMXNSLtsMWyBRf5wUV3g3jRVpkwiZZGtBYGGP9B3eRe6jgWAuoQHA8JI7Jea7mR+60TmQh6n2xfpNpfek7bKwJTAmSGj7TP6u8+dK+K+d/UFr0FWNSdcN2d/+evxJT7laU4k1rj3UkBnjMCQkotfLa8AQLtFORMYxIBHMtNJwTAGp0hBBzSBL/kewgJD3ak7VUQd+rtC2UHZj8QBmnrNVr9de2zopWXvzSpw70Ze7GYSilUxdDJf31TxGLtm6mz4iirrnCKGwzA29mUnUlJdIq2s5WBJ3Fvyc0OcUVZtf5DRV/4K6Y/yF9r1ECAiAgquuf4dfROt2Sokvc+1d/zV2rRTw2Wj+096/dr/Z+3e1teN72X8EgK3oOhGkDE0Ybe3VED+MWc7giNjOLIZgy2mFxkPf8riGSHRY7L5h1ow6Z/7x5gTgsL9TcY1MKwmJYpcDQKCFTeQ9+6szgxKkBXpsyjNB2MrkFYkoVC/NLbQBFKgOBUwHibHWR5t31z+jHv34oYejWHC7fUoo5fANvEwGBeJhKTPKlc9/j7lz5RVtw3Fn3lIKxXxXRHrUgLybIM9ZPYLGxRgQ9CeOZrLJThSPf2GHI6jHCgKVAoznvqVZjGRET3HoOCblYC4Q3aHchWkhbHGa1VXnwSeHJhJXxQep501YplHVZXECHHpsCPbO/qgJDPFP87WLN4lkmZ9Bl9o4UjbUEpnOl1Lbq8ClN9HDXIfhcAc1chuUKogOMGxsXftKOn6HeJi1lbNLRO61dJ61+aCcQMHyOXmEijCfqvlKue5e8zyplx6I5MJGwEo7JMrnGFBY4r1jwUR2toFOoJSiv6RzYTUp9RmhhbOjLKqf5QhvEDoHrxorP2F5kvzrgdSbAP7D5xKqZAYH5078SzUXYpccaEjGx4I0MfDjVzwDhkfXm7WXtMGcl+JpFdxnB+NGsYkWQOXWLo9rImWAbylMH/5cdVsKBGYwRmLdAtOEQM9ji5oVzxwkRsd+3QAJwSjs6stVWl8zgfu3ZYrFurfClXeZH7BtmN8nmwz+R5rZljEnAhPBwXAL7xpbNuMJrE6bAvhteIxKMMiIKUFEAMsjkvE97VZ+2ZBIcAZDAFI21JJnlmbZV0RBia5yUwmZs0sYINeF11p56U6fx/xfTPsYztNt7W/3HicC0AFv4TFSb6DYaykrwwqK1tozeIEeCYG2hxmLCTWgVBAS2M4r3bT50r6I0D4mI+nHlDGkSsHm4cBlilsbNNADNDX0H+Ie6JhjFl146kXaNVcpvuExu8KOV39V8I2jVUE2kfi/KLAhJDgQLemx/YbMx3icIYBLLFR3oFlGbNNZAXH8kAVFzLzQmPnFzGiDxeEAQCYOq4TUy6SUNbZoC0ARm/R7f67Usv8y0iGfZUvP8oR+7fQrk0kZgUmh3LFeYRAQCc8vv+y7VYVnBeYrSY7g++p2ASWMUNIpXxoaf7PiihfQ5XGo0EQRrYJQvQfKpTjpZgfbXksSyXkcdICgU6rD2w4ElLJmwIblVGggsFJD0TItrOxeBj+YFfDDdbJC7efFnLW0aBsxVZq5PilGSiiIObE7AaWjQGlP4VesofNbZGF+Ag9WJuy78jgWDA6NoNgjXcF30Y1SoBIDmNQmhw8073T07/sy+ssZMhEPNsV+TxGBSG09v1lgCs7Dh7EIPhePSOI2L+dFxOSOMO63aAsMWGkswiVfERLKPl00K5CCwaMlEeYY8O5gUCuls1cp536azjziPiP69mfcCcjbihXbOdgVHPNk2BaJvXfxH7lJt8sY6YAJH28cgRgXCGbOEPh08V/0jOyLNTh1TB6Nt/GwIhO/pSzKldv0dEkiyFSAlGr5aZqJCJotcAkxHKDzTKUKTz8CcCI0ELu5jHjl3iRw5++Xs6Cko6orDNzh7iPMjWC9j2ygMMrxMG0NEJPSW/hV4oCHnDi4tvsx9YM034/STOAkfvh8NPQcxCpD8w4R9BLWIRzzupzqxuap5q50AhuSNpvFU0fPs4ikRPG56GcOIeBPqYSmAHy1m7yzn7I22MGkm7YvjBzjzj5+drW+vEXM7LErhTaBxyJbVw/g32vaHq+fp6HdUsvP+Yxf+rTd5Wvq3PdOjZBLtD8kovqCTcIXzDRrMf/z6F4Rwo2w4gVuiCHEVsJqZeYFBSUL5AYfwDucDEYHg2FKOyGYhsFBH7PCrAgWK6TFXYmSCyayB4b3h7eGkNCl3o17wcxpZB+42/2QCMZH+mSCcGcQH+sU1nDnTe1d8xTJug5cHtVKh34iMoiEYxqDHIl9l/Svu57u/rA6wraNXW4BKrXiC+9fwJFqmMJO8weCio22YLDJMjehxOgMvoSKcIcYuCsxnkgvcgTncDwKZCtF4bsQiwA120Q9HhdDXxvJPGOzBFffaNnrBGJZRABIa4wpxsLVMRn+7/zs2WAv3RJ0RAR/Dl0ZIIZxEKbyDFElCe9KEjnydJPH7PwMVmWNFWw1PZuIKzOY8SKvX6dzcdy7/D0iK/nvnIdA1lb6So/MQTwWNMoQ1ISFAefHcOzVZ+4gN4kxSQp0hHs/ILdoPZKZB75Z7JvHZvqdOXMuDxBrMVLCCF8sz8eeMaNFW49XGekEA4kzCeWBHyq1L/thgpOtAq/6wja7TERlFE9HGIQKmhygCkYs2AQMZQ53RdTm2Wukg6fGw17F1PtLTMEn/TJNEF0JE7171F1ohYP6JZze2oaJfZGI4OAJxYApL1gDEWeXY/63KB8cNllDHARoHSR0OsPPkvmmrCMCYiSYtmLZGB+5/zQLLwXkINEwX5BHHqGij3nTojgCyExrj5uN3B77vOL6TpWQYOV7eYBSW8+m91xYwj9mElnS49676kpJkOM+CCbSfYId66cI+akYlO8DeezXnHq77pmq/BMFaE16YhUYEOv8nagmC6zXFe3f8hNLtchxIFAppX0aD+Pg0FlqkzKioZPDe2+WY237sEf3E3vcUQO2weBZeYrTuWIA8H58FN8Yj5nictnLp/A9ofenTuseRO8mIeKZokDKjIBqdU5Am3oe4YE3TDvfw/r9RpPqg1rGmionUHZ+JsQHwFrwEwmPq+IGxPGU3seV1w9w7PC2EdQh1hbqZADMtRoWOAyBRZhEJeEzjFnE0zmEg7ua1y4a38Oj/f9eEcMrzFUYdmsiyKn3Lkj+yAxv9Dn+xL+7dgeBYHYgokcbEKBoKzOI9Hk5YwyHXgGVsYmzmFfK9tIuSSQSswXF88fzx7jUuA1pEhIPtoRu1bQcnKoxHwcKMB45jZhRAwawAXGAGksU60jPV/2RnRfA9Sw+q7f/pmfOdYV4IWX70OQ7EEAkOX1f+KS1wbgAlE77xMHXWeOQlI4wK7QXt4hrGLb7bo1PDXjj8UzuzD6+QA61glzHtPGNYwAG4GYcIqMIgspgunfdeadKdiRVoBC1MZK2+Po9XySijABJEhaFJYVS7SDZ8XSnB2449KGdjv5kPltwhRtRDjBJqvJAe2K716YE2eBAgGNSp9DEWHtcqz+9tc9/rpk32p3ky0cfjo5wreDPOqAA812CzTbtATAwkZ4CkmdeUbM8+XNaEWNyzI7ZV4VxqWiAywmLard7JENLFtuf4DQhkRmkDtEo0ysCzlHNlvseFUYaBXqLI8D5E4PkepPcriWS3Uo6r9NMM4RhptMxO7OJ5KGZ/POHbS4cwgSG+FV4ZdfyVRVDy9qjDGEqMbtUMbeGZdbWlylHLOwvnzswZaANexpVRoS9PKD7F511ycJHiQPRmHWPKUdVktJK8Qo46dTEv9qcwDHE07nnGeRZGmagvhigwxLPE+pbJgjGJP60GTFFeBb9pVa5s2RXazVKqTW6MOxQfYdGT8c+DGT5El+N065wwCthBMpSESRTDPEOSQXyS9/m1GhL4j5za5U5pldbyIpQbAXtwjT0D/eKlZ0RgBj1QS/9YPGTGoyvRA70xjeHUSlaEycfgF9nKlENI8ksQGsBku6wXJHssgJ2ok7hxDt+cM0ZFcYoyzd/3xDX5j0tvqM/5rfx0EEmTHBfAvIw/ltrtLCI5KQzuQddogw1rJFXCFHL4OLUMp4DcC37WfIZ+jDloCf0Exg5mOtoUFYIA1bm/viWMiqIZmBa0LE42kRsC6XUIQpFsQ9aR5VKYKfNaw3zGa5y/EhVhV8dQBU2DQdZHvJ8oLEM981bee8sZFUUeQiUZlvwGJwQGeqImx7ZkjeHf8RRM8c/7FngNJdrfUEIR6r3V1/OKUUMRYzjmDa7rGTn4fvJOYMr5zJAktP3fnfeM6g/u7++n/wfds3tEnzu1TAAAAABJRU5ErkJggg==;" vertex="1" parent="1">
          <mxGeometry x="130" y="275" width="65.09" height="70" as="geometry" />
        </mxCell>
        <mxCell id="LfRqxSiJlln_DhOymT-F-17" value="" style="endArrow=classic;html=1;" edge="1" parent="1" source="LfRqxSiJlln_DhOymT-F-15">
          <mxGeometry width="50" height="50" relative="1" as="geometry">
            <mxPoint x="430" y="400" as="sourcePoint" />
            <mxPoint x="130" y="307" as="targetPoint" />
          </mxGeometry>
        </mxCell>
        <mxCell id="LfRqxSiJlln_DhOymT-F-18" value="" style="endArrow=classic;html=1;exitX=1;exitY=0.5;exitDx=0;exitDy=0;" edge="1" parent="1" source="LfRqxSiJlln_DhOymT-F-16">
          <mxGeometry width="50" height="50" relative="1" as="geometry">
            <mxPoint x="200" y="310" as="sourcePoint" />
            <mxPoint x="510" y="310" as="targetPoint" />
            <Array as="points">
              <mxPoint x="260" y="310" />
            </Array>
          </mxGeometry>
        </mxCell>
        <mxCell id="LfRqxSiJlln_DhOymT-F-13" value="BFF for Innovation Corner" style="rounded=1;whiteSpace=wrap;html=1;strokeWidth=2;verticalAlign=bottom;" vertex="1" parent="1">
          <mxGeometry x="540" y="210" width="120" height="90" as="geometry" />
        </mxCell>
        <mxCell id="LfRqxSiJlln_DhOymT-F-12" value="" style="shape=image;imageAspect=0;aspect=fixed;verticalLabelPosition=bottom;verticalAlign=top;image=data:image/png,iVBORw0KGgoAAAANSUhEUgAAAFAAAABECAYAAAAWVrIgAAAMYWlDQ1BJQ0MgUHJvZmlsZQAASImVVwdYU8kWnltSSWgJEZASehNFagApIbQIAlIFUQlJIKHEmBBU7OiigmsXUSwruiqi6OoKyFoQca2LYnctiwUVZV0s2FB5ExLQdV/53vm+ufPfM6dnJncOAHrtArk8D9UHIF9WoIiPCGGPS01jkx4CHcAEusANMAVCpZwbFxcNIA3Mf6c31wCini+7qm39c/2/kqFIrBQCgKRDnClSCvMhbgIALxbKFQUAEEMh32ZqgVyNJRAzFTBAiGeqcbYGL1fjTA3e1i+TGM+DuAEAMk0gUGQDoNsC+exCYTa0o/sQYjeZSCoDQI8JcaBQIhBBnAjxsPz8yWo8F2JHKC+HeCfEnMyvbGb/zX7moH2BIHsQa/LqJ3KoVCnPE0z/P0vzvyk/TzXgwx4OmkQRGa/OH9bwRu7kKDWmQdwly4yJVdca4ndSkabuAKBUiSoySSOPmgmVPFg/wILYTSQIjYLYDOJwWV5MtJafmSUN50MMdws6TVrAT9TqLhIrwxK0NjcoJsfHDuAsBY+r1a0VKPr9quVbVLlJXK39GxIxf8D+6yJJYgrEVAAwaqE0OQZiXYiZytyEKI0MZl0k4cUMyChU8er4bSHmiGURIRr7WHqWIjxeKy/PVw7ki5VIpPwYLa4okCRGauqD7RIK+uM3hrhOLOMmDdgRK8dFD+QiEoeGaXLHWsWyJG2+2F15QUi8VrdbnhenlcfJ4rwINd8aYlNlYYJWFx9VADenxj4eLS+IS9TEiWfkCEbHaeLBC0E04IFQwAYqODLBZJADpK1d9V3wTbMSDgRAAbKBGLhqOQMaKf0rMvhMAEXgT4jEQDmoF9K/KgaFkP9pkKt5uoKs/tXCfo1c8AjifBAF8uC7ql9LNugtGTyEHOk/vAthrHlwqNf+yeNCTrSWoxqwy9YbkCSGEUOJkcRwohNuigfi/ng0fAbD4Y5zcN+BaL/IEx4R2gj3CVcJ7YSbk6TFim9iGQPaof1wbcaZX2eM20ObXngIHgCtQ8s4CzcFrrgn9MPFg6BnL8jlaeNW587+N3kOZvBVzbVyFDcKShlCCaY4fqup66zrNWhFXdGv66OJNXOwqrzBlW/9876qswjOUd9KYouwA9gp7Dh2BjuM1QM2dgxrwM5jR9R4cA897N9DA97i++PJhXak//An0PpUV1LpVuPW6fZRuwYKxNMK1AeMN1k+XSHNlhSwufArIGbzZcLhw9jubu5uAKi/KZq/qVes/m8Fwjr7hZf7GgAfc3h+ir7wRDMAaLgAj0z9F559Fnw3AuBor1ClKNTwcPWDAP8N9OCJMgEWwAY4wozcgTfwB8EgDIwGsSARpIKJsM4SuJ8VYCqYCeaBElAGloM1YD3YDLaCnWAP2A/qwWFwHPwKzoGL4Cq4BfdPB3gGusEb0IsgCAmhIwzEBLFE7BAXxB3hIIFIGBKNxCOpSAaSjcgQFTITmY+UISuR9cgWpBr5CTmEHEfOIG3ITeQe0om8RD6gGEpDmag5ao+OQDkoF41CE9EJaDY6BS1CF6BL0Qq0Ct2N1qHH0XPoVbQdfYb2YADTwViYFeaKcTAeFoulYVmYApuNlWLlWBVWizXCX/oy1o51Ye9xIs7A2bgr3MOReBIuxKfgs/El+Hp8J16Ht+CX8Xt4N/6ZQCeYEVwIfgQ+YRwhmzCVUEIoJ2wnHCSchKepg/CGSCSyiA5EH3gaU4k5xBnEJcSNxL3EJmIb8QGxh0QimZBcSAGkWJKAVEAqIa0j7SYdI10idZDekXXIlmR3cjg5jSwjF5PLybvIR8mXyI/JvRR9ih3FjxJLEVGmU5ZRtlEaKRcoHZReqgHVgRpATaTmUOdRK6i11JPU29RXOjo61jq+OmN1pDpzdSp09umc1rmn855mSHOm8WjpNBVtKW0HrYl2k/aKTqfb04PpafQC+lJ6Nf0E/S79nS5Dd7guX1ekO0e3UrdO95Lucz2Knp0eV2+iXpFeud4BvQt6XfoUfXt9nr5Af7Z+pf4h/ev6PQYMg5EGsQb5BksMdhmcMXhiSDK0NwwzFBkuMNxqeMLwAQNj2DB4DCFjPmMb4ySjg0lkOjD5zBxmGXMPs5XZbWRo5GmUbDTNqNLoiFE7C2PZs/isPNYy1n7WNdaHIeZDuEPEQxYPqR1yachb46HGwcZi41LjvcZXjT+YsE3CTHJNVpjUm9wxxU2dTceaTjXdZHrStGsoc6j/UOHQ0qH7h/5uhpo5m8WbzTDbanberMfcwjzCXG6+zvyEeZcFyyLYIsditcVRi05LhmWgpdRyteUxy6dsIzaXnceuYLewu63MrCKtVFZbrFqteq0drJOsi633Wt+xodpwbLJsVts023TbWtqOsZ1pW2P7ux3FjmMnsVtrd8rurb2DfYr9Qvt6+ycOxg58hyKHGofbjnTHIMcpjlWOV5yIThynXKeNThedUWcvZ4lzpfMFF9TF20XqstGlbRhhmO8w2bCqYdddaa5c10LXGtd7w1nDo4cXD68f/nyE7Yi0EStGnBrx2c3LLc9tm9utkYYjR48sHtk48qW7s7vQvdL9igfdI9xjjkeDxwtPF0+x5ybPG14MrzFeC72avT55+3grvGu9O31sfTJ8Nvhc5zA5cZwlnNO+BN8Q3zm+h33f+3n7Ffjt9/vL39U/13+X/5NRDqPEo7aNehBgHSAI2BLQHsgOzAj8IbA9yCpIEFQVdD/YJlgUvD34MdeJm8PdzX0e4haiCDkY8pbnx5vFawrFQiNCS0NbwwzDksLWh90Ntw7PDq8J747wipgR0RRJiIyKXBF5nW/OF/Kr+d2jfUbPGt0SRYtKiFofdT/aOVoR3TgGHTN6zKoxt2PsYmQx9bEglh+7KvZOnEPclLhfxhLHxo2tHPsofmT8zPhTCYyESQm7Et4khiQuS7yV5JikSmpO1ktOT65OfpsSmrIypX3ciHGzxp1LNU2VpjakkdKS07an9YwPG79mfEe6V3pJ+rUJDhOmTTgz0XRi3sQjk/QmCSYdyCBkpGTsyvgoiBVUCXoy+ZkbMruFPOFa4TNRsGi1qFMcIF4pfpwVkLUy60l2QPaq7E5JkKRc0iXlSddLX+RE5mzOeZsbm7sjty8vJW9vPjk/I/+QzFCWK2uZbDF52uQ2uYu8RN4+xW/KmindiijFdiWinKBsKGDCy/t5laPqO9W9wsDCysJ3U5OnHphmME027fx05+mLpz8uCi/6cQY+QzijeabVzHkz783iztoyG5mdObt5js2cBXM65kbM3TmPOi933m/FbsUri1/PT5nfuMB8wdwFD76L+K6mRLdEUXJ9of/CzYvwRdJFrYs9Fq9b/LlUVHq2zK2svOzjEuGSs9+P/L7i+76lWUtbl3kv27ScuFy2/NqKoBU7VxqsLFr5YNWYVXWr2atLV79eM2nNmXLP8s1rqWtVa9sroisa1tmuW77u43rJ+quVIZV7N5htWLzh7UbRxkubgjfVbjbfXLb5ww/SH25sidhSV2VfVb6VuLVw66NtydtO/cj5sXq76fay7Z92yHa074zf2VLtU129y2zXshq0RlXTuTt998U9oXsaal1rt+xl7S3bB/ap9j39KeOna/uj9jcf4Byo/dnu5w0HGQdL65C66XXd9ZL69obUhrZDow81N/o3Hvxl+C87DlsdrjxidGTZUerRBUf7jhUd62mSN3Udzz7+oHlS860T405caRnb0noy6uTpX8N/PXGKe+rY6YDTh8/4nTl0lnO2/pz3ubrzXucP/ub128FW79a6Cz4XGi76XmxsG9V29FLQpeOXQy//eoV/5dzVmKtt15Ku3biefr39hujGk5t5N1/8Xvh77625twm3S+/o3ym/a3a36g+nP/a2e7cfuRd67/z9hPu3HggfPHuofPixY8Ej+qPyx5aPq5+4PzncGd558en4px3P5M96u0r+NPhzw3PH5z//FfzX+e5x3R0vFC/6Xi55ZfJqx2vP1809cT133+S/6X1b+s7k3c73nPenPqR8eNw79SPpY8Unp0+Nn6M+3+7L7+uTCxSC/qsABgeaBe8IL3cAQE8FgHERtgnjNT1fPyGaPrUfgf+ENX1hP3kDsLUJgMS5AKiv5pvVdxCI9YI174nBAPXwGBxaUmZ5uGts0WDHQ3jX1/cK3m1IjQB8UvT19W7s6/sEe1TsJgBNUzS9ppqIsDf4Qd0TgWvbFw74HyRNH/pVjt/OQB2BJ/h2/he04oY5v3YfqQAAAJZlWElmTU0AKgAAAAgABQESAAMAAAABAAEAAAEaAAUAAAABAAAASgEbAAUAAAABAAAAUgEoAAMAAAABAAIAAIdpAAQAAAABAAAAWgAAAAAAAACQAAAAAQAAAJAAAAABAAOShgAHAAAAEgAAAISgAgAEAAAAAQAAAFCgAwAEAAAAAQAAAEQAAAAAQVNDSUkAAABTY3JlZW5zaG90xa3rdwAAAAlwSFlzAAAWJQAAFiUBSVIk8AAAAnFpVFh0WE1MOmNvbS5hZG9iZS54bXAAAAAAADx4OnhtcG1ldGEgeG1sbnM6eD0iYWRvYmU6bnM6bWV0YS8iIHg6eG1wdGs9IlhNUCBDb3JlIDUuNC4wIj4KICAgPHJkZjpSREYgeG1sbnM6cmRmPSJodHRwOi8vd3d3LnczLm9yZy8xOTk5LzAyLzIyLXJkZi1zeW50YXgtbnMjIj4KICAgICAgPHJkZjpEZXNjcmlwdGlvbiByZGY6YWJvdXQ9IiIKICAgICAgICAgICAgeG1sbnM6ZXhpZj0iaHR0cDovL25zLmFkb2JlLmNvbS9leGlmLzEuMC8iCiAgICAgICAgICAgIHhtbG5zOnRpZmY9Imh0dHA6Ly9ucy5hZG9iZS5jb20vdGlmZi8xLjAvIj4KICAgICAgICAgPGV4aWY6VXNlckNvbW1lbnQ+U2NyZWVuc2hvdDwvZXhpZjpVc2VyQ29tbWVudD4KICAgICAgICAgPGV4aWY6UGl4ZWxYRGltZW5zaW9uPjgwPC9leGlmOlBpeGVsWERpbWVuc2lvbj4KICAgICAgICAgPGV4aWY6UGl4ZWxZRGltZW5zaW9uPjY4PC9leGlmOlBpeGVsWURpbWVuc2lvbj4KICAgICAgICAgPHRpZmY6T3JpZW50YXRpb24+MTwvdGlmZjpPcmllbnRhdGlvbj4KICAgICAgICAgPHRpZmY6UmVzb2x1dGlvblVuaXQ+MjwvdGlmZjpSZXNvbHV0aW9uVW5pdD4KICAgICAgPC9yZGY6RGVzY3JpcHRpb24+CiAgIDwvcmRmOlJERj4KPC94OnhtcG1ldGE+CnBt1FkAABHmSURBVHgB7Zx7jFzXXcd/9zV3ZnZtr9/22nGcOmnaBjWlTQppStU0btKKNIhHwkOFqH+goiCEkBAgJAR/0H/oH4CEUKsqQaKkUdVEDUlaWqCQNFEeTkuCbNoQJ3Zsr3fttWOvd3fe98Hnd+5c78x4d2funVm7SD6r3Ttz7zm/8zvf83ud3zl3rZgiV0tuBOzcLa82NAhcBXBIQbgK4JAAukO2H0FzTHAcSlh9W8K5V7kekaA+JWF9RqygKhJVJI4CsZx1ErtFsf2t4vi7xSrtEW/D+8VddxPPCvBxZWTBuhJORP1WHNUlXjgojVPfksY7z4kVzUsUKZhgYVmrTwx1LDsWi5/Q8sRb/9Pi7/iUeJt+Tmx3PQ+d1duP8OllBTCOI5HWOWnOflsqxx8RX/jcisBMpUeRy1tiKXiWtEJXCtvuleI194ld3AvIXl6CA7e7bADGrTlpzHxTascflqJbl1ojEbR8UZRKKJOBBBppNZGYfhbxnFhCJNnfdo8Udn9OnPIe7q+deq85gHHUlNY7L0rt6N9K0ZqSSp1RRjr4TonjXtd3vuYqSodf25KiE0kzKEjput8Wb+evoNrjuSj2a7SmAEbN81I/8bDIma9LvaGgqSToNSlq6tYqjDcWkg7GilgN/2Yp7vtjccevTzrWTvvZ2ZTJPtc1AzBY+F+pvvVXUgoPyUIVox61YKVT6vpwlvtxpzRbEuNQyoVQWvGE+Pv+SPytnwA8+BkRiGsCYGvuh1I7/JfihlNSa7pixSl4OrjLX9RJFQjYwtiV4t7fE3/ylzGLhD4jAHGEAKp0WdI89wLg/YXwQYLQQVPCNmKdknEFQIwtcV0kEtCKez6Pp34Ai6JeOuE7L0ejcU86k4AXXHhNGoe/IHYwhyfsBE/Z0zpXrlhWjO8icsQjN6YeltrJx2BJJ3c4vkYDIAY5rB6X5ttfFDucxfuptKWSd+VA6+051hUPbDl2JOHJr0hj9ntUsZHK/LyOBMA4rErj6N+I1zws9QCb9xMI3hKYIcG7iGtVJJr5ioSLryOVunLJJ4nDA4j61k88Kl7teblQtcU2DmOJ3a5PRtXbdzo/d1Va+y9WHMhizZJCeEwWj/w9AcIcnaI1OXgaGsBg4UcSTj8k8wqeBIQNK3varmfUu2QVYoQgnyRkgp2+bSuQuUVbSg2C/Jkn4SUAw+x9Dwdg1JDa21+Cd7IlaYC8wiwqWMYPczVrYni1usDmqcE+BTb7YAYFMZ04G8DCyBPr7BMSVd+iucKRrd/8AJIYaJ1/WQq1A9JoMXJNFKxYAE8lLmyI5U6wrNpkZlyx1sEkvxjyNu+mLmHHWpeINFmlHknZPin1mW/DH+mzbPgZyHPxGbHGrRz9sjRC1CGVvhUpqVSFYnnbpLj7t6R07YNiF3aBeUQoto0c37Vct14EUoHVsCOVlBXJDvnAtjE7xKnzFcKbue8ihUe0Y6gOjmK+hCojDOdfE6/1htSRPuDpOxQFy9+xnyD2s6wCiBFd3yRNnfEb+F4GzKoEcwdJdf2LRM0ZQ7Fbxft2kblCOkEhQrDeZd1+/gVxxm7AjhcSHAegmBPAQOonv4HIK3irqW4HB8xsWHubYPugeBtvlsKOT/MQC8KEp3PubbpN3A0/JdUjf03dYzyHPSRRe+kqqvbQS+/q9LGk4k96p6v2AF8iubBAoF17SrzNdwHiXtoYqn3b5rKB6vatxQMs1frSv1jBslzSWs+yCvgnGJ3lPoNVuxmFqGpy1QSov+3jUtz1G0jlGPdbANMLSjd4SkdrdHn4i70O9sEE2LEt6wunUeM32416+12eVi4AW3MvEe/VodhfdZNu1YmgtvqFa6wLedqqikasmVsXfkQsNs8dfjDsxR33kAjda6Qq7gktYgBVaUt+1LZCSYVP/wxTlDmWecHcARZROJMBS2YAY9JSzbPPmWh+wD6oplYSKUMKnbF9OI2NRupUauoz/yyVQ38AzWfa9ajmjYld2oWGA3Ybl8ReKehAZ+55gHwj9G6kPg6In8EnlKq9BRu9sBhI7ezL2GbVEC39JyWzDVQzE1x4tT2I/h0kjAAKVY21ZPT6WUEwoDDbKn2IYnJf2VaPLYCnm0xsHqmtTM2bqrtqteNtlrEb/9Q8a0w/wUR8jTq+tuY3T9EpdmRd4YzEJEMGLZkBjOrT4sZzohm+TAUE1KZp+yioIIxFo9JFcnPepp8VG5VVlAy4qLm34WYJCG7j+imArJiuTHxIK5Vnq7BR3PXvM/ebZyZop8CpHuYFUElZ4rlsBagD2/CBNj29v3LJDGCrciShlvK7Mu2eJwya/dtg4ZAE84cA7Wd4zpyjqnYZdTXj5o/aIWyiA4Dj625EtV+Q4NzzqNU0QC4Y+HSgdmG7kWArrDEpU6bdcOCpfjjSahGiES3oXo5JuvaMovdrZgCj2olE9QhC+dBLb+XvqrpWUcLKm9IgBLJRQad8TWLnNJxpS1Cw8LpU3/yiAaq4nZ217XdJYctHpQWQzfPPMbiT4F4VZ5wNdXqLsMm6KR8zeJXM/CVxBy3dZq2fhh91kursVi85AJwRNU30sDrl3qfoplEwHEPr3DPMcFX87Z8RBynTzLA+swtbpHHiq3jCHwC2JZXKYTaC3sde713ibr9TvK23A+RLLCFflMKmW1XjJWzMgucxpCVNSSlfSi1roR321YRmajaCGhrDJr1OrHa0QskEoPF0ao+UR0VxZbrLdKc2UKUwSWAGhELB4o85prGTwZeh5cj4e/88CV8cdQbEh+E8Ic7L0lr8H3HH3muA9LbdwfXjqP0exhsD9mvY1HdoXoKGSpEypQzqbyYGk1bKY4j0tZOs6rBWo5IJQAUthrjRNvZekw/wOWAxTsCAqOEJNodTCmHrPBy6zHhF6lOPib/7fiTsFWnNH2jbIIAIF7Cbr0hQ+TGO4/2y7qYv8KyI+jbELV8rpcnPUv811PsonJAZYjLSYeukq9sZpNiMKYI/G7uaZqnVqa3WPFH8QagrHcMHkqFXg+KADTuqLYFIaKKqq6oHPV0bNzjyoWdm/O2fRqLG+cxKRH9MPUBmYE55H7qOtOGAWrPPStQ4JYXJz0jxus+Lv/M+cUvXw5ra1GSZtASeItGnqIBooG5FS5j1wT4TgIqZqpvOigKRtyRtjUGABAwbuiQXCB9ap/+V9ehHkazrzSSltSKWfP6WO9hN+3Xia3VGR6V24iHykV+W5vRT4NWQ4va7xb/uQbYt7xer/G4DRqSSbkrK7ypAIoGqWKLxpJFiPq9SXclmAtBS6rZvJNGcpFIKucuSbCiCqtIWwDROPwXFAIdxl7FrqkpqbgsbP0Ymh7MupUkJmxdQ90cB8Q2Tuamf/qbUSa3Vp59E3WtSxOmU9v6OFCd/TTwDpNrdJSDTLEwv6zoms9JxEpusz4229Vbs+J7NBiItdmkrUqjIJ06hg9YQH1UKGaDGieTkmrP/LoWtn+ToG6l24j9vy53kEe8nuL7JeMcmK4/m7HdUDehTf9ltaxyXeHbaOB13w4fFnfggzmY/1w9Ja+6/iC1/AOBvURezYJyNipa2TYtOKOsfh3vuBsaYhDD9bGBGAFUAOdxo+tS/feQ75W2QK+QURGW8ceopBn+3FHf+EoAtikcs6I7hdVuLLNmeJpX2KEmcKnV1GrUkvOhiLKqfBMwn8c4vAfit4m68lVjyzgTIcy+SEXpG4uYp2vYOnQkE2IJLIF+eZKAcqjGkkx6SL5f+7aVyaY2eO07xGmZwlNKXdqA0yVDjMILFN6Rx5hmcyX7s3RgOpkSwfBL1/o40ph9DhWeN8KXSYWzzRZusVonVBCBFs08jfa8YafQ23Q6gH8Cb/zcgnwCr9FRC2r+206Uc8lycNOYjfbLaNTOA7ti72JzWztSm9KrBal31f5ZgoLbQkebpJ1Hdj7Hm3ZysQs78G8u6/yTmm0/AQ1rUwRjFQ0hMjKnf2kAquGq/wtYpCWe/BXAHEapJpPhsW/qW0x4aMDT15EnpPz5FIlOJcSI261S7nSXJ1LhvZVUXNeRIIcd/mxz/tYj1qscekvqpxw14uo+RBOPd8Z0BTpu3i4Kn4NoAbRMqRY0p7ODLAHhuGenTRjRga/NCpQzQW1Iyfa+ZAdTMsrvhQxyP6Es7Z4VElVXFmqefRoIWWLbdDgjq/VXm1GMryB1oLdOTgmcw6aivwC+Zn5720CsVOYDEwXWLXcOk9NRZpp/sMNCRnrGzzQD6d7BMn31vKVA6UUlciEdm/8QqoH6qlstp3ioUExXv5vMS8A1RAPRt7OVtOMrNq1DsfpQdQNrbvGIQePuMRHSTG9W3VAo5SXXqMaSvaLyyGijN+10CwLDdqmQiqecXOGNNqGTKxbhxdeK5AFQbVZz8RSmqI6PztSiJFDomLqyf/Q+2RO9J9o5VjQFxpWA4Dy8xYxgvxzitT4pV3J2QGHBc+UYP8cLW/VILSsxct3rkGcDybVQKE2lrTj9OqmsikUK8Q3p/+XZZ7xolR7h5RYIx2d4EBAa3E/kApAvLWy/lax/A8KpZh4yxI1mZX71+KoUhaa/m2e8j9b/AADeiwtrd4INcqRedes3crCtHUnVv4YWdZIsgC+ncAIIgK4R7pRZu4t0MZlEz1CMviS1UxBonH2eNv53s9B2AR9Y4yyhX4EunwCzdyO6UMUlWITleksXGDjVqu7BJytf9Lm8JsYQipb4W2qyD0fAjWDzEMux5Ulb3i8MBJb0/DIhGijn5MF6KpFH+BN73FjMxWcDTeRkKQBV/nwV7o3iLjPl6wkATmcOrljLWWRKgIqkf/0f2QnjJcOvd9MWmj6KQpyC9uodS4vWH+dZmKe3+VWK/dXkoDQeg6RHxH7/hTyTyUC+2BHVna9QlkUI9h/06y7rnxN91H8u9idwSqF7X48S+65eNBjnj74FldVjZ5Sl7ix50VDr0fTR71+/jyEqsUFQqhibb08uS06hPfZ3TCHuksHm/UblLKva9oSkrR1ybs9Lj95K8xaZynCSv4gw9UqNGaG2RlJG143M4E3yygphjNlcbu/ajfiNcPCi1Y4+QgSbqzVwSZ+djs8PxO2SMKMIieWokL6c5ILAfgTvTgRgyhANH/44z02xN8k4GSsF9VWsNF9pVzLd8f5TVBEiSSHqYXedpwIGbvQ4mdsyPpVn6sIy/+88ImnfAiPKXX45GCqC6D163kdqRLxF2fJXB6T6rw1UdTAJiPuh6WyU99d5d6buCp+GK75InHP+IjF3/h7zxzqa+bjylex8rNe5zf3QAmo6Sgelp1MbUI9KcegimK5xD1o3zFiDq8/wllcCUQu/39P7SVUVU7V2QxHsT90j5XQ8STxLv6b8RuCQrvdRy0E8jBlC7XZKO5tnvoc7/IH5wmDwbT4w2J9uNgzKYu56xwbZZZdSCMd4ZfgDv3X5v2LzSkDmXvCwrawCgYgiIbdsUcBamefJr5hzgeNlBGtnfVdUxaA4nkb0jSuyjOgpXPLsphQIBePGD4u36TQ4z3Z5UH4Hadva7NgC2ezDn/FChiK3G1tln2Qh/QvzGq9hFgmJegzUqrQPKG0OkIzGTpfEnsZ0TyPoxW+ab25C6+8hdkiAglZ9MqjZArUdY1hRA5TMFUT8HnKwKzh+Q1hk2z+s/FN+35PwFtUWFBEwDpEolvxftpX5XL5l6yzTgNS6YalxRyfEyr27xjyfmW5Pibft5JO4j/EuUdnJgRPYOJi4paw6g6dGodAoEUHD6KeSci57Capz5vkz4s0YwqjWOawR4Sn0t1Rj4RFpSZ2EkFiBt9oFdTFjJdzipasncPMd9UVF/423ikFHRVxW0JPVTwM2tkf+5PAC22TanD4y6tYHhoJIejgxrnFqtvsFGEu/d8dps1JiR9aVQHPYozLGEFHteq5ibY2PcZ9uxuJOjce8Rj3+846Cidon9apPLSzFKJTb9vjbXywrg0hDaKtq1WmFbnBP7cYi71nPTgGtxSjQ5DYYU6X8n0h1Bjr5Zulesxy88PUGgR+Haxag9tLvopg/X5nqFAOwYTHulkn/Q6WSoVCeS3UF9zT9eeQA7h2hsZWK7LkKhKq8Y8dN1z7S7eKeTymX9/JMF4GUd+mg6y7+KHk3//++pXAVwyCn8P4Ymf2KVJNk8AAAAAElFTkSuQmCC;" vertex="1" parent="1">
          <mxGeometry x="580" y="220" width="40" height="34" as="geometry" />
        </mxCell>
      </root>
    </mxGraphModel>
  </diagram>
</mxfile>
